<svg width="98" height="127" viewBox="0 0 98 127" fill="none" xmlns="http://www.w3.org/2000/svg">
<path d="M82.3357 122.972L90.2629 86.4807L92.9825 64.0217C92.9825 64.0217 68.2766 39.6326 61.2705 31.6381C54.2645 23.6437 46.3134 12.2063 42.6116 13.0117C38.9098 13.8171 38.1651 17.9271 40.5271 23.0418C41.4875 25.1524 42.9789 27.4711 43.6107 29.6183C44.1646 31.4013 43.9029 36.3243 42.1656 37.5561C40.0563 39.0258 38.1702 31.7766 35.5299 33.0384C34.1273 33.7087 32.7336 37.1651 33.8802 40.9334C34.3147 42.392 35.6817 44.8303 36.4873 46.1316C38.6221 49.5882 38.5975 51.728 39.9492 55.4986C41.3404 59.3908 41.0315 54.1382 39.678 57.6759C38.0285 61.9773 35.6737 66.9571 35.5379 71.6393C35.288 79.1062 44.2974 91.2826 47.9633 97.1794C51.6286 103.117 44.2482 117.002 44.2482 117.002L82.3357 122.972Z" fill="white"/>
<path d="M82.3323 123.254L44.2038 117.285C44.1217 117.284 44.0406 117.202 44.0005 117.121C43.9604 117.04 43.9614 116.959 44.0033 116.878C44.0872 116.718 51.3007 103.072 47.7151 97.3381C47.1109 96.3621 46.3449 95.1823 45.5384 93.9617C41.3448 87.5743 35.0552 77.9326 35.2506 71.636C35.3785 67.6401 37.0686 63.3795 38.5885 59.6418C38.8836 58.9588 39.1376 58.2753 39.3916 57.5918C39.5193 57.1895 39.7291 56.7881 39.9794 56.4276C39.8996 56.2248 39.7798 55.9408 39.6605 55.6164C39.224 54.3193 38.9079 53.2659 38.6328 52.2129C38.0812 50.2281 37.6084 48.5268 36.2392 46.2903C35.2722 44.7448 34.027 42.429 33.5915 41.0512C32.4058 37.121 33.8828 33.5443 35.409 32.8351C36.9352 32.1258 38.2695 33.837 39.4005 35.3843C39.8443 36.0355 40.3301 36.6063 40.8569 37.1776C41.4257 37.6687 41.7552 37.5514 42.0032 37.3927C43.575 36.2802 43.8759 31.5191 43.3215 29.7765C42.8054 28.2766 42.1653 26.856 41.3606 25.474C40.9592 24.7022 40.5577 23.9304 40.2379 23.1999C38.7166 19.9119 38.4624 17.0422 39.4696 15.0752C40.0989 13.8712 41.2162 13.0361 42.5317 12.8089C45.4522 12.156 50.3888 18.1482 56.0527 25.1178C57.8331 27.2783 59.6536 29.5199 61.4359 31.5189C68.4023 39.3917 92.9045 63.6573 93.1478 63.9024C93.2294 63.9437 93.228 64.0648 93.2271 64.1456L90.5075 86.6046L82.5798 123.136C82.5793 123.176 82.4553 123.256 82.3323 123.254ZM44.7021 116.765L82.1341 122.646L90.0175 86.3971L92.7353 64.0996C91.0313 62.4245 67.8275 39.4255 61.1044 31.7977C59.3222 29.7988 57.5017 27.5571 55.7217 25.3563C50.6238 19.12 45.3641 12.6799 42.7728 13.2558C41.6213 13.4849 40.6285 14.2003 40.0831 15.2438C39.1602 17.0098 39.4559 19.8396 40.8569 22.884C41.1768 23.6145 41.5787 24.3459 41.9801 25.1177C42.7843 26.5401 43.465 28.0015 43.9807 29.5418C44.535 31.2844 44.3526 36.4506 42.4498 37.8016C41.8709 38.1987 41.2565 38.1109 40.6061 37.5785C40.0383 37.0067 39.512 36.395 39.0276 35.703C37.9772 34.2778 36.9278 32.7718 35.7727 33.3238C34.6175 33.8758 33.1437 37.1698 34.2497 40.8972C34.6843 42.3558 36.0922 44.7946 36.8167 46.0143C38.2671 48.3325 38.7394 50.0741 39.2906 52.0993C39.5661 53.1119 39.8818 54.2057 40.3187 55.4625C40.4385 55.7465 40.5178 55.9896 40.598 56.1521C40.639 56.1525 40.68 56.153 40.762 56.154C41.0893 56.2385 41.2907 56.5638 41.246 56.8863C41.2847 57.0886 41.1183 57.2886 40.9127 57.3266C40.7481 57.3651 40.585 57.2825 40.3831 56.9975C40.2573 57.2384 40.1309 57.5195 40.0046 57.8007C39.7506 58.4842 39.4556 59.1673 39.2015 59.8508C37.7231 63.5485 36.0335 67.7687 35.907 71.6435C35.7134 77.7787 41.9629 87.3391 46.1164 93.6454C46.9229 94.8659 47.6889 96.0457 48.2931 97.0217C51.676 102.552 45.8357 114.517 44.7021 116.765Z" fill="#231F20"/>
<path d="M63.4484 99.2146L25.1862 87.0254C23.6329 86.523 22.79 84.8982 23.2999 83.3697L49.7847 2.87864C50.2946 1.35015 51.9453 0.521178 53.4986 1.02355L91.7607 13.2128C93.314 13.7152 94.157 15.34 93.6471 16.8685L67.1622 97.3596C66.6523 98.888 64.9607 99.7165 63.4484 99.2146Z" fill="white"/>
<path d="M64.3054 99.6283C63.9772 99.6245 63.6495 99.5804 63.3637 99.4559L25.1015 87.2667C23.4256 86.7225 22.4615 84.9348 23.0138 83.2857L49.4987 2.79458C50.051 1.14545 51.8671 0.197249 53.543 0.741404L91.8052 12.9307C93.4811 13.4748 94.4452 15.2625 93.8929 16.9116L67.4076 97.4431C66.9821 98.7707 65.7002 99.6443 64.3054 99.6283ZM25.2717 86.7437L63.5338 98.933C64.9235 99.3931 66.4091 98.643 66.8761 97.2755L93.32 16.7839C93.5325 16.1403 93.4998 15.4132 93.1376 14.8033C92.8163 14.194 92.2476 13.7029 91.5936 13.4935L53.3314 1.30426C51.9417 0.844146 50.4561 1.59425 49.9891 2.96172L23.5448 83.4937C23.1188 84.8616 23.8815 86.324 25.2717 86.7437Z" fill="#231F20"/>
<path d="M50.3154 8.63312L28.5601 74.816L67.79 87.3186L89.5453 21.1357L50.3154 8.63312Z" fill="#007EC6"/>
<path d="M49.0086 91.902C48.8035 91.8996 48.5989 91.8569 48.3942 91.8141L40.9546 89.4272C39.8507 89.0915 39.2488 87.9136 39.5895 86.8274L40.5244 84.0117C40.8651 82.9254 42.0617 82.3335 43.1656 82.6692L50.6463 85.0566C51.7502 85.3923 52.3521 86.5702 52.0114 87.6564L51.0765 90.4721C50.7381 91.3565 49.9111 91.9123 49.0086 91.902ZM42.5032 83.1865C42.2571 83.1836 42.0105 83.2212 41.804 83.3399C41.4325 83.5376 41.1831 83.8173 41.0554 84.2197L40.1204 87.0353C39.9932 87.3973 40.0291 87.8418 40.2305 88.1672C40.4315 88.5329 40.7158 88.7784 41.1247 88.9042L48.6054 91.2917C48.9732 91.417 49.4249 91.3818 49.7554 91.1837C50.1269 90.9861 50.3763 90.7063 50.504 90.304L51.439 87.4883C51.6944 86.6837 51.2524 85.8711 50.4757 85.6199L42.954 83.232C42.7904 83.1898 42.6263 83.1879 42.5032 83.1865Z" fill="#D1D3D4"/>
<path d="M79.2405 13.7958C79.1995 13.7953 79.1995 13.7953 79.1585 13.7948L67.9988 10.2346C67.8351 10.1923 67.7549 10.0299 67.7978 9.86889C67.8407 9.70787 68.0057 9.62901 68.1693 9.67126L79.3291 13.2315C79.4927 13.2738 79.5729 13.4362 79.53 13.5972C79.4466 13.7174 79.3226 13.7967 79.2405 13.7958Z" fill="#D1D3D4"/>
<path d="M66.5288 9.61204C66.4878 9.61156 66.4878 9.61156 66.4468 9.61109L64.9341 9.14957C64.7704 9.10731 64.6902 8.94488 64.7331 8.78386C64.776 8.62285 64.941 8.54399 65.1046 8.58624L66.6174 9.04777C66.781 9.09002 66.8612 9.25246 66.8183 9.41347C66.7759 9.53412 66.6519 9.61345 66.5288 9.61204Z" fill="#D1D3D4"/>
<path d="M46.1921 40.6306C45.8468 42.1206 44.48 43.2355 42.7128 43.4978C40.6999 43.717 38.6959 43.169 37.0679 42.0198C36.1318 41.363 35.3207 40.5461 34.7164 39.5701C33.6689 37.9026 33.362 36.0417 34.0351 34.5959C35.1285 32.2665 38.8676 31.7846 42.0516 33.194C45.0314 34.5203 46.7094 38.4561 46.1921 40.6306Z" fill="white"/>
<path d="M41.724 43.8499C40.0015 43.7898 38.3256 43.2456 36.9014 42.2198C35.9248 41.5222 35.1141 40.665 34.4688 39.6885C33.3406 37.8989 33.0762 35.9174 33.7492 34.4715C34.8847 32.0619 38.6671 31.3786 42.1368 32.9124C45.1982 34.28 46.9983 38.298 46.4377 40.6739C46.0499 42.2845 44.6413 43.4797 42.71 43.7401C42.3809 43.8171 42.0522 43.8537 41.724 43.8499ZM38.5292 32.6691C36.6011 32.6469 34.9108 33.3543 34.2797 34.7199C33.6486 36.0855 33.9163 37.7844 34.9644 39.4115C35.569 40.3472 36.3392 41.1636 37.2347 41.7795C38.7806 42.9278 40.7441 43.4349 42.675 43.2148C44.3601 42.9515 45.6024 41.9564 45.9058 40.5466C46.3798 38.5736 44.906 34.7208 41.9257 33.4349C40.8642 32.9785 39.7188 32.6827 38.5292 32.6691Z" fill="#231F20"/>
<path d="M42.0486 51.3235C42.4053 52.4178 42.2277 53.5867 41.5602 54.5481C41.103 55.0677 40.524 55.4648 39.9054 55.7404C38.2142 56.5285 36.1184 56.8275 34.4047 56.0002C33.3856 55.4232 32.4919 54.6458 31.8467 53.6693C30.6341 52.0807 29.5474 50.2512 29.6111 48.2735C29.7261 45.408 32.9224 42.1741 35.9017 43.5408C38.3911 44.6999 41.3799 48.8124 42.0486 51.3235Z" fill="white"/>
<path d="M36.6112 56.7927C35.7907 56.7833 35.0131 56.6128 34.2785 56.2814C33.2184 55.7039 32.3251 54.8861 31.5983 53.8683C29.9811 51.7905 29.2631 50.0056 29.324 48.2701C29.4689 46.374 30.5554 44.6503 32.2084 43.6194C33.3658 42.8656 34.803 42.7609 36.0687 43.3004C38.6401 44.4605 41.669 48.6542 42.3778 51.2464C42.7335 52.4215 42.5546 53.7115 41.8456 54.7128C41.3879 55.2728 40.7674 55.7099 40.0668 55.9844C38.9532 56.4966 37.8013 56.766 36.6112 56.7927ZM34.466 43.5242C33.7686 43.5162 33.0689 43.7101 32.49 44.1072C31.0025 45.0188 30.0409 46.5825 29.8983 48.2767C29.8392 49.8507 30.5176 51.514 32.0537 53.5101C32.6999 54.4059 33.5526 55.1828 34.5306 55.7594C35.9995 56.4626 37.888 56.3632 39.7852 55.4967C40.4033 55.2615 40.9002 54.8635 41.3571 54.3842C41.9416 53.5026 42.1182 52.4144 41.8016 51.4013C41.132 48.971 38.1833 44.9398 35.8165 43.8224C35.3676 43.6154 34.9172 43.5294 34.466 43.5242Z" fill="#231F20"/>
<path d="M37.7314 59.2686C38.2168 59.8799 38.5371 60.57 38.6923 61.3389C39.0015 62.9979 38.1192 64.8048 36.7133 65.7577C35.2258 66.6693 33.4166 67.0119 31.7393 66.5889C29.6924 66.202 27.9013 64.9701 26.8547 63.2218C25.8085 61.4332 25.8335 59.2531 26.8389 57.4477C29.6813 52.8773 35.3477 56.0514 37.7314 59.2686Z" fill="white"/>
<path d="M33.1703 67.0091C32.6781 67.0034 32.1863 66.9574 31.6954 66.8306C29.5669 66.4024 27.7352 65.1297 26.6485 63.3002C25.5622 61.4304 25.5476 59.1287 26.636 57.2434C27.5561 55.7197 28.9196 54.8874 30.5204 54.825C33.2707 54.6951 36.3639 56.8706 37.9802 59.0292C38.4651 59.6808 38.8259 60.4118 39.0222 61.1812C39.2885 63.0012 38.4878 64.8494 36.9169 65.8812C35.7589 66.6754 34.4826 67.0645 33.1703 67.0091ZM30.7596 55.4334L30.5134 55.4306C29.0767 55.4949 27.9197 56.2084 27.0835 57.5716C26.0795 59.2559 26.0964 61.3557 27.1025 63.0632C28.1091 64.7302 29.8186 65.9208 31.7835 66.3067C33.4202 66.6889 35.1468 66.3857 36.5518 65.5136C37.9162 64.6006 38.6732 62.9942 38.4046 61.376C38.2484 60.6878 37.9281 59.9977 37.4833 59.4273C36.0292 57.4321 33.2619 55.4622 30.7596 55.4334Z" fill="#231F20"/>
<path d="M87.0941 126.62L88.5891 103.622L43.9506 103.634L34.8314 126.02L87.0941 126.62Z" fill="#231F20"/>
<path d="M87.0909 126.902L34.8282 126.302C34.6641 126.3 34.5424 126.178 34.5443 126.016C34.5447 125.976 34.5452 125.936 34.5452 125.936L43.6643 103.55C43.7067 103.429 43.8303 103.39 43.9128 103.351L88.5518 103.298C88.6339 103.299 88.7154 103.341 88.756 103.382C88.7966 103.422 88.8366 103.504 88.8357 103.584L87.3408 126.582C87.3795 126.785 87.255 126.904 87.0909 126.902ZM35.2449 125.742L86.8102 126.334L88.2577 103.901L44.1114 103.919L35.2449 125.742Z" fill="#231F20"/>
<path d="M89.8384 87.7275C89.8384 87.7275 97.1608 64.5945 95.9107 59.1292C94.6606 53.6639 92.369 31.7126 90.0814 30.8384C87.7939 29.9642 83.1685 36.1696 83.1722 42.9934C83.1669 47.0311 83.7773 51.0355 85.005 54.8855C85.005 54.8855 77.3368 58.1083 76.2639 76.5081" fill="white"/>
<path d="M89.835 88.0101L89.753 88.0092C89.5894 87.9669 89.5092 87.8045 89.5521 87.6435C89.6369 87.4022 96.8335 64.5101 95.6226 59.2067C95.2318 57.5064 94.7762 54.3113 94.2035 50.59C93.136 43.5117 91.3848 31.661 89.9961 31.1202C89.4651 30.9122 88.8461 31.2281 88.3916 31.5055C85.9937 33.0931 83.4352 37.9493 83.4593 42.9968C83.4544 46.9941 84.0654 50.9581 85.2935 54.7677C85.3331 54.8893 85.2902 55.0503 85.1252 55.1292C85.1252 55.1292 83.2284 55.9553 81.2656 58.9611C79.4282 61.7664 77.1107 67.0696 76.5924 76.4716C76.5906 76.6331 76.4661 76.7528 76.302 76.7509C76.138 76.749 76.0163 76.6265 76.0181 76.465C76.99 59.7195 83.316 55.4718 84.6786 54.7203C83.4915 50.9112 82.9216 46.9476 82.926 42.9907C82.9038 37.7817 85.6287 32.7255 88.11 31.0177C88.8954 30.5018 89.6362 30.3085 90.2077 30.5573C91.8006 31.1813 93.1446 39.1914 94.7792 50.4755C95.3519 54.1968 95.8075 57.3919 96.1987 59.0518C97.4489 64.5171 90.4228 86.8459 90.125 87.7712C90.0821 87.9322 89.9581 88.0115 89.835 88.0101Z" fill="#231F20"/>
<path d="M60.8804 12.0102L6.7306 11.3883C3.90005 11.3558 1.57682 13.5902 1.54482 16.3759L1.14097 51.54C1.10898 54.3257 3.38027 56.6129 6.21083 56.6454L52.1151 57.1727L59.5547 66.7064L59.6632 57.2593L60.3196 57.2669C63.1502 57.2994 65.4734 55.0649 65.5054 52.2793L65.9092 17.1151C65.9412 14.3295 63.7109 12.0427 60.8804 12.0102Z" fill="white"/>
<path d="M59.551 67.0294C59.4689 67.0285 59.3874 66.9872 59.3473 66.9059L51.9883 57.4942L6.2071 56.9684C3.21245 56.9341 0.819477 54.5243 0.853325 51.5771L1.25764 16.3726C1.29149 13.4255 3.73918 11.0713 6.73382 11.1057L60.8836 11.7276C63.8783 11.762 66.2712 14.1718 66.2374 17.1189L65.8335 52.283C65.7997 55.2302 63.352 57.5844 60.3573 57.55L59.9471 57.5453L59.8419 66.7097C59.8405 66.8309 59.757 66.951 59.6335 66.99L59.551 67.0294ZM6.72733 11.6709C4.06087 11.6403 1.8621 13.755 1.83196 16.3792L1.4281 51.5434C1.39796 54.1675 3.54759 56.3322 6.21405 56.3629L52.1183 56.8901C52.2003 56.891 52.2819 56.9323 52.322 57.0135L59.2768 65.8957L59.376 57.2561C59.3779 57.0946 59.5024 56.9749 59.6664 56.9768L60.3228 56.9843C62.9893 57.0149 65.188 54.9002 65.2182 52.276L65.622 17.1119C65.6522 14.4877 63.5026 12.323 60.8361 12.2924L6.72733 11.6709Z" fill="#231F20"/>
<path d="M51.2413 29.6656L34.7681 17.2017C34.1579 16.7505 33.3374 16.7411 32.717 17.1781L15.9619 29.2604L15.724 49.9713L51.0034 50.3765L51.2413 29.6656Z" fill="#231F20"/>
<path d="M51.0002 50.6591L15.7208 50.2539C15.5567 50.252 15.435 50.1295 15.4369 49.968L15.6748 29.2571C15.6757 29.1764 15.7176 29.0961 15.8006 29.0163L32.5562 16.8936C33.2596 16.3768 34.2441 16.3881 34.9765 16.9214L51.4492 29.4257C51.5308 29.467 51.5709 29.5482 51.5695 29.6693L51.3316 50.3802C51.2888 50.5413 51.1643 50.661 51.0002 50.6591ZM16.0145 49.692L50.7195 50.0906L50.9523 29.8238L34.6013 17.442C34.1132 17.073 33.4158 17.065 32.8783 17.4222L16.2472 29.4252L16.0145 49.692Z" fill="#231F20"/>
<path d="M47.1343 22.8754L19.321 22.556L19.0234 48.4749L46.8367 48.7943L47.1343 22.8754Z" fill="white"/>
<path d="M46.8338 49.0365L19.0205 48.7171C18.8564 48.7152 18.7758 48.5932 18.7772 48.4721L19.0749 22.5531C19.0767 22.3917 19.2007 22.3123 19.3238 22.3137L47.1371 22.6332C47.3012 22.6351 47.3818 22.7571 47.3804 22.8782L47.0827 48.7971C47.0814 48.9183 46.9979 49.0384 46.8338 49.0365ZM19.2727 48.1951L46.5527 48.5084L46.8443 23.1143L19.5643 22.801L19.2727 48.1951Z" fill="#231F20"/>
<path d="M42.9146 36.636L23.2648 36.4104C23.1007 36.4085 22.979 36.286 22.9809 36.1245C22.9827 35.963 23.1072 35.8433 23.2713 35.8452L42.9211 36.0708C43.0852 36.0727 43.2069 36.1952 43.205 36.3567C43.2032 36.5182 43.0377 36.6375 42.9146 36.636Z" fill="#D1D3D4"/>
<path d="M33.9402 39.2786L23.2333 39.1557C23.0692 39.1538 22.9475 39.0313 22.9494 38.8698C22.9512 38.7083 23.0757 38.5886 23.2398 38.5905L33.9467 38.7134C34.1108 38.7153 34.2324 38.8378 34.2306 38.9993C34.2287 39.1608 34.1043 39.2805 33.9402 39.2786Z" fill="#D1D3D4"/>
<path d="M43.0101 28.3194L23.3603 28.0937C23.1962 28.0918 23.0745 27.9693 23.0763 27.8078C23.0782 27.6463 23.2027 27.5266 23.3667 27.5285L43.0166 27.7542C43.1806 27.7561 43.3023 27.8786 43.3005 28.0401C43.2986 28.2016 43.1331 28.3208 43.0101 28.3194Z" fill="#D1D3D4"/>
<path d="M42.9781 31.105L23.3283 30.8794C23.1642 30.8775 23.0425 30.7549 23.0444 30.5935C23.0462 30.432 23.1707 30.3123 23.3348 30.3142L42.9846 30.5398C43.1487 30.5417 43.2703 30.6642 43.2685 30.8257C43.2666 30.9872 43.1011 31.1064 42.9781 31.105Z" fill="#D1D3D4"/>
<path d="M42.9466 33.8503L23.2968 33.6247C23.1327 33.6228 23.011 33.5002 23.0129 33.3388C23.0147 33.1773 23.1392 33.0576 23.3033 33.0595L42.9531 33.2851C43.1172 33.287 43.2388 33.4095 43.237 33.571C43.1941 33.732 43.0697 33.8517 42.9466 33.8503Z" fill="#D1D3D4"/>
<path d="M51.2413 29.6656L50.9858 51.9107L15.7064 51.5055L15.9619 29.2604L33.4514 42.5436L51.2413 29.6656Z" fill="white"/>
<path d="M50.9824 52.1933L15.703 51.7881C15.58 51.7867 15.4583 51.6641 15.4597 51.543L15.7152 29.298C15.7161 29.2172 15.7585 29.0966 15.882 29.0576C15.9646 29.0182 16.0876 29.0196 16.1687 29.1013L33.496 42.2211L51.12 29.5027C51.2025 29.4633 51.326 29.4243 51.4076 29.4656C51.4892 29.507 51.5703 29.5886 51.5279 29.7093L51.2724 51.9543C51.23 52.075 51.1055 52.1947 50.9824 52.1933ZM15.9552 51.2661L50.7013 51.6651L50.948 30.1872L33.572 42.7469C33.489 42.8267 33.366 42.8253 33.2438 42.7431L16.1609 29.7876L15.9552 51.2661Z" fill="#231F20"/>
<path d="M15.7032 51.7881C15.6211 51.7871 15.5395 51.7458 15.499 51.705C15.4183 51.5829 15.4202 51.4214 15.5442 51.3421L30.4016 40.1667C30.5256 40.0873 30.6896 40.0892 30.7703 40.2113C30.851 40.3333 30.8491 40.4948 30.7251 40.5742L15.8677 51.7496C15.8267 51.7491 15.7442 51.7885 15.7032 51.7881Z" fill="#231F20"/>
<path d="M50.9825 52.1932C50.9414 52.1928 50.8594 52.1918 50.8188 52.151L35.9321 40.8762C35.8514 40.7541 35.8533 40.5926 35.9363 40.5128C36.0192 40.433 36.1423 40.4345 36.2239 40.4758L51.1102 51.7909C51.2323 51.8731 51.2304 52.0346 51.147 52.1547C51.147 52.1547 51.0645 52.1942 50.9825 52.1932Z" fill="#231F20"/>
<path d="M51.0299 48.0753C55.108 48.1221 58.4513 44.9065 58.4974 40.8931C58.5435 36.8796 55.2749 33.5881 51.1968 33.5413C47.1187 33.4945 43.7754 36.71 43.7293 40.7235C43.6832 44.7369 46.9518 48.0284 51.0299 48.0753Z" fill="#007EC6"/>
<path d="M51.1414 38.3456L48.8722 39.4501L48.8926 37.6737L51.3268 36.4904L52.9677 36.5092L52.8889 43.3725L51.0839 43.3518L51.1414 38.3456Z" fill="white"/>
<path d="M11.9609 27.5186C11.9199 27.5182 11.9199 27.5182 11.8789 27.5177L5.29189 25.9077C5.12827 25.8654 5.04761 25.7434 5.04946 25.5819C5.09234 25.4209 5.21634 25.3415 5.38043 25.3434L5.42145 25.3439L12.0085 26.9539C12.1721 26.9962 12.2523 27.1586 12.2099 27.2792C12.208 27.4407 12.1246 27.5609 11.9609 27.5186Z" fill="#D1D3D4"/>
<path d="M13.8087 23.8251C13.7267 23.8241 13.6856 23.8237 13.6451 23.7828L7.26063 18.8238C7.13849 18.7417 7.09979 18.5393 7.18323 18.4192C7.26666 18.299 7.47224 18.261 7.59392 18.3835L13.9784 23.3425C14.1005 23.4247 14.1392 23.627 14.0558 23.7472C13.9733 23.7866 13.8907 23.826 13.8087 23.8251Z" fill="#D1D3D4"/>
<path d="M17.7518 19.8731C17.6287 19.8716 17.5066 19.7895 17.4669 19.6679L15.8369 15.1269C15.7978 14.9649 15.8817 14.8044 16.0052 14.7654C16.1698 14.727 16.3329 14.8096 16.3726 14.9312L18.0025 19.4722C18.0417 19.6341 17.9578 19.7947 17.8343 19.8336C17.7928 19.8735 17.7928 19.8735 17.7518 19.8731Z" fill="#D1D3D4"/>
</svg>
