<svg width="98" height="127" viewBox="0 0 98 127" fill="none" xmlns="http://www.w3.org/2000/svg">
<path d="M82.3357 122.972L90.2629 86.4806L92.9825 64.0216C92.9825 64.0216 68.2766 39.6325 61.2705 31.6381C54.2645 23.6436 46.3134 12.2062 42.6116 13.0117C38.9098 13.8171 38.1651 17.927 40.5271 23.0417C41.4875 25.1524 42.9789 27.471 43.6107 29.6183C44.1646 31.4012 43.9029 36.3243 42.1656 37.556C40.0563 39.0258 38.1702 31.7765 35.5299 33.0383C34.1273 33.7086 32.7336 37.1651 33.8802 40.9333C34.3147 42.3919 35.6817 44.8303 36.4873 46.1316C38.6221 49.5882 38.5975 51.7279 39.9492 55.4985C41.3404 59.3907 41.0315 54.1381 39.678 57.6758C38.0285 61.9772 35.6737 66.957 35.5379 71.6392C35.288 79.1062 44.2974 91.2825 47.9633 97.1793C51.6286 103.117 44.2482 117.002 44.2482 117.002L82.3357 122.972Z" fill="white"/>
<path d="M82.3323 123.254L44.2038 117.285C44.1217 117.284 44.0406 117.202 44.0005 117.121C43.9604 117.039 43.9614 116.959 44.0033 116.878C44.0872 116.718 51.3007 103.072 47.7151 97.338C47.1109 96.362 46.3449 95.1823 45.5384 93.9617C41.3448 87.5742 35.0552 77.9326 35.2506 71.6359C35.3785 67.64 37.0686 63.3794 38.5885 59.6418C38.8836 58.9587 39.1376 58.2752 39.3916 57.5917C39.5193 57.1894 39.7291 56.7881 39.9794 56.4275C39.8996 56.2247 39.7798 55.9407 39.6605 55.6163C39.224 54.3192 38.9079 53.2658 38.6328 52.2128C38.0812 50.228 37.6084 48.5267 36.2392 46.2902C35.2722 44.7448 34.027 42.429 33.5915 41.0511C32.4058 37.1209 33.8828 33.5443 35.409 32.835C36.9352 32.1257 38.2695 33.8369 39.4005 35.3843C39.8443 36.0354 40.3301 36.6063 40.8569 37.1776C41.4257 37.6686 41.7552 37.5513 42.0032 37.3926C43.575 36.2801 43.8759 31.519 43.3215 29.7764C42.8054 28.2765 42.1653 26.856 41.3606 25.4739C40.9592 24.7021 40.5577 23.9303 40.2379 23.1999C38.7166 19.9118 38.4624 17.0421 39.4696 15.0752C40.0989 13.8711 41.2162 13.036 42.5317 12.8088C45.4522 12.156 50.3888 18.1481 56.0527 25.1177C57.8331 27.2782 59.6536 29.5199 61.4359 31.5188C68.4023 39.3917 92.9045 63.6573 93.1478 63.9023C93.2294 63.9437 93.228 64.0648 93.2271 64.1455L90.5075 86.6045L82.5798 123.136C82.5793 123.176 82.4553 123.256 82.3323 123.254ZM44.7021 116.765L82.1341 122.646L90.0175 86.397L92.7353 64.0995C91.0313 62.4245 67.8275 39.4255 61.1044 31.7977C59.3222 29.7987 57.5017 27.557 55.7217 25.3562C50.6238 19.1199 45.3641 12.6799 42.7728 13.2558C41.6213 13.4848 40.6285 14.2002 40.0831 15.2437C39.1602 17.0097 39.4559 19.8396 40.8569 22.884C41.1768 23.6144 41.5787 24.3458 41.9801 25.1176C42.7843 26.5401 43.465 28.0015 43.9807 29.5417C44.535 31.2843 44.3526 36.4506 42.4498 37.8015C41.8709 38.1987 41.2565 38.1109 40.6061 37.5785C40.0383 37.0067 39.512 36.395 39.0276 35.703C37.9772 34.2777 36.9278 32.7717 35.7727 33.3237C34.6175 33.8757 33.1437 37.1698 34.2497 40.8972C34.6843 42.3558 36.0922 44.7946 36.8167 46.0142C38.2671 48.3324 38.7394 50.0741 39.2906 52.0993C39.5661 53.1119 39.8818 54.2057 40.3187 55.4624C40.4385 55.7464 40.5178 55.9896 40.598 56.152C40.639 56.1525 40.68 56.153 40.762 56.1539C41.0893 56.2384 41.2907 56.5637 41.246 56.8863C41.2847 57.0886 41.1183 57.2886 40.9127 57.3266C40.7481 57.3651 40.585 57.2824 40.3831 56.9975C40.2573 57.2383 40.1309 57.5195 40.0046 57.8007C39.7506 58.4842 39.4556 59.1672 39.2015 59.8507C37.7231 63.5484 36.0335 67.7687 35.907 71.6435C35.7134 77.7786 41.9629 87.3391 46.1164 93.6453C46.9229 94.8659 47.6889 96.0456 48.2931 97.0216C51.676 102.552 45.8357 114.517 44.7021 116.765Z" fill="#231F20"/>
<path d="M63.4484 99.2146L25.1862 87.0253C23.6329 86.5229 22.79 84.8982 23.2999 83.3697L49.7847 2.87858C50.2946 1.35009 51.9453 0.521117 53.4986 1.02349L91.7607 13.2128C93.314 13.7151 94.157 15.3399 93.6471 16.8684L67.1622 97.3595C66.6523 98.888 64.9607 99.7165 63.4484 99.2146Z" fill="white"/>
<path d="M64.3054 99.6282C63.9772 99.6244 63.6495 99.5803 63.3637 99.4559L25.1015 87.2666C23.4256 86.7224 22.4615 84.9348 23.0138 83.2856L49.4987 2.79452C50.051 1.14539 51.8671 0.197188 53.543 0.741343L91.8052 12.9306C93.4811 13.4748 94.4452 15.2625 93.8929 16.9116L67.4076 97.4431C66.9821 98.7706 65.7002 99.6442 64.3054 99.6282ZM25.2717 86.7437L63.5338 98.9329C64.9235 99.393 66.4091 98.6429 66.8761 97.2755L93.32 16.7839C93.5325 16.1403 93.4998 15.4131 93.1376 14.8033C92.8163 14.1939 92.2476 13.7029 91.5936 13.4935L53.3314 1.3042C51.9417 0.844085 50.4561 1.59419 49.9891 2.96166L23.5448 83.4936C23.1188 84.8616 23.8815 86.3239 25.2717 86.7437Z" fill="#231F20"/>
<path d="M50.3154 8.63305L28.5601 74.8159L67.79 87.3185L89.5453 21.1357L50.3154 8.63305Z" fill="#007EC6"/>
<path d="M49.0086 91.9019C48.8035 91.8995 48.5989 91.8568 48.3942 91.8141L40.9546 89.4271C39.8507 89.0914 39.2488 87.9136 39.5895 86.8273L40.5244 84.0116C40.8651 82.9253 42.0617 82.3334 43.1656 82.6691L50.6463 85.0565C51.7502 85.3922 52.3521 86.5701 52.0114 87.6564L51.0765 90.4721C50.7381 91.3565 49.9111 91.9123 49.0086 91.9019ZM42.5032 83.1864C42.2571 83.1836 42.0105 83.2211 41.804 83.3399C41.4325 83.5375 41.1831 83.8173 41.0554 84.2196L40.1204 87.0353C39.9932 87.3972 40.0291 87.8418 40.2305 88.1671C40.4315 88.5328 40.7158 88.7783 41.1247 88.9042L48.6054 91.2916C48.9732 91.417 49.4249 91.3818 49.7554 91.1837C50.1269 90.9861 50.3763 90.7063 50.504 90.304L51.439 87.4883C51.6944 86.6837 51.2524 85.8711 50.4757 85.6199L42.954 83.232C42.7904 83.1897 42.6263 83.1878 42.5032 83.1864Z" fill="#D1D3D4"/>
<path d="M79.2405 13.7957C79.1995 13.7953 79.1995 13.7953 79.1585 13.7948L67.9988 10.2345C67.8351 10.1923 67.7549 10.0298 67.7978 9.86882C67.8407 9.70781 68.0057 9.62895 68.1693 9.6712L79.3291 13.2315C79.4927 13.2737 79.5729 13.4361 79.53 13.5972C79.4466 13.7173 79.3226 13.7967 79.2405 13.7957Z" fill="#D1D3D4"/>
<path d="M66.5288 9.61197C66.4878 9.6115 66.4878 9.6115 66.4468 9.61103L64.9341 9.14951C64.7704 9.10725 64.6902 8.94482 64.7331 8.7838C64.776 8.62278 64.941 8.54392 65.1046 8.58618L66.6174 9.04771C66.781 9.08996 66.8612 9.25239 66.8183 9.41341C66.7759 9.53406 66.6519 9.61339 66.5288 9.61197Z" fill="#D1D3D4"/>
<path d="M46.1921 40.6305C45.8468 42.1205 44.48 43.2354 42.7128 43.4977C40.6999 43.7169 38.6959 43.169 37.0679 42.0197C36.1318 41.3629 35.3207 40.5461 34.7164 39.5701C33.6689 37.9025 33.362 36.0417 34.0351 34.5958C35.1285 32.2665 38.8676 31.7845 42.0516 33.1939C45.0314 34.5202 46.7094 38.4561 46.1921 40.6305Z" fill="white"/>
<path d="M41.724 43.8499C40.0015 43.7897 38.3256 43.2456 36.9014 42.2198C35.9248 41.5221 35.1141 40.6649 34.4688 39.6884C33.3406 37.8989 33.0762 35.9173 33.7492 34.4715C34.8847 32.0619 38.6671 31.3785 42.1368 32.9123C45.1982 34.2799 46.9983 38.298 46.4377 40.6738C46.0499 42.2845 44.6413 43.4796 42.71 43.7401C42.3809 43.817 42.0522 43.8536 41.724 43.8499ZM38.5292 32.669C36.6011 32.6469 34.9108 33.3542 34.2797 34.7198C33.6486 36.0854 33.9163 37.7843 34.9644 39.4115C35.569 40.3471 36.3392 41.1635 37.2347 41.7794C38.7806 42.9278 40.7441 43.4348 42.675 43.2148C44.3601 42.9515 45.6024 41.9563 45.9058 40.5466C46.3798 38.5735 44.906 34.7207 41.9257 33.4348C40.8642 32.9785 39.7188 32.6827 38.5292 32.669Z" fill="#231F20"/>
<path d="M42.0486 51.3234C42.4053 52.4177 42.2277 53.5866 41.5602 54.548C41.103 55.0677 40.524 55.4648 39.9054 55.7403C38.2142 56.5285 36.1184 56.8274 34.4047 56.0002C33.3856 55.4232 32.4919 54.6457 31.8467 53.6693C30.6341 52.0806 29.5474 50.2512 29.6111 48.2734C29.7261 45.4079 32.9224 42.1741 35.9017 43.5407C38.3911 44.6999 41.3799 48.8123 42.0486 51.3234Z" fill="white"/>
<path d="M36.6112 56.7926C35.7907 56.7832 35.0131 56.6128 34.2785 56.2813C33.2184 55.7038 32.3251 54.886 31.5983 53.8683C29.9811 51.7904 29.2631 50.0056 29.324 48.27C29.4689 46.374 30.5554 44.6502 32.2084 43.6194C33.3658 42.8655 34.803 42.7609 36.0687 43.3003C38.6401 44.4604 41.669 48.6541 42.3778 51.2464C42.7335 52.4214 42.5546 53.7114 41.8456 54.7127C41.3879 55.2728 40.7674 55.7098 40.0668 55.9844C38.9532 56.4965 37.8013 56.7659 36.6112 56.7926ZM34.466 43.5242C33.7686 43.5162 33.0689 43.71 32.49 44.1071C31.0025 45.0187 30.0409 46.5824 29.8983 48.2766C29.8392 49.8507 30.5176 51.5139 32.0537 53.5101C32.6999 54.4058 33.5526 55.1828 34.5306 55.7593C35.9995 56.4626 37.888 56.3631 39.7852 55.4966C40.4033 55.2615 40.9002 54.8634 41.3571 54.3841C41.9416 53.5025 42.1182 52.4143 41.8016 51.4013C41.132 48.9709 38.1833 44.9397 35.8165 43.8223C35.3676 43.6153 34.9172 43.5294 34.466 43.5242Z" fill="#231F20"/>
<path d="M37.7314 59.2686C38.2168 59.8798 38.5371 60.5699 38.6923 61.3389C39.0015 62.9979 38.1192 64.8047 36.7133 65.7576C35.2258 66.6692 33.4166 67.0119 31.7393 66.5888C29.6924 66.2019 27.9013 64.97 26.8547 63.2218C25.8085 61.4332 25.8335 59.2531 26.8389 57.4476C29.6813 52.8772 35.3477 56.0514 37.7314 59.2686Z" fill="white"/>
<path d="M33.1703 67.009C32.6781 67.0034 32.1863 66.9573 31.6954 66.8306C29.5669 66.4024 27.7352 65.1296 26.6485 63.3001C25.5622 61.4303 25.5476 59.1286 26.636 57.2434C27.5561 55.7196 28.9196 54.8873 30.5204 54.825C33.2707 54.6951 36.3639 56.8706 37.9802 59.0291C38.4651 59.6808 38.8259 60.4117 39.0222 61.1811C39.2885 63.0012 38.4878 64.8493 36.9169 65.8811C35.7589 66.6754 34.4826 67.0645 33.1703 67.009ZM30.7596 55.4334L30.5134 55.4306C29.0767 55.4948 27.9197 56.2083 27.0835 57.5715C26.0795 59.2559 26.0964 61.3557 27.1025 63.0631C28.1091 64.7301 29.8186 65.9207 31.7835 66.3067C33.4202 66.6889 35.1468 66.3857 36.5518 65.5135C37.9162 64.6005 38.6732 62.9941 38.4046 61.3759C38.2484 60.6877 37.9281 59.9976 37.4833 59.4272C36.0292 57.432 33.2619 55.4621 30.7596 55.4334Z" fill="#231F20"/>
<path d="M87.0941 126.62L88.5891 103.622L43.9506 103.634L34.8314 126.02L87.0941 126.62Z" fill="#231F20"/>
<path d="M87.0909 126.902L34.8282 126.302C34.6641 126.3 34.5424 126.178 34.5443 126.016C34.5447 125.976 34.5452 125.935 34.5452 125.935L43.6643 103.55C43.7067 103.429 43.8303 103.39 43.9128 103.351L88.5518 103.298C88.6339 103.299 88.7154 103.341 88.756 103.381C88.7966 103.422 88.8366 103.504 88.8357 103.584L87.3408 126.582C87.3795 126.785 87.255 126.904 87.0909 126.902ZM35.2449 125.742L86.8102 126.334L88.2577 103.901L44.1114 103.919L35.2449 125.742Z" fill="#231F20"/>
<path d="M89.8384 87.7274C89.8384 87.7274 97.1608 64.5945 95.9107 59.1292C94.6606 53.6638 92.369 31.7126 90.0814 30.8384C87.7939 29.9642 83.1685 36.1696 83.1722 42.9934C83.1669 47.0311 83.7773 51.0355 85.005 54.8854C85.005 54.8854 77.3368 58.1083 76.2639 76.5081" fill="white"/>
<path d="M89.835 88.0101L89.753 88.0091C89.5894 87.9669 89.5092 87.8044 89.5521 87.6434C89.6369 87.4021 96.8335 64.51 95.6226 59.2067C95.2318 57.5063 94.7762 54.3113 94.2035 50.59C93.136 43.5117 91.3848 31.6609 89.9961 31.1201C89.4651 30.9121 88.8461 31.228 88.3916 31.5054C85.9937 33.093 83.4352 37.9493 83.4593 42.9967C83.4544 46.9941 84.0654 50.9581 85.2935 54.7676C85.3331 54.8892 85.2902 55.0502 85.1252 55.1291C85.1252 55.1291 83.2284 55.9553 81.2656 58.961C79.4282 61.7663 77.1107 67.0695 76.5924 76.4715C76.5906 76.633 76.4661 76.7527 76.302 76.7508C76.138 76.749 76.0163 76.6264 76.0181 76.4649C76.99 59.7195 83.316 55.4717 84.6786 54.7202C83.4915 50.9111 82.9216 46.9476 82.926 42.9906C82.9038 37.7817 85.6287 32.7254 88.11 31.0177C88.8954 30.5018 89.6362 30.3084 90.2077 30.5572C91.8006 31.1812 93.1446 39.1914 94.7792 50.4754C95.3519 54.1967 95.8075 57.3918 96.1987 59.0518C97.4489 64.5171 90.4228 86.8459 90.125 87.7711C90.0821 87.9322 89.9581 88.0115 89.835 88.0101Z" fill="#231F20"/>
<path d="M60.8806 12.0103L6.73085 11.3884C3.90029 11.3559 1.57706 13.5903 1.54507 16.376L1.14121 51.5401C1.10922 54.3258 3.38052 56.613 6.21108 56.6455L52.1153 57.1727L59.555 66.7065L59.6635 57.2594L60.3198 57.2669C63.1504 57.2995 65.4736 55.065 65.5056 52.2793L65.9095 17.1152C65.9415 14.3295 63.7112 12.0428 60.8806 12.0103Z" fill="white"/>
<path d="M59.5512 67.0295C59.4692 67.0285 59.3876 66.9872 59.3475 66.906L51.9885 57.4943L6.20734 56.9685C3.21269 56.9341 0.819721 54.5244 0.853569 51.5772L1.25789 16.3727C1.29174 13.4255 3.73942 11.0714 6.73407 11.1058L60.8839 11.7277C63.8785 11.7621 66.2715 14.1718 66.2376 17.119L65.8338 52.2831C65.7999 55.2303 63.3522 57.5844 60.3576 57.55L59.9474 57.5453L59.8421 66.7098C59.8407 66.8309 59.7573 66.9511 59.6338 66.99L59.5512 67.0295ZM6.72758 11.671C4.06111 11.6404 1.86234 13.7551 1.8322 16.3793L1.42835 51.5434C1.39821 54.1676 3.54783 56.3323 6.2143 56.3629L52.1185 56.8901C52.2006 56.8911 52.2822 56.9324 52.3223 57.0136L59.2771 65.8958L59.3763 57.2561C59.3781 57.0946 59.5026 56.9749 59.6667 56.9768L60.3231 56.9844C62.9895 57.015 65.1883 54.9002 65.2184 52.276L65.6223 17.1119C65.6524 14.4877 63.5028 12.323 60.8363 12.2924L6.72758 11.671Z" fill="#231F20"/>
<path d="M51.2416 29.6657L34.7684 17.2017C34.1581 16.7506 33.3377 16.7412 32.7172 17.1782L15.9622 29.2605L15.7243 49.9714L51.0037 50.3766L51.2416 29.6657Z" fill="#231F20"/>
<path d="M51.0005 50.6591L15.7211 50.254C15.557 50.2521 15.4353 50.1295 15.4371 49.9681L15.675 29.2572C15.6759 29.1764 15.7179 29.0961 15.8009 29.0163L32.5564 16.8937C33.2598 16.3768 34.2444 16.3881 34.9767 16.9215L51.4495 29.4258C51.531 29.4671 51.5711 29.5483 51.5697 29.6694L51.3319 50.3803C51.289 50.5413 51.1645 50.661 51.0005 50.6591ZM16.0147 49.6921L50.7198 50.0906L50.9526 29.8238L34.6015 17.442C34.1134 17.073 33.416 17.065 32.8786 17.4223L16.2475 29.4252L16.0147 49.6921Z" fill="#231F20"/>
<path d="M47.1346 22.8755L19.3213 22.556L19.0236 48.4749L46.8369 48.7944L47.1346 22.8755Z" fill="white"/>
<path d="M46.8341 49.0366L19.0208 48.7172C18.8567 48.7153 18.776 48.5932 18.7774 48.4721L19.0751 22.5532C19.077 22.3917 19.2009 22.3124 19.324 22.3138L47.1373 22.6332C47.3014 22.6351 47.3821 22.7572 47.3807 22.8783L47.083 48.7972C47.0816 48.9183 46.9982 49.0385 46.8341 49.0366ZM19.2729 48.1952L46.5529 48.5085L46.8446 23.1144L19.5646 22.8011L19.2729 48.1952Z" fill="#231F20"/>
<path d="M42.9148 36.6361L23.265 36.4104C23.101 36.4085 22.9793 36.286 22.9811 36.1245C22.983 35.963 23.1074 35.8433 23.2715 35.8452L42.9213 36.0709C43.0854 36.0728 43.2071 36.1953 43.2053 36.3568C43.2034 36.5183 43.0379 36.6375 42.9148 36.6361Z" fill="#D1D3D4"/>
<path d="M33.9404 39.2787L23.2335 39.1557C23.0695 39.1538 22.9478 39.0313 22.9496 38.8698C22.9515 38.7083 23.0759 38.5886 23.24 38.5905L33.9469 38.7135C34.111 38.7154 34.2327 38.8379 34.2308 38.9994C34.229 39.1609 34.1045 39.2806 33.9404 39.2787Z" fill="#D1D3D4"/>
<path d="M43.0103 28.3194L23.3605 28.0938C23.1964 28.0919 23.0747 27.9694 23.0766 27.8079C23.0784 27.6464 23.2029 27.5267 23.367 27.5286L43.0168 27.7542C43.1809 27.7561 43.3026 27.8787 43.3007 28.0401C43.2989 28.2016 43.1334 28.3209 43.0103 28.3194Z" fill="#D1D3D4"/>
<path d="M42.9783 31.1051L23.3285 30.8794C23.1644 30.8775 23.0428 30.755 23.0446 30.5935C23.0465 30.432 23.1709 30.3123 23.335 30.3142L42.9848 30.5399C43.1489 30.5418 43.2706 30.6643 43.2687 30.8258C43.2669 30.9873 43.1014 31.1065 42.9783 31.1051Z" fill="#D1D3D4"/>
<path d="M42.9468 33.8504L23.297 33.6247C23.1329 33.6228 23.0113 33.5003 23.0131 33.3388C23.015 33.1773 23.1394 33.0576 23.3035 33.0595L42.9533 33.2852C43.1174 33.2871 43.2391 33.4096 43.2372 33.5711C43.1944 33.7321 43.0699 33.8518 42.9468 33.8504Z" fill="#D1D3D4"/>
<path d="M51.2416 29.6657L50.9861 51.9107L15.7067 51.5055L15.9622 29.2605L33.4516 42.5437L51.2416 29.6657Z" fill="white"/>
<path d="M50.9827 52.1933L15.7033 51.7881C15.5802 51.7867 15.4585 51.6642 15.4599 51.5431L15.7154 29.298C15.7163 29.2173 15.7588 29.0967 15.8823 29.0577C15.9648 29.0183 16.0879 29.0197 16.169 29.1014L33.4962 42.2212L51.1202 29.5028C51.2027 29.4633 51.3262 29.4244 51.4078 29.4657C51.4894 29.507 51.5705 29.5887 51.5281 29.7093L51.2726 51.9544C51.2302 52.075 51.1058 52.1947 50.9827 52.1933ZM15.9555 51.2661L50.7016 51.6652L50.9482 30.1872L33.5722 42.7469C33.4893 42.8267 33.3662 42.8253 33.2441 42.7432L16.1611 29.7877L15.9555 51.2661Z" fill="#231F20"/>
<path d="M15.7034 51.7881C15.6214 51.7872 15.5398 51.7459 15.4992 51.705C15.4186 51.583 15.4204 51.4215 15.5444 51.3422L30.4018 40.1667C30.5258 40.0874 30.6899 40.0893 30.7705 40.2113C30.8512 40.3334 30.8493 40.4949 30.7253 40.5742L15.868 51.7496C15.8269 51.7492 15.7444 51.7886 15.7034 51.7881Z" fill="#231F20"/>
<path d="M50.9827 52.1933C50.9417 52.1928 50.8596 52.1919 50.8191 52.151L35.9323 40.8763C35.8517 40.7542 35.8535 40.5927 35.9365 40.5129C36.0195 40.4331 36.1425 40.4345 36.2241 40.4758L51.1104 51.791C51.2325 51.8731 51.2307 52.0346 51.1473 52.1548C51.1473 52.1548 51.0647 52.1942 50.9827 52.1933Z" fill="#231F20"/>
<path d="M51.0301 48.0753C55.1082 48.1222 58.4516 44.9066 58.4977 40.8931C58.5437 36.8797 55.2752 33.5882 51.197 33.5413C47.1189 33.4945 43.7756 36.7101 43.7295 40.7235C43.6834 44.737 46.952 48.0285 51.0301 48.0753Z" fill="#007EC6"/>
<path d="M51.1417 38.3457L48.8724 39.4502L48.8928 37.6738L51.3271 36.4904L52.968 36.5093L52.8892 43.3726L51.0842 43.3518L51.1417 38.3457Z" fill="white"/>
<path d="M11.9612 27.5186C11.9202 27.5181 11.9202 27.5181 11.8791 27.5176L5.29214 25.9076C5.12851 25.8654 5.04785 25.7433 5.04971 25.5818C5.09259 25.4208 5.21658 25.3415 5.38067 25.3434L5.42169 25.3438L12.0087 26.9538C12.1723 26.9961 12.2525 27.1585 12.2101 27.2792C12.2083 27.4407 12.1248 27.5608 11.9612 27.5186Z" fill="#D1D3D4"/>
<path d="M13.8089 23.825C13.7269 23.8241 13.6859 23.8236 13.6453 23.7828L7.26088 18.8238C7.13874 18.7416 7.10004 18.5393 7.18347 18.4191C7.26691 18.2989 7.47248 18.2609 7.59416 18.3834L13.9786 23.3424C14.1007 23.4246 14.1394 23.6269 14.056 23.7471C13.9735 23.7865 13.891 23.826 13.8089 23.825Z" fill="#D1D3D4"/>
<path d="M17.752 19.873C17.629 19.8716 17.5068 19.7894 17.4672 19.6678L15.8372 15.1268C15.798 14.9649 15.8819 14.8043 16.0054 14.7654C16.17 14.7269 16.3332 14.8095 16.3728 14.9311L18.0028 19.4721C18.042 19.6341 17.9581 19.7946 17.8345 19.8336C17.793 19.8735 17.793 19.8735 17.752 19.873Z" fill="#D1D3D4"/>
</svg>
