<svg width="137" height="105" viewBox="0 0 137 105" fill="none" xmlns="http://www.w3.org/2000/svg">
<path d="M115.984 21.2671C115.984 31.0159 109.779 35.5231 102.107 35.5231C94.4348 35.5231 88.2303 31.0159 88.2303 21.2671C88.2303 11.5183 94.4348 0.233704 102.107 0.233704C109.779 0.233704 115.984 11.5183 115.984 21.2671Z" fill="#007EC6"/>
<path d="M102.107 35.7568C98.0708 35.7568 94.6016 34.5215 92.1331 32.2178C89.4312 29.6804 87.9968 25.9078 87.9968 21.2671C88.0635 16.2258 89.4645 11.2846 92.0998 6.97774C94.9018 2.50398 98.4377 0 102.107 0C105.776 0 109.312 2.47059 112.114 6.97774C114.749 11.2846 116.15 16.2258 116.217 21.2671C116.217 25.9078 114.783 29.6804 112.081 32.2178C109.579 34.5215 106.143 35.7568 102.107 35.7568ZM102.107 0.434023C94.5349 0.434023 88.4305 11.8188 88.4305 21.2671C88.4305 28.0445 92.0331 35.3227 102.107 35.3227C112.181 35.3227 115.784 28.0779 115.784 21.2671C115.784 11.8521 109.679 0.434023 102.107 0.434023Z" fill="#231F20"/>
<path d="M102.574 9.04767L104.042 47.275H100.172L102.574 9.04767Z" fill="white"/>
<path d="M104.042 47.5087H100.172C100.106 47.5087 100.072 47.4753 100.005 47.442C99.9721 47.4086 99.9387 47.3418 99.9387 47.275L102.374 9.04767C102.374 8.94751 102.474 8.84735 102.574 8.84735C102.674 8.84735 102.774 8.94751 102.774 9.04767L104.242 47.275C104.242 47.3418 104.208 47.3752 104.175 47.442C104.175 47.4753 104.108 47.5087 104.042 47.5087ZM100.406 47.0747H103.842L102.541 13.2877L100.406 47.0747Z" fill="#231F20"/>
<path d="M90.165 20.9332C90.1983 21.868 90.1316 22.8028 89.9315 23.7042C89.5979 25.3402 88.9975 26.9761 87.93 28.2782C86.8626 29.5802 85.6617 29.8807 84.1273 30.3481C82.7596 30.7821 81.4253 31.4499 79.991 31.8171C76.7553 32.585 73.3862 32.6518 70.1505 31.9507C67.2818 31.3163 64.5465 29.7472 63.0454 27.2098C61.5443 24.6724 61.5777 21.2003 63.5124 18.9968C64.3464 18.0286 65.5806 16.4594 66.9149 16.426C66.7814 15.558 66.4479 14.6899 66.6147 13.7885C66.7481 12.9538 67.2818 12.0858 68.1157 11.8855C68.4493 11.7853 68.883 11.7519 68.9497 11.4181C68.9497 11.2845 68.9497 11.151 68.883 11.0174C68.516 9.6152 69.3833 8.17959 70.3173 7.07785C70.8844 6.34335 71.5516 5.709 72.3188 5.17482C74.4203 3.93953 78.3565 3.80598 80.3245 5.27498C81.6588 6.27657 82.4928 7.77896 82.5928 9.44827C82.5261 8.647 85.9619 10.5834 86.2622 11.2511C86.996 12.8871 86.9627 15.1573 86.3289 16.7933C87.83 16.6597 89.231 17.8282 89.798 19.2305C89.9982 19.7647 90.1316 20.3322 90.165 20.9332Z" fill="#007EC6"/>
<path d="M74.8207 32.6518C73.2195 32.6518 71.6517 32.4849 70.1173 32.151C66.915 31.4499 64.3131 29.6804 62.8788 27.31C61.2776 24.5723 61.4777 21 63.3791 18.8632L63.6126 18.5962C64.4132 17.6613 65.4806 16.426 66.6815 16.2591C66.6481 16.0922 66.6148 15.8919 66.5814 15.7249C66.4146 15.0906 66.3479 14.4563 66.4146 13.8219C66.5481 12.9539 67.1151 11.9857 68.0825 11.752L68.2159 11.7186C68.5162 11.6518 68.7163 11.585 68.7497 11.4515C68.7497 11.3847 68.7497 11.2846 68.7163 11.2178V11.1176C68.2827 9.54846 69.3501 7.9793 70.184 6.97771C70.7511 6.20983 71.4516 5.57549 72.2522 5.04131C74.3203 3.80601 78.3899 3.57231 80.5248 5.14147C81.7924 6.07628 82.6263 7.5119 82.8598 9.08105C83.6938 9.04767 86.2623 10.5501 86.5291 11.1844C87.1963 12.6868 87.263 14.8569 86.6959 16.593C88.2304 16.6264 89.5313 17.895 90.0317 19.1637C90.2652 19.7313 90.3652 20.2989 90.432 20.8998C90.4987 21.868 90.3986 22.8028 90.1985 23.7377C89.7982 25.7074 89.131 27.2432 88.1637 28.4117C87.0962 29.7138 85.9621 30.0477 84.4943 30.4817L84.2608 30.5485C83.6938 30.7154 83.0933 30.9491 82.5263 31.1828C81.7257 31.5167 80.9251 31.7838 80.0912 32.0175C78.3232 32.4515 76.5886 32.6518 74.8207 32.6518ZM76.4219 4.44035C74.9208 4.44035 73.4197 4.77422 72.4523 5.37517C71.6851 5.87597 71.0513 6.51031 70.4842 7.21142C69.717 8.14624 68.7163 9.58185 69.0832 10.9841C69.1499 11.151 69.1499 11.3179 69.1499 11.4849C69.0499 11.9189 68.6162 12.019 68.2827 12.0858L68.1492 12.1192C67.3486 12.3195 66.915 13.1208 66.8149 13.8553C66.7482 14.4563 66.8149 15.0572 66.9817 15.6248C67.0484 15.8919 67.1151 16.159 67.1485 16.426C67.1485 16.4928 67.1485 16.5596 67.1151 16.593C67.0818 16.6264 67.0151 16.6598 66.9484 16.6598C65.8476 16.6598 64.7468 17.9618 63.9462 18.8632L63.7127 19.1303C61.9447 21.1669 61.7446 24.5055 63.279 27.0763C64.6133 29.3466 67.1485 31.0493 70.2507 31.717C73.453 32.4181 76.7888 32.3513 79.9911 31.5834C80.7917 31.3497 81.5923 31.0826 82.3595 30.7822C82.9265 30.5485 83.527 30.3148 84.1274 30.1478L84.3609 30.0811C85.7286 29.647 86.8294 29.3132 87.8301 28.1446C88.7641 27.0429 89.3979 25.5739 89.7982 23.6709C89.9983 22.7695 90.065 21.868 90.0317 20.9666C89.9983 20.399 89.8649 19.8648 89.6647 19.3307C89.1644 18.0954 87.8968 16.8935 86.4291 17.027C86.3624 17.027 86.2956 16.9936 86.2289 16.9602C86.1956 16.8935 86.1622 16.8267 86.1956 16.7599C86.8294 15.0906 86.796 12.8537 86.1289 11.3847C85.8953 10.8505 83.3602 9.41492 82.8932 9.51507C82.8932 9.61523 82.7931 9.71539 82.693 9.71539C82.5596 9.71539 82.4595 9.64862 82.4595 9.51507C82.3261 7.91253 81.5255 6.47692 80.2579 5.50872C79.2572 4.77422 77.8229 4.47374 76.4219 4.44035Z" fill="#231F20"/>
<path d="M84.0606 16.3593L77.656 20.6327L77.3224 9.91571L76.6887 12.2528L76.5552 24.0715L69.5168 17.7949L69.4167 18.496L76.4885 25.3402L75.6212 41.6327H78.2898L77.7227 22.5691L83.4602 17.7949L84.0606 16.3593Z" fill="white"/>
<path d="M78.2898 41.8331H75.6212C75.4877 41.8331 75.421 41.7329 75.421 41.5994L76.2883 25.407L69.2833 18.6296C69.2499 18.5962 69.2166 18.5294 69.2166 18.4627L69.2833 17.7949C69.2833 17.7282 69.35 17.6614 69.4167 17.628C69.4834 17.5946 69.5835 17.628 69.6168 17.6614L76.3217 23.6042L76.4551 12.2528V12.2194L77.0889 9.88239C77.1222 9.78223 77.2223 9.71545 77.3558 9.71545C77.4558 9.74884 77.5225 9.81561 77.5225 9.91577L77.8561 20.2321L83.9605 16.1924C84.0272 16.1256 84.1273 16.1256 84.2274 16.1924C84.2941 16.2592 84.3274 16.3593 84.2941 16.4261L83.6937 17.8617C83.6937 17.8951 83.6603 17.9285 83.6269 17.9285L77.9562 22.6026L78.5566 41.566C78.5566 41.6328 78.5233 41.6662 78.4899 41.7329C78.4232 41.7997 78.3565 41.8331 78.2898 41.8331ZM75.8547 41.3991H78.0896L77.4892 22.5692C77.4892 22.5024 77.5225 22.4356 77.5559 22.4023L83.26 17.6948L83.5602 16.9603L77.756 20.7997C77.656 20.8665 77.5225 20.8331 77.4558 20.7329C77.4225 20.6996 77.4225 20.6662 77.4225 20.6328L77.1556 11.4182L76.9221 12.3196L76.7887 24.105C76.7887 24.2051 76.6886 24.3053 76.5885 24.3053C76.5218 24.3053 76.4885 24.2719 76.4551 24.2385L69.7169 18.2624L69.6836 18.4293L76.6886 25.2067C76.722 25.2401 76.7553 25.3069 76.7553 25.3736L75.8547 41.3991Z" fill="#231F20"/>
<path d="M54.406 51.6486C54.406 51.6486 55.3067 44.6709 74.1869 41.0318C93.0672 37.3927 112.982 45.4388 119.953 52.0159C126.925 58.593 128.359 64.8362 128.359 64.8362C128.359 64.8362 101.473 86.2703 88.9976 82.0636C76.5219 77.8569 54.406 51.6486 54.406 51.6486Z" fill="#231F20"/>
<path d="M92.6668 82.8315C91.3992 82.8649 90.1316 82.6645 88.8974 82.2639C76.5552 78.0906 54.4392 52.0493 54.2057 51.7822C54.1724 51.7488 54.139 51.682 54.1724 51.6153C54.2057 51.3148 55.3065 44.4706 74.0867 40.8315C92.6668 37.2257 112.681 44.938 120.02 51.8823C126.958 58.4261 128.493 64.7361 128.493 64.8028C128.526 64.8696 128.493 64.9698 128.426 65.0032C127.459 65.8044 105.91 82.8315 92.6668 82.8315ZM54.606 51.5819C55.9403 53.151 77.1223 77.8235 89.0309 81.8633C100.839 85.8696 126.224 66.2051 128.092 64.7695C127.825 63.868 126.058 58.1256 119.753 52.1828C112.481 45.3052 92.6001 37.6598 74.1868 41.2321C56.8743 44.6041 54.8062 50.814 54.606 51.5819Z" fill="#231F20"/>
<path d="M102.474 33.7201C102.474 42.3338 97.3035 46.3068 90.9323 46.3068C84.561 46.3068 79.3906 42.3338 79.3906 33.7201C79.3906 25.1065 84.561 15.1573 90.9323 15.1573C97.3035 15.1573 102.474 25.1399 102.474 33.7201Z" fill="#007EC6"/>
<path d="M90.9323 46.5406C82.2594 46.5406 79.1906 39.9301 79.1906 33.7536C79.2239 29.3466 80.4248 25.0064 82.593 21.1669C84.928 17.194 87.8968 14.9905 90.9323 14.9905C93.9679 14.9905 96.9367 17.194 99.2717 21.1669C101.473 25.0064 102.641 29.3466 102.674 33.787C102.674 39.9301 99.6053 46.5406 90.9323 46.5406ZM90.9323 15.3911C84.6612 15.3911 79.6242 25.4404 79.6242 33.7536C79.6242 41.3657 83.9607 46.1065 90.9323 46.1065C97.904 46.1065 102.241 41.3657 102.241 33.7536C102.274 25.407 97.2035 15.3911 90.9323 15.3911Z" fill="#231F20"/>
<path d="M63.1454 36.6248L57.2745 43.1685H76.8553L70.9844 36.6248H75.1207L70.1838 29.6805H73.4529L67.0816 18.3959L60.677 29.6805H63.946L59.0091 36.6248H63.1454Z" fill="#007EC6"/>
<path d="M76.8555 43.3688H57.2413C57.1413 43.3688 57.0746 43.3354 57.0412 43.2353C57.0078 43.1685 57.0078 43.0683 57.0746 43.0015L62.6452 36.7917H58.9759C58.8425 36.7917 58.7758 36.6915 58.7758 36.5914C58.7758 36.558 58.7758 36.5246 58.8091 36.4578L63.5125 29.8473H60.6438C60.5771 29.8473 60.5104 29.814 60.4436 29.7472C60.4103 29.6804 60.4103 29.6136 60.4436 29.5469L66.8483 18.2623C66.915 18.1621 67.0484 18.1287 67.1485 18.1955C67.1818 18.2289 67.1818 18.2289 67.2152 18.2623L73.6198 29.5469C73.6532 29.6136 73.6532 29.6804 73.6198 29.7472C73.5865 29.814 73.5197 29.8473 73.453 29.8473H70.5843L75.2877 36.4578C75.321 36.5246 75.3544 36.6248 75.2877 36.6915C75.2543 36.7583 75.1876 36.7917 75.0875 36.8251H71.4182L76.9889 43.0349C77.0556 43.1017 77.0556 43.2019 77.0223 43.2686C77.0223 43.3354 76.9556 43.4022 76.8555 43.3688ZM57.7417 42.9682H76.3885L70.8178 36.7583C70.7511 36.6915 70.7511 36.5914 70.7844 36.5246C70.8178 36.4578 70.8845 36.3911 70.9846 36.3911H74.7206L70.0172 29.8139C69.9505 29.7138 69.9839 29.5802 70.0506 29.5135C70.0839 29.4801 70.1173 29.4801 70.184 29.4801H73.1195L67.0818 18.7965L61.0441 29.4467H63.9795C64.0796 29.4467 64.1797 29.5469 64.1797 29.647C64.1797 29.6804 64.1797 29.7472 64.1463 29.7806L59.4429 36.3911H63.1456C63.2457 36.3911 63.3124 36.4244 63.3457 36.5246C63.3791 36.5914 63.3791 36.6915 63.3124 36.7583L57.7417 42.9682Z" fill="#231F20"/>
<path d="M67.6487 50.0127H65.8141L67.0817 22.7026L67.6487 50.0127Z" fill="white"/>
<path d="M67.6488 50.2464H65.8142C65.7475 50.2464 65.7141 50.213 65.6474 50.1796C65.614 50.1463 65.5807 50.0795 65.5807 50.0127L66.8149 22.7027C66.8149 22.6025 66.915 22.5024 67.0151 22.5024C67.1151 22.5024 67.2152 22.6025 67.2152 22.7027L67.8156 50.0127C67.849 50.1463 67.7823 50.2464 67.6488 50.2464ZM66.0477 49.8124H67.4487L67.0151 29.0461L66.0477 49.8124Z" fill="#231F20"/>
<path d="M123.822 37.1924C124.39 38.3943 124.39 39.7631 123.889 40.9984C122.922 43.2353 120.387 45.0381 118.519 46.5405C114.883 49.4785 109.646 49.5787 105.609 47.4086C104.042 46.5071 102.641 45.372 101.406 44.0699C100.639 43.3688 100.005 42.5342 99.5383 41.6327C98.671 39.6963 98.9712 37.4261 100.372 35.7901C100.639 35.523 101.34 35.1558 101.506 34.8887C101.773 34.3211 101.44 34.3879 101.406 33.8203C101.373 32.7854 101.206 32.0509 101.64 31.0159C101.907 30.248 102.407 29.6137 103.074 29.1462C103.708 28.7456 104.875 29.2464 105.242 28.9793C105.676 28.6455 105.643 27.0429 106.243 26.442C106.977 25.7408 107.978 25.4737 108.978 25.7075C108.311 24.1383 109.779 22.2687 111.447 22.0016C113.115 21.7345 114.783 22.6359 116.05 23.771C117.518 25.0731 118.685 27.1097 118.052 28.9793C118.252 28.3116 121.454 30.6152 121.721 30.9157C122.989 32.3847 122.755 33.8537 122.088 35.5898C122.822 35.8569 123.456 36.4245 123.822 37.1924Z" fill="#007EC6"/>
<path d="M111.514 49.1447C109.412 49.1447 107.344 48.6105 105.509 47.6423C103.775 46.7075 102.341 45.372 101.273 44.2703C100.506 43.5358 99.8721 42.7011 99.3383 41.7997C98.4043 39.7965 98.7379 37.4261 100.206 35.7234C100.372 35.5564 100.539 35.4229 100.739 35.3227C100.94 35.2226 101.14 35.0556 101.273 34.8887C101.406 34.655 101.373 34.6216 101.306 34.4881C101.206 34.3211 101.14 34.1208 101.14 33.9205C101.14 33.7202 101.106 33.5533 101.106 33.3863C101.006 32.5851 101.073 31.7838 101.373 31.0493C101.673 30.248 102.174 29.5803 102.874 29.0795C103.275 28.8124 103.842 28.8792 104.342 28.9126C104.575 28.9793 104.809 28.9793 105.042 28.9126C105.176 28.8124 105.276 28.3784 105.376 27.9777C105.509 27.4102 105.643 26.7424 106.01 26.4086C106.677 25.7742 107.644 25.4404 108.578 25.5405C108.445 24.9062 108.545 24.2051 108.879 23.6375C109.379 22.7027 110.28 22.0684 111.314 21.9014C113.382 21.5676 115.183 22.903 116.117 23.7377C117.451 24.9396 118.686 26.876 118.285 28.7456C119.286 28.8792 121.654 30.682 121.788 30.849C123.055 32.2846 122.922 33.787 122.288 35.5231C123.022 35.8569 123.623 36.4245 123.956 37.159C124.523 38.4277 124.557 39.8633 124.023 41.132C123.122 43.1685 120.987 44.8712 119.253 46.2401L118.586 46.7742C116.617 48.31 114.082 49.1781 111.514 49.1447ZM103.742 29.2464C103.541 29.2464 103.308 29.2798 103.108 29.38C102.474 29.814 102.04 30.4483 101.773 31.1494C101.507 31.8506 101.407 32.5851 101.54 33.3196C101.54 33.4865 101.573 33.6868 101.573 33.8537C101.573 33.9873 101.607 34.1208 101.673 34.221C101.807 34.4547 101.807 34.7886 101.64 35.0223C101.473 35.2894 101.206 35.4897 100.939 35.6232C100.773 35.7234 100.606 35.8569 100.472 35.9905C99.1382 37.5262 98.838 39.7297 99.6719 41.566C100.139 42.4674 100.773 43.2687 101.507 43.9364C102.541 45.0048 103.975 46.3402 105.643 47.2417C109.813 49.4785 114.916 49.1447 118.319 46.3736L118.986 45.8394C120.754 44.4372 122.789 42.8347 123.623 40.8983C124.123 39.7297 124.09 38.4277 123.556 37.2591C123.256 36.558 122.655 36.0238 121.921 35.7568C121.855 35.7568 121.821 35.69 121.788 35.6566C121.755 35.5898 121.755 35.5564 121.788 35.4897C122.455 33.7536 122.622 32.3847 121.454 31.0493C120.72 30.2146 118.285 29.0461 118.119 29.0795C118.085 29.1797 117.985 29.2464 117.885 29.213C117.885 29.213 117.885 29.213 117.852 29.213C117.752 29.1796 117.685 29.0461 117.718 28.9126C118.319 27.1097 117.084 25.1733 115.784 23.938C114.95 23.1701 113.215 21.9348 111.347 22.2353C110.446 22.4022 109.646 22.9698 109.212 23.7711C108.879 24.3386 108.812 25.0397 109.045 25.6407C109.079 25.7409 109.045 25.8744 108.912 25.9078C108.879 25.9078 108.845 25.9412 108.778 25.9078C107.878 25.7075 106.944 25.9746 106.243 26.6089C105.976 26.876 105.843 27.4769 105.71 27.9777C105.576 28.4785 105.476 28.9793 105.209 29.1797C104.942 29.38 104.609 29.3132 104.209 29.2798C104.142 29.2798 103.942 29.2464 103.742 29.2464Z" fill="#231F20"/>
<path d="M117.652 34.7885L111.681 38.6947L111.38 28.8123L110.813 30.9824L110.68 41.8998L104.175 36.0905L104.075 36.7249L110.613 43.0683L109.813 58.1255H112.281L111.747 40.4975L117.085 36.0905L117.652 34.7885Z" fill="white"/>
<path d="M112.281 58.3593H109.813C109.746 58.3593 109.712 58.3259 109.646 58.2925C109.612 58.2591 109.579 58.1923 109.579 58.1256L110.38 43.1351L103.908 36.8585C103.875 36.8251 103.842 36.7583 103.842 36.6916L103.908 36.0572C103.908 35.9571 104.008 35.8569 104.142 35.8569C104.175 35.8569 104.242 35.8903 104.275 35.9237L110.446 41.399L110.58 30.9491V30.9157L111.147 28.7456C111.18 28.6454 111.28 28.5787 111.414 28.5787C111.514 28.6121 111.58 28.6788 111.58 28.779L111.881 38.2941L117.518 34.5548C117.585 34.4881 117.685 34.4881 117.785 34.5548C117.852 34.6216 117.885 34.7218 117.852 34.7885L117.318 36.124C117.318 36.1574 117.285 36.1908 117.251 36.1908L111.981 40.531L112.514 58.0588C112.514 58.1256 112.481 58.159 112.448 58.2257C112.414 58.3259 112.348 58.3593 112.281 58.3593ZM110.046 57.9253H112.081L111.547 40.531C111.547 40.4642 111.58 40.3974 111.614 40.364L116.918 35.9904L117.185 35.3561L111.814 38.895C111.747 38.9284 111.681 38.9284 111.614 38.895C111.547 38.8617 111.514 38.7949 111.48 38.7281L111.214 30.2814L111.013 31.0159L110.88 41.8998C110.88 42 110.78 42.1001 110.68 42.1001C110.613 42.1001 110.58 42.0668 110.546 42.0334L104.309 36.5246V36.6582L110.78 42.9014C110.813 42.9348 110.847 43.0016 110.847 43.0683L110.046 57.9253Z" fill="#231F20"/>
<path d="M91.1658 20.5327L91.8663 53.6185H89.9983L91.1658 20.5327Z" fill="white"/>
<path d="M91.8663 53.8522H89.9983C89.9316 53.8522 89.8982 53.8188 89.8315 53.7854C89.7981 53.752 89.7648 53.6852 89.7648 53.6184L90.9323 20.4992C90.9323 20.3991 91.0324 20.2989 91.1324 20.2989C91.2325 20.2989 91.3326 20.3991 91.3326 20.4992L92.0331 53.6184C92.0331 53.6852 91.9997 53.7186 91.9664 53.7854C91.9997 53.8188 91.933 53.8522 91.8663 53.8522ZM90.1984 53.4181H91.6328L91.0991 28.0445L90.1984 53.4181Z" fill="#231F20"/>
<path d="M34.992 35.2559C42.0111 35.2559 47.7012 29.5609 47.7012 22.5357C47.7012 15.5106 42.0111 9.81555 34.992 9.81555C27.9729 9.81555 22.2828 15.5106 22.2828 22.5357C22.2828 29.5609 27.9729 35.2559 34.992 35.2559Z" fill="#D1D3D4"/>
<path d="M34.992 35.4896C27.8535 35.4896 22.0493 29.7138 22.0493 22.5357C22.0493 15.3577 27.8201 9.58185 34.992 9.58185C42.1638 9.58185 47.9346 15.3577 47.9346 22.5357C47.9013 29.6804 42.1305 35.4896 34.992 35.4896ZM34.992 10.0826C28.1204 10.0826 22.5497 15.6915 22.5497 22.5691C22.5497 29.4467 28.1537 35.0222 35.0253 35.0222C41.897 35.0222 47.4676 29.4467 47.4676 22.5691C47.4676 15.6582 41.8636 10.0826 34.992 10.0826Z" fill="#D1D3D4"/>
<path d="M32.6235 100.927C32.6235 100.927 47.4342 82.5977 49.469 82.0636C51.5038 81.5294 69.4167 92.6804 91.3658 88.841C113.315 85.0016 136.932 70.345 136.765 66.5055C136.598 62.6661 132.996 59.5278 129.693 59.5278C126.391 59.5278 95.5688 69.7774 95.5688 69.7774C95.5688 69.7774 72.3855 47.7424 45.2326 48.3434C28.9542 48.7106 4.80342 85.0016 4.43649 85.3688C4.06956 85.7361 32.6235 100.927 32.6235 100.927Z" fill="white"/>
<path d="M32.6235 101.127C32.5901 101.127 32.5567 101.127 32.5234 101.094C19.6474 94.2496 4.30304 85.9698 4.23633 85.3689C4.23633 85.3021 4.23633 85.2353 4.30304 85.1685C4.3364 85.1351 4.53654 84.8681 4.77005 84.5342C12.3755 73.6836 31.5894 48.4436 45.2659 48.1097C71.318 47.5088 94.001 67.9746 95.6689 69.5103C98.0706 68.7091 126.524 59.2941 129.727 59.2941C132.929 59.2941 136.799 62.3657 136.999 66.4722C137.199 70.6789 112.981 85.2687 91.4325 89.0414C74.8205 91.946 60.5102 86.3037 53.6386 83.5994C51.6038 82.7981 49.9693 82.1638 49.5356 82.2639C47.9345 82.698 36.9266 95.9857 32.8236 101.06C32.7569 101.094 32.6902 101.127 32.6235 101.127ZM4.70333 85.3355C6.20441 86.4706 21.9157 94.9841 32.5567 100.66C34.0245 98.8569 47.4008 82.3975 49.4022 81.8633C49.9359 81.7297 51.1368 82.1638 53.772 83.1987C60.6103 85.903 74.8539 91.5119 91.3325 88.6407C113.348 84.7679 136.698 70.0445 136.532 66.5056C136.365 62.6328 132.762 59.7615 129.693 59.7615C126.458 59.7615 95.9358 69.911 95.6356 70.0111C95.5688 70.0445 95.4688 70.0111 95.4354 69.9778C95.2019 69.7441 72.0185 48.0096 45.2659 48.6105C31.7895 48.911 12.6757 74.0509 5.10362 84.8347L4.70333 85.3355Z" fill="#231F20"/>
<path d="M44.1652 90.911L14.7774 69.0429L0.200195 87.1717L30.5221 104.8L44.1652 90.911Z" fill="#231F20"/>
<path d="M30.522 105C30.4886 105 30.4553 105 30.4219 104.967L0.100072 87.3386C0.0333571 87.3053 0 87.2719 0 87.2051C0 87.1383 -5.0949e-07 87.0715 0.0333569 87.0382L14.6105 68.9428C14.6772 68.8426 14.8107 68.8426 14.8774 68.9094L44.2652 90.7774C44.2986 90.8108 44.332 90.8776 44.332 90.9444C44.332 91.0111 44.2986 91.0445 44.2652 91.1113L30.6221 105C30.6221 105 30.5887 105 30.522 105ZM0.500361 87.1049L30.4887 104.533L43.8316 90.9444L14.8107 69.31L0.500361 87.1049Z" fill="#231F20"/>
<path d="M58.7757 56.9571C58.7757 56.9571 67.9156 61.531 74.3203 61.7313C80.7249 61.9317 95.1686 61.8983 99.405 63.7345C103.641 65.5708 105.81 71.7806 103.808 73.8172C101.807 75.8538 71.218 77.6566 56.0404 75.2862" fill="white"/>
<path d="M75.0207 76.6216C68.049 76.6216 61.1774 76.2877 56.007 75.4864C55.8736 75.4864 55.8069 75.3863 55.8069 75.2527C55.8069 75.1192 55.907 75.0524 56.0404 75.0524H56.0737C71.7517 77.523 101.873 75.4197 103.641 73.6502C104.275 73.0159 104.475 71.814 104.208 70.4117C103.775 68.1415 102.04 65.1367 99.3049 63.9348C95.7357 62.399 84.7944 62.1653 77.5893 61.9984C76.355 61.965 75.2542 61.965 74.3202 61.9316C67.949 61.7647 58.7757 57.1907 58.6756 57.1574C58.5755 57.0906 58.5422 56.957 58.6089 56.8569C58.6756 56.7567 58.7757 56.7233 58.8758 56.7567C58.9758 56.7901 68.049 61.3306 74.3536 61.4976C75.2876 61.531 76.3884 61.531 77.6226 61.5644C84.8945 61.7313 95.8691 61.9316 99.5051 63.5341C102.407 64.8028 104.208 67.9411 104.675 70.345C104.976 71.9475 104.742 73.2162 103.975 73.9841C102.574 75.3529 88.6639 76.6216 75.0207 76.6216Z" fill="#231F20"/>
</svg>
