<svg width="267" height="263" viewBox="0 0 267 263" fill="none" xmlns="http://www.w3.org/2000/svg">
<rect x="21" y="124" width="216" height="91" rx="45.5" fill="black"/>
<path d="M177.011 207.687L187.213 160.781L190.713 131.912C190.713 131.912 158.916 100.562 149.899 90.2859C140.882 80.0097 130.648 65.3079 125.884 66.3431C121.12 67.3783 120.161 72.6613 123.201 79.2357C124.437 81.9488 126.357 84.9292 127.17 87.6893C127.883 89.9812 127.546 96.3092 125.31 97.8925C122.596 99.7817 120.168 90.4635 116.77 92.0853C114.965 92.9469 113.171 97.3898 114.647 102.234C115.206 104.108 116.966 107.243 118.003 108.915C120.75 113.359 120.718 116.109 122.458 120.956C124.249 125.959 123.851 119.207 122.109 123.754C119.986 129.284 116.956 135.684 116.781 141.703C116.46 151.301 128.055 166.953 132.773 174.533C137.491 182.164 127.992 200.013 127.992 200.013L177.011 207.687Z" fill="white"/>
<path d="M177.007 208.05L127.935 200.376C127.83 200.375 127.725 200.27 127.674 200.165C127.622 200.061 127.623 199.957 127.677 199.854C127.785 199.647 137.069 182.108 132.454 174.737C131.676 173.482 130.691 171.966 129.652 170.397C124.255 162.186 116.16 149.792 116.412 141.699C116.576 136.562 118.751 131.086 120.707 126.282C121.087 125.404 121.414 124.525 121.741 123.646C121.905 123.129 122.175 122.613 122.497 122.15C122.395 121.889 122.24 121.524 122.087 121.107C121.525 119.44 121.118 118.086 120.764 116.732C120.054 114.181 119.446 111.994 117.683 109.119C116.439 107.133 114.836 104.156 114.276 102.385C112.75 97.333 114.651 92.7357 116.615 91.824C118.579 90.9123 120.296 93.1119 121.752 95.1009C122.323 95.9379 122.948 96.6717 123.626 97.4061C124.358 98.0373 124.782 97.8865 125.102 97.6825C127.125 96.2525 127.512 90.1326 126.798 87.8927C126.134 85.9647 125.31 84.1387 124.274 82.3621C123.758 81.3701 123.241 80.378 122.829 79.4391C120.871 75.2126 120.544 71.5238 121.84 68.9956C122.65 67.4478 124.088 66.3744 125.781 66.0824C129.54 65.2433 135.894 72.9457 143.183 81.9046C145.475 84.6817 147.818 87.5631 150.112 90.1327C159.078 100.253 190.613 131.444 190.926 131.759C191.031 131.812 191.029 131.968 191.028 132.072L187.528 160.941L177.326 207.898C177.325 207.95 177.166 208.052 177.007 208.05ZM128.577 199.708L176.752 207.268L186.898 160.674L190.395 132.013C188.202 129.859 158.338 100.296 149.685 90.4911C147.391 87.9216 145.048 85.0401 142.757 82.2111C136.196 74.1948 129.427 65.9167 126.092 66.6569C124.61 66.9513 123.332 67.8709 122.63 69.2122C121.442 71.4822 121.823 75.1197 123.626 79.033C124.038 79.972 124.555 80.9121 125.072 81.9042C126.107 83.7326 126.983 85.6111 127.646 87.591C128.36 89.8309 128.125 96.4716 125.676 98.2081C124.931 98.7186 124.141 98.6057 123.304 97.9214C122.573 97.1864 121.895 96.4001 121.272 95.5106C119.92 93.6785 118.569 91.7426 117.083 92.4522C115.596 93.1617 113.699 97.3958 115.123 102.187C115.682 104.062 117.494 107.197 118.427 108.765C120.293 111.744 120.901 113.983 121.611 116.586C121.965 117.888 122.372 119.294 122.934 120.909C123.088 121.274 123.19 121.587 123.293 121.796C123.346 121.796 123.399 121.797 123.505 121.798C123.926 121.907 124.185 122.325 124.127 122.74C124.177 123 123.963 123.257 123.698 123.306C123.487 123.355 123.277 123.249 123.017 122.883C122.855 123.192 122.692 123.554 122.53 123.915C122.203 124.794 121.823 125.672 121.496 126.55C119.594 131.303 117.419 136.728 117.256 141.708C117.007 149.595 125.051 161.884 130.396 169.99C131.434 171.559 132.42 173.075 133.198 174.33C137.552 181.438 130.035 196.819 128.577 199.708Z" fill="#231F20"/>
<path d="M152.703 177.149L103.459 161.48C101.46 160.834 100.375 158.746 101.031 156.781L135.116 53.3181C135.772 51.3534 137.896 50.2879 139.895 50.9337L189.14 66.6025C191.139 67.2483 192.224 69.3368 191.567 71.3015L157.483 174.764C156.826 176.729 154.649 177.794 152.703 177.149Z" fill="white"/>
<path d="M153.806 177.681C153.383 177.676 152.961 177.619 152.594 177.459L103.35 161.79C101.193 161.091 99.9517 158.793 100.663 156.673L134.747 53.2101C135.458 51.0903 137.795 49.8715 139.952 50.571L189.197 66.2399C191.353 66.9393 192.594 69.2373 191.884 71.357L157.798 174.872C157.25 176.578 155.601 177.701 153.806 177.681ZM103.568 161.118L152.813 176.787C154.601 177.378 156.513 176.414 157.114 174.656L191.146 71.1929C191.42 70.3656 191.378 69.4309 190.911 68.647C190.498 67.8637 189.766 67.2325 188.924 66.9633L139.68 51.2945C137.892 50.7031 135.98 51.6672 135.379 53.425L101.346 156.94C100.798 158.699 101.779 160.579 103.568 161.118Z" fill="#231F20"/>
<path d="M135.799 60.715L107.801 145.786L158.29 161.858L186.288 76.7866L135.799 60.715Z" fill="#007EC6"/>
<path d="M134.118 167.749C133.854 167.746 133.591 167.691 133.328 167.636L123.753 164.568C122.332 164.136 121.557 162.622 121.996 161.226L123.199 157.607C123.637 156.21 125.177 155.45 126.598 155.881L136.226 158.95C137.647 159.382 138.421 160.896 137.983 162.292L136.78 165.911C136.344 167.048 135.28 167.762 134.118 167.749ZM125.746 156.546C125.429 156.542 125.111 156.591 124.846 156.743C124.368 156.997 124.047 157.357 123.882 157.874L122.679 161.493C122.515 161.959 122.561 162.53 122.821 162.948C123.079 163.418 123.445 163.734 123.971 163.896L133.599 166.965C134.073 167.126 134.654 167.08 135.079 166.826C135.558 166.572 135.878 166.212 136.043 165.695L137.246 162.076C137.575 161.042 137.006 159.997 136.006 159.674L126.326 156.605C126.115 156.55 125.904 156.548 125.746 156.546Z" fill="#D1D3D4"/>
<path d="M173.026 67.3517C172.973 67.351 172.973 67.351 172.92 67.3504L158.558 62.7739C158.347 62.7196 158.244 62.5108 158.299 62.3038C158.354 62.0968 158.566 61.9955 158.777 62.0498L173.14 66.6263C173.35 66.6807 173.454 66.8895 173.398 67.0964C173.291 67.2509 173.131 67.3529 173.026 67.3517Z" fill="#D1D3D4"/>
<path d="M156.666 61.9736C156.613 61.973 156.613 61.973 156.56 61.9724L154.613 61.3792C154.403 61.3248 154.299 61.1161 154.355 60.9091C154.41 60.7021 154.622 60.6007 154.833 60.6551L156.78 61.2483C156.99 61.3027 157.093 61.5115 157.038 61.7184C156.984 61.8735 156.824 61.9755 156.666 61.9736Z" fill="#D1D3D4"/>
<path d="M130.492 101.845C130.048 103.76 128.289 105.193 126.015 105.53C123.424 105.812 120.845 105.107 118.75 103.63C117.545 102.786 116.501 101.736 115.723 100.481C114.375 98.3378 113.98 95.9459 114.846 94.0874C116.253 91.0932 121.066 90.4738 125.164 92.2855C128.999 93.9904 131.158 99.0496 130.492 101.845Z" fill="white"/>
<path d="M124.742 105.983C122.525 105.905 120.368 105.206 118.535 103.887C117.278 102.99 116.235 101.888 115.405 100.633C113.953 98.333 113.612 95.7859 114.478 93.9274C115.94 90.8301 120.808 89.9518 125.273 91.9234C129.213 93.6814 131.53 98.8463 130.809 101.9C130.31 103.97 128.497 105.507 126.011 105.841C125.588 105.94 125.165 105.987 124.742 105.983ZM120.63 91.6106C118.149 91.5821 115.973 92.4914 115.161 94.2467C114.349 96.002 114.693 98.1858 116.042 100.277C116.821 101.48 117.812 102.529 118.964 103.321C120.954 104.797 123.481 105.449 125.966 105.166C128.135 104.828 129.734 103.549 130.124 101.737C130.734 99.2004 128.837 94.248 125.002 92.595C123.635 92.0084 122.161 91.6282 120.63 91.6106Z" fill="#231F20"/>
<path d="M125.16 115.589C125.619 116.996 125.39 118.498 124.531 119.734C123.943 120.402 123.198 120.912 122.402 121.267C120.225 122.28 117.528 122.664 115.322 121.6C114.011 120.859 112.86 119.859 112.03 118.604C110.469 116.562 109.071 114.211 109.153 111.668C109.301 107.985 113.414 103.828 117.249 105.585C120.453 107.075 124.299 112.361 125.16 115.589Z" fill="white"/>
<path d="M118.162 122.619C117.106 122.607 116.105 122.388 115.16 121.962C113.795 121.22 112.646 120.168 111.71 118.86C109.629 116.189 108.705 113.895 108.783 111.664C108.969 109.227 110.368 107.011 112.495 105.686C113.985 104.717 115.834 104.583 117.463 105.276C120.773 106.767 124.671 112.158 125.583 115.49C126.041 117.001 125.811 118.659 124.899 119.946C124.31 120.666 123.511 121.227 122.609 121.58C121.176 122.239 119.694 122.585 118.162 122.619ZM115.401 105.564C114.503 105.554 113.603 105.803 112.858 106.313C110.943 107.485 109.706 109.495 109.522 111.673C109.446 113.696 110.319 115.834 112.296 118.4C113.128 119.551 114.225 120.55 115.484 121.291C117.375 122.195 119.805 122.067 122.247 120.953C123.042 120.651 123.682 120.139 124.27 119.523C125.022 118.39 125.249 116.992 124.842 115.689C123.98 112.565 120.185 107.384 117.139 105.947C116.561 105.681 115.982 105.571 115.401 105.564Z" fill="#231F20"/>
<path d="M119.604 125.802C120.229 126.587 120.641 127.475 120.841 128.463C121.239 130.595 120.103 132.918 118.294 134.143C116.379 135.315 114.051 135.755 111.892 135.211C109.258 134.714 106.952 133.13 105.605 130.883C104.259 128.584 104.291 125.782 105.585 123.461C109.243 117.586 116.536 121.666 119.604 125.802Z" fill="white"/>
<path d="M113.734 135.751C113.1 135.744 112.468 135.685 111.836 135.522C109.096 134.971 106.739 133.335 105.34 130.984C103.942 128.58 103.923 125.622 105.324 123.198C106.508 121.24 108.263 120.17 110.323 120.09C113.863 119.923 117.844 122.719 119.924 125.494C120.548 126.332 121.013 127.271 121.265 128.26C121.608 130.6 120.578 132.975 118.556 134.302C117.066 135.322 115.423 135.823 113.734 135.751ZM110.631 120.872L110.314 120.868C108.465 120.951 106.976 121.868 105.9 123.62C104.608 125.785 104.63 128.484 105.925 130.679C107.22 132.822 109.42 134.352 111.949 134.848C114.056 135.34 116.278 134.95 118.086 133.829C119.842 132.655 120.816 130.591 120.47 128.511C120.269 127.626 119.857 126.739 119.285 126.006C117.413 123.441 113.852 120.909 110.631 120.872Z" fill="#231F20"/>
<path d="M183.135 212.376L185.059 182.814L127.609 182.829L115.873 211.604L183.135 212.376Z" fill="#231F20"/>
<path d="M183.131 212.739L115.869 211.967C115.657 211.964 115.501 211.807 115.503 211.599C115.504 211.547 115.504 211.496 115.504 211.496L127.24 182.721C127.295 182.566 127.454 182.516 127.56 182.466L185.011 182.399C185.117 182.4 185.222 182.453 185.274 182.506C185.326 182.558 185.378 182.662 185.376 182.766L183.453 212.328C183.503 212.588 183.343 212.742 183.131 212.739ZM116.405 211.246L182.77 212.009L184.633 183.173L127.816 183.195L116.405 211.246Z" fill="#231F20"/>
<path d="M186.667 162.384C186.667 162.384 196.09 132.649 194.481 125.624C192.872 118.599 189.922 90.3823 186.978 89.2586C184.034 88.1348 178.081 96.1111 178.086 104.883C178.08 110.073 178.865 115.22 180.445 120.169C180.445 120.169 170.576 124.311 169.196 147.962" fill="white"/>
<path d="M186.662 162.747L186.557 162.746C186.346 162.692 186.243 162.483 186.298 162.276C186.407 161.966 195.669 132.54 194.111 125.723C193.608 123.538 193.021 119.431 192.284 114.647C190.91 105.549 188.656 90.3158 186.869 89.6206C186.185 89.3532 185.389 89.7593 184.804 90.1159C181.718 92.1565 178.425 98.3987 178.456 104.887C178.45 110.025 179.236 115.12 180.817 120.017C180.868 120.173 180.813 120.38 180.6 120.482C180.6 120.482 178.159 121.544 175.633 125.407C173.268 129.013 170.286 135.83 169.619 147.915C169.617 148.123 169.456 148.277 169.245 148.274C169.034 148.272 168.877 148.114 168.88 147.907C170.13 126.382 178.272 120.922 180.025 119.956C178.498 115.06 177.764 109.965 177.77 104.879C177.741 98.1833 181.248 91.684 184.441 89.4889C185.452 88.8258 186.405 88.5772 187.141 88.8971C189.191 89.6992 190.921 99.9955 193.025 114.5C193.762 119.283 194.349 123.39 194.852 125.524C196.461 132.549 187.419 161.251 187.036 162.44C186.98 162.647 186.821 162.749 186.662 162.747Z" fill="#231F20"/>
<path d="M149.396 65.0561L79.7048 64.2557C76.0618 64.2139 73.0718 67.086 73.0307 70.6667L72.5116 115.867C72.4705 119.447 75.3937 122.388 79.0367 122.429L138.116 123.108L147.691 135.363L147.831 123.219L148.675 123.229C152.318 123.271 155.308 120.399 155.349 116.818L155.868 71.6181C155.91 68.0374 153.039 65.098 149.396 65.0561Z" fill="white"/>
<path d="M147.686 135.778C147.581 135.777 147.476 135.724 147.424 135.619L137.953 123.521L79.032 122.845C75.1778 122.8 72.098 119.703 72.1415 115.914L72.6612 70.6625C72.7047 66.8742 75.8549 63.8482 79.709 63.8925L149.4 64.6929C153.255 64.7371 156.334 67.8347 156.291 71.623L155.772 116.823C155.728 120.611 152.578 123.637 148.724 123.593L148.196 123.587L148.061 135.367C148.059 135.523 147.952 135.677 147.793 135.727L147.686 135.778ZM79.7007 64.619C76.2689 64.5796 73.4391 67.2979 73.4003 70.671L72.8812 115.871C72.8425 119.244 75.6091 122.027 79.0409 122.066L138.12 122.745C138.226 122.746 138.331 122.799 138.382 122.903L147.333 134.321L147.461 123.215C147.463 123.008 147.624 122.854 147.835 122.856L148.68 122.866C152.111 122.905 154.941 120.187 154.98 116.814L155.499 71.6139C155.538 68.2407 152.771 65.4582 149.339 65.4188L79.7007 64.619Z" fill="#231F20"/>
<path d="M136.991 87.7502L115.789 71.7287C115.004 71.1488 113.948 71.1367 113.15 71.6984L91.5857 87.2288L91.28 113.851L136.685 114.372L136.991 87.7502Z" fill="#231F20"/>
<path d="M136.681 114.735L91.2758 114.214C91.0646 114.211 90.908 114.054 90.9104 113.846L91.2162 87.2245C91.2174 87.1207 91.2714 87.0175 91.3781 86.915L112.943 71.3327C113.848 70.6684 115.115 70.683 116.058 71.3685L137.258 87.4419C137.363 87.495 137.415 87.5994 137.413 87.7551L137.107 114.377C137.052 114.584 136.892 114.738 136.681 114.735ZM91.6538 113.492L136.32 114.005L136.619 87.9536L115.575 72.0377C114.946 71.5634 114.049 71.5531 113.357 72.0122L91.9529 87.4406L91.6538 113.492Z" fill="#231F20"/>
<path d="M131.705 79.022L95.9091 78.6109L95.5264 111.927L131.322 112.338L131.705 79.022Z" fill="white"/>
<path d="M131.319 112.65L95.5228 112.238C95.3116 112.236 95.2078 112.079 95.2096 111.923L95.5922 78.6073C95.5946 78.3997 95.7542 78.2977 95.9126 78.2995L131.709 78.7106C131.92 78.7131 132.024 78.87 132.022 79.0256L131.639 112.342C131.637 112.498 131.53 112.652 131.319 112.65ZM95.8473 111.567L130.957 111.971L131.332 79.3291L96.2222 78.9259L95.8473 111.567Z" fill="#231F20"/>
<path d="M126.274 96.7099L100.985 96.4194C100.774 96.417 100.617 96.2595 100.619 96.0519C100.622 95.8443 100.782 95.6905 100.993 95.6929L126.283 95.9834C126.494 95.9858 126.651 96.1433 126.648 96.3509C126.646 96.5584 126.433 96.7117 126.274 96.7099Z" fill="#D1D3D4"/>
<path d="M114.724 100.106L100.944 99.9482C100.733 99.9458 100.577 99.7883 100.579 99.5807C100.581 99.3731 100.742 99.2193 100.953 99.2217L114.733 99.38C114.944 99.3824 115.1 99.5399 115.098 99.7475C115.096 99.9551 114.935 100.109 114.724 100.106Z" fill="#D1D3D4"/>
<path d="M126.397 86.0196L101.108 85.7292C100.897 85.7268 100.74 85.5693 100.742 85.3617C100.745 85.1541 100.905 85.0002 101.116 85.0027L126.406 85.2931C126.617 85.2955 126.773 85.453 126.771 85.6606C126.769 85.8682 126.556 86.0214 126.397 86.0196Z" fill="#D1D3D4"/>
<path d="M126.356 89.6003L101.067 89.3099C100.855 89.3075 100.699 89.15 100.701 88.9424C100.704 88.7348 100.864 88.581 101.075 88.5834L126.364 88.8738C126.576 88.8762 126.732 89.0337 126.73 89.2413C126.727 89.4489 126.514 89.6022 126.356 89.6003Z" fill="#D1D3D4"/>
<path d="M126.316 93.1292L101.026 92.8387C100.815 92.8363 100.658 92.6788 100.661 92.4712C100.663 92.2636 100.823 92.1098 101.034 92.1122L126.324 92.4026C126.535 92.4051 126.692 92.5626 126.689 92.7701C126.634 92.9771 126.474 93.131 126.316 93.1292Z" fill="#D1D3D4"/>
<path d="M136.991 87.7502L136.662 116.344L91.2574 115.823L91.5858 87.2288L114.095 104.303L136.991 87.7502Z" fill="white"/>
<path d="M136.658 116.707L91.2532 116.186C91.0948 116.184 90.9382 116.027 90.94 115.871L91.2684 87.277C91.2696 87.1732 91.3241 87.0181 91.4831 86.9681C91.5893 86.9174 91.7477 86.9192 91.8521 87.0242L114.153 103.889L136.835 87.5408C136.941 87.4901 137.1 87.4401 137.205 87.4932C137.31 87.5463 137.414 87.6513 137.36 87.8064L137.031 116.4C136.977 116.555 136.817 116.709 136.658 116.707ZM91.5777 115.515L136.296 116.028L136.613 88.4206L114.251 104.565C114.144 104.667 113.985 104.665 113.828 104.56L91.842 87.9064L91.5777 115.515Z" fill="#231F20"/>
<path d="M91.2533 116.186C91.1477 116.185 91.0427 116.132 90.9905 116.079C90.8867 115.922 90.8891 115.715 91.0487 115.613L110.17 101.248C110.33 101.146 110.541 101.148 110.645 101.305C110.748 101.462 110.746 101.67 110.586 101.772L91.4651 116.136C91.4123 116.136 91.3061 116.186 91.2533 116.186Z" fill="#231F20"/>
<path d="M136.658 116.707C136.605 116.707 136.5 116.705 136.448 116.653L117.288 102.16C117.184 102.003 117.187 101.796 117.293 101.693C117.4 101.59 117.559 101.592 117.664 101.645L136.823 116.19C136.98 116.296 136.977 116.503 136.87 116.658C136.87 116.658 136.764 116.709 136.658 116.707Z" fill="#231F20"/>
<path d="M136.719 111.414C141.968 111.474 146.27 107.341 146.33 102.182C146.389 97.0233 142.182 92.7923 136.934 92.7321C131.685 92.6718 127.382 96.805 127.323 101.964C127.264 107.123 131.47 111.354 136.719 111.414Z" fill="#007EC6"/>
<path d="M136.863 98.9075L133.942 100.327L133.968 98.0439L137.101 96.5228L139.213 96.5471L139.112 105.369L136.789 105.342L136.863 98.9075Z" fill="white"/>
<path d="M86.4368 84.9898C86.384 84.9892 86.384 84.9892 86.3312 84.9886L77.8536 82.9189C77.643 82.8646 77.5392 82.7077 77.5416 82.5002C77.5968 82.2932 77.7564 82.1912 77.9675 82.1936L78.0203 82.1942L86.4979 84.2639C86.7085 84.3182 86.8117 84.527 86.7571 84.682C86.7548 84.8896 86.6474 85.0441 86.4368 84.9898Z" fill="#D1D3D4"/>
<path d="M88.8147 80.2422C88.7091 80.2409 88.6563 80.2403 88.6041 80.1878L80.3871 73.8134C80.2299 73.7078 80.1801 73.4477 80.2875 73.2933C80.3949 73.1388 80.6595 73.0899 80.8161 73.2474L89.033 79.6219C89.1902 79.7275 89.24 79.9875 89.1326 80.142C89.0265 80.1927 88.9203 80.2434 88.8147 80.2422Z" fill="#D1D3D4"/>
<path d="M93.8893 75.1622C93.731 75.1604 93.5738 75.0548 93.5227 74.8985L91.4248 69.0615C91.3744 68.8533 91.4824 68.6469 91.6414 68.5968C91.8532 68.5474 92.0632 68.6536 92.1142 68.8099L94.2121 74.6469C94.2625 74.8551 94.1545 75.0615 93.9955 75.1115C93.9421 75.1628 93.9421 75.1628 93.8893 75.1622Z" fill="#D1D3D4"/>
</svg>
