<svg width="137" height="125" viewBox="0 0 137 125" fill="none" xmlns="http://www.w3.org/2000/svg">
<path d="M27.7604 115.082H40.526V60.9724H48.1696L34.1432 44.611L20.0774 60.9724H27.7604V115.082Z" fill="#007EC6"/>
<path d="M5.85405 115.082H15.5465V93.2128H21.3383L10.7003 80.8312L0.0622559 93.2128H5.85405V115.082Z" fill="#007EC6"/>
<path d="M116.529 115.082H129.294V39.1438H136.938L122.911 22.7824L108.885 39.1438H116.529V115.082Z" fill="#007EC6"/>
<path d="M74.6069 33.3148C74.6069 33.3148 70.5881 25.2346 61.5261 27.4858C61.9989 29.938 63.5355 32.0284 65.6631 33.2344C69.3273 35.365 74.6069 33.3148 74.6069 33.3148Z" fill="#231F20"/>
<path d="M75.3951 85.615C75.0799 85.615 74.8435 85.3738 74.8435 85.0522V23.1844C74.8435 22.8628 75.0799 22.6216 75.3951 22.6216C75.7103 22.6216 75.9467 22.8628 75.9467 23.1844V85.0522C75.9467 85.3738 75.7103 85.615 75.3951 85.615Z" fill="#231F20"/>
<path d="M83.1174 37.576C83.1174 37.576 91.6278 35.2444 95.3708 45.5356C95.3708 45.5356 91.943 46.7014 88.003 44.4502C83.866 42.0784 83.1174 37.576 83.1174 37.576Z" fill="#231F20"/>
<path d="M67.4755 45.7366C67.4755 45.7366 66.2936 54.661 55.5374 54.2188C55.5374 54.2188 55.8132 50.5606 59.3592 47.7064C63.1022 44.7316 67.4755 45.7366 67.4755 45.7366Z" fill="#231F20"/>
<path d="M75.395 23.1844C81.4878 23.1844 86.427 18.1449 86.427 11.9284C86.427 5.71188 81.4878 0.672394 75.395 0.672394C69.3022 0.672394 64.363 5.71188 64.363 11.9284C64.363 18.1449 69.3022 23.1844 75.395 23.1844Z" fill="white"/>
<path d="M75.395 23.4658C69.1698 23.4658 64.0872 18.3202 64.0872 11.9284C64.0872 5.57679 69.1304 0.390991 75.395 0.390991C81.6596 0.390991 86.7028 5.53659 86.7028 11.9284C86.7028 18.3202 81.6596 23.4658 75.395 23.4658ZM75.395 0.993991C69.4456 0.993991 64.6388 5.89839 64.6388 11.9686C64.6388 18.0388 69.4456 22.9432 75.395 22.9432C81.3444 22.9432 86.1512 18.0388 86.1512 11.9686C86.1512 5.89839 81.3444 0.993991 75.395 0.993991Z" fill="#231F20"/>
<path d="M75.395 21.2146C70.3912 21.2146 66.333 17.074 66.3724 11.9686C66.3724 6.8632 70.4306 2.7226 75.4344 2.7628C80.4382 2.7628 84.457 6.9034 84.4964 12.0088C84.457 17.074 80.3988 21.2146 75.395 21.2146ZM75.395 3.2452C70.667 3.2452 66.8452 7.1446 66.8452 11.9686C66.8452 16.7926 70.667 20.692 75.395 20.692C80.123 20.692 83.9054 16.7926 83.9054 11.9686C83.9448 7.1446 80.123 3.2452 75.395 3.2452Z" fill="#D1D3D4"/>
<path d="M75.8285 16.5514V17.7976H74.8829V16.5112C72.9523 16.3102 71.6127 15.265 71.3369 13.3354L73.3857 12.9736C73.6221 13.9786 74.0949 14.5012 74.9223 14.662V12.5716C73.3069 12.1696 71.5733 11.647 71.5733 9.8782C71.5733 8.3104 72.9129 7.2652 74.9223 7.1848V6.0994H75.8679V7.225C77.6409 7.426 78.8623 8.431 79.2169 9.8782L77.1681 10.3204C77.0105 9.6772 76.4983 9.1948 75.8679 9.034V10.8028C77.5227 11.2048 79.5321 11.7274 79.5321 13.7374C79.4927 15.4258 78.1137 16.5112 75.8285 16.5514ZM74.8829 10.6822V9.034C74.0949 9.0742 73.6615 9.3556 73.6615 9.8782C73.6221 10.2802 74.1343 10.4812 74.8829 10.6822ZM77.4045 13.858C77.4045 13.2952 76.7347 13.054 75.8285 12.8128V14.7424C76.8529 14.7022 77.3651 14.3806 77.4045 13.858Z" fill="#007EC6"/>
<path d="M74.8829 51.7666C74.7647 51.7666 74.6859 51.7264 74.5677 51.6862L52.0703 37.2142C51.7945 37.0534 51.7551 36.6916 51.9127 36.4504C52.0703 36.169 52.4249 36.1288 52.6613 36.2896L75.1587 50.7616C75.4345 50.9224 75.5133 51.2842 75.3163 51.5254C75.2375 51.646 75.0799 51.7264 74.8829 51.7666Z" fill="#231F20"/>
<path d="M75.8285 42.1186C75.5133 42.1186 75.2769 41.8774 75.2769 41.5558C75.2769 41.3548 75.3556 41.194 75.5132 41.0734L95.4102 28.0084C95.686 27.8476 96.0013 27.928 96.1589 28.1692C96.3165 28.4506 96.2376 28.7722 96.0012 28.933L76.1042 41.998C76.0254 42.0784 75.9467 42.1186 75.8285 42.1186Z" fill="#231F20"/>
<path d="M50.5337 43.2442C54.9727 43.2442 58.5713 39.5726 58.5713 35.0434C58.5713 30.5142 54.9727 26.8426 50.5337 26.8426C46.0946 26.8426 42.4961 30.5142 42.4961 35.0434C42.4961 39.5726 46.0946 43.2442 50.5337 43.2442Z" fill="white"/>
<path d="M50.5336 43.5256C45.9632 43.5256 42.2202 39.7468 42.2202 35.0434C42.2202 30.3802 45.9238 26.5612 50.5336 26.5612C55.104 26.5612 58.847 30.34 58.847 35.0434C58.847 39.7066 55.1434 43.5256 50.5336 43.5256ZM50.5336 27.124C46.239 27.124 42.7718 30.6616 42.7718 35.0434C42.7718 39.4252 46.239 42.9628 50.5336 42.9628C54.8282 42.9628 58.2954 39.4252 58.2954 35.0434C58.2954 30.6616 54.8282 27.124 50.5336 27.124Z" fill="#231F20"/>
<path d="M50.5337 41.8774C46.8301 41.8774 43.8357 38.8222 43.8357 35.0434C43.8357 31.2646 46.8301 28.2094 50.5337 28.2094C54.2373 28.2094 57.2317 31.2646 57.2317 35.0434C57.2317 38.8222 54.2373 41.8774 50.5337 41.8774ZM50.5337 28.7722C47.1453 28.7722 44.3873 31.5862 44.3873 35.0434C44.3873 38.5006 47.1453 41.3146 50.5337 41.3146C53.9221 41.3146 56.6801 38.5006 56.6801 35.0434C56.6801 31.5862 53.9615 28.7722 50.5337 28.7722Z" fill="#D1D3D4"/>
<path d="M50.8489 38.38V39.2644H50.1397V38.38C48.7607 38.2192 47.7363 37.4554 47.5393 36.0886L49.0365 35.8072C49.1153 36.4102 49.5487 36.9328 50.1397 37.0534V35.5258C48.9577 35.2444 47.6969 34.8424 47.6969 33.556C47.6969 32.4304 48.6819 31.6666 50.1397 31.5862V30.7822H50.8489V31.6264C52.1491 31.7872 53.0553 32.5108 53.2917 33.556L51.7945 33.8776C51.6763 33.3952 51.2823 33.0736 50.8489 32.953V34.2394C52.0703 34.5208 53.5281 34.9228 53.5281 36.37C53.5281 37.576 52.5431 38.38 50.8489 38.38ZM50.1791 34.0786V32.8726C49.6275 32.9128 49.2729 33.1138 49.2729 33.4756C49.2729 33.7972 49.6275 33.958 50.1791 34.0786ZM51.9915 36.4102C51.9915 36.0082 51.5187 35.8072 50.8489 35.6464V37.0534C51.5975 37.0534 51.9915 36.8122 51.9915 36.4102Z" fill="#007EC6"/>
<path d="M99.1926 36.7318C103.632 36.7318 107.23 33.0602 107.23 28.531C107.23 24.0018 103.632 20.3302 99.1926 20.3302C94.7536 20.3302 91.155 24.0018 91.155 28.531C91.155 33.0602 94.7536 36.7318 99.1926 36.7318Z" fill="white"/>
<path d="M99.1926 37.0132C94.5828 37.0132 90.8792 33.2344 90.8792 28.531C90.8792 23.8276 94.5828 20.0488 99.1926 20.0488C103.802 20.0488 107.506 23.8276 107.506 28.531C107.506 33.1942 103.802 36.973 99.1926 37.0132ZM99.1926 20.6116C94.898 20.6116 91.4308 24.1492 91.4308 28.531C91.4308 32.9128 94.898 36.4504 99.1926 36.4504C103.487 36.4504 106.954 32.9128 106.954 28.531C106.954 24.1492 103.487 20.6116 99.1926 20.6116Z" fill="#231F20"/>
<path d="M99.1926 35.365C95.489 35.365 92.4946 32.3098 92.4946 28.531C92.4946 24.7522 95.489 21.697 99.1926 21.697C102.896 21.697 105.891 24.7522 105.891 28.531C105.891 32.3098 102.896 35.365 99.1926 35.365ZM99.1926 22.2598C95.8042 22.2598 93.0462 25.0738 93.0462 28.531C93.0462 31.9882 95.8042 34.8022 99.1926 34.8022C102.581 34.8022 105.339 31.9882 105.339 28.531C105.339 25.0336 102.581 22.2598 99.1926 22.2598Z" fill="#D1D3D4"/>
<path d="M99.5079 31.8676V32.752H98.7986V31.8274C97.4196 31.6666 96.3952 30.9028 96.1982 29.536L97.6954 29.2546C97.7742 29.8576 98.2076 30.3802 98.7986 30.5008V28.9732C97.6166 28.6918 96.3559 28.2898 96.3559 27.0034C96.3559 25.8778 97.3408 25.114 98.7986 25.0336V24.2296H99.5079V25.0738C100.808 25.2346 101.714 25.9582 101.951 27.0034L100.453 27.325C100.335 26.8426 99.9807 26.521 99.5079 26.4004V27.6868C100.729 27.9682 102.187 28.3702 102.187 29.8174C102.187 31.0636 101.163 31.8274 99.5079 31.8676ZM98.7986 27.5662V26.3602C98.247 26.4004 97.8924 26.6014 97.8924 26.9632C97.8924 27.2848 98.2864 27.4456 98.7986 27.5662ZM100.65 29.8978C100.65 29.4958 100.178 29.2948 99.5079 29.134V30.541C100.256 30.541 100.65 30.2998 100.65 29.8978Z" fill="#007EC6"/>
<path d="M66.8846 70.0978C66.8846 70.0978 59.044 65.0728 55.4192 62.8216C51.7944 60.5704 55.0646 59.2438 57.5074 59.6056C57.5074 59.6056 60.62 56.1886 63.2598 58.4398C63.2598 58.4398 64.9934 55.7464 69.0122 54.8218C73.031 53.8972 81.0292 55.9876 81.0292 55.9876C81.0292 55.9876 84.4964 52.7716 87.018 53.7766C89.5396 54.7816 87.9242 57.073 87.9242 57.073C87.9242 57.073 95.095 58.1584 94.1888 60.0076C93.2826 61.8568 84.7722 65.2336 83.0386 67.2838C81.305 69.334 80.4776 70.3792 80.4776 70.3792L66.8846 70.0978Z" fill="white"/>
<path d="M80.4777 70.6606L66.9241 70.3792C66.8847 70.3792 66.8059 70.3792 66.7665 70.339C66.6877 70.2988 58.8865 65.314 55.3011 63.0628C53.9221 62.2186 53.3311 61.3744 53.6069 60.6106C53.9615 59.5654 55.8527 59.1232 57.4287 59.3242C57.9803 58.7614 60.7383 56.2288 63.2205 58.078C64.6783 56.3092 66.6877 55.063 68.9335 54.5806C72.7159 53.656 79.8079 55.4248 80.9505 55.7062C81.5809 55.1434 84.6935 52.5706 87.1363 53.5756C87.9637 53.8972 88.4759 54.4198 88.6729 55.063C88.8305 55.7062 88.7123 56.3494 88.3971 56.9122C89.7761 57.1534 93.7949 57.9574 94.4647 59.284C94.6223 59.5654 94.6223 59.887 94.4647 60.1684C93.9525 61.2136 91.3915 62.5804 88.7123 64.0678C86.4271 65.314 84.0631 66.5602 83.2751 67.525C81.5415 69.535 80.7141 70.5802 80.7141 70.6204C80.6353 70.6204 80.5565 70.6606 80.4777 70.6606ZM66.9635 69.8164L80.3201 70.0978C80.5565 69.7762 81.3839 68.7712 82.8417 67.0828C83.7085 66.0778 85.9937 64.8316 88.4365 63.505C90.8793 62.1784 93.5191 60.7714 93.9525 59.8468C94.0313 59.7262 94.0313 59.5654 93.9525 59.4448C93.4009 58.3594 89.3821 57.5152 87.8849 57.274C87.8061 57.274 87.6879 57.1936 87.6879 57.1132C87.6485 57.0328 87.6485 56.9122 87.7273 56.8318C87.7273 56.8318 88.3577 55.9072 88.1213 55.1032C87.9243 54.5806 87.4909 54.1384 86.9393 53.9776C84.5753 53.0128 81.2657 56.068 81.2263 56.1082C81.1475 56.1886 81.0687 56.1886 80.9899 56.1886C80.9111 56.1484 72.9917 54.0982 69.0911 55.0228C65.1905 55.9474 63.5357 58.5202 63.5357 58.5604C63.4963 58.6408 63.4175 58.681 63.3387 58.681C63.2599 58.681 63.1811 58.681 63.1023 58.6408C60.6989 56.5906 57.7833 59.7664 57.7439 59.7664C57.6651 59.8468 57.5863 59.8468 57.5075 59.8468C56.0103 59.6458 54.3555 60.088 54.1191 60.7714C53.9615 61.2136 54.4737 61.897 55.5769 62.5804C59.0047 64.711 66.2149 69.334 66.9635 69.8164Z" fill="#231F20"/>
<path d="M68.3424 70.7812C68.3424 70.7812 56.1284 79.585 49.9426 87.1024C45.451 92.5696 45.648 105.313 46.1208 111.866C46.2784 114.117 48.7606 115.926 51.7944 115.926H96.7498C99.626 115.926 102.069 114.278 102.384 112.107C103.093 107.283 103.96 98.8408 102.384 93.3334C100.02 85.1728 82.3688 72.55 81.6202 70.741H68.3424V70.7812Z" fill="white"/>
<path d="M96.7892 116.247H51.7944C48.6424 116.247 46.0026 114.358 45.845 111.946C45.3722 104.991 45.2146 92.4892 49.7456 86.9818C55.892 79.5046 68.0666 70.7008 68.1848 70.5802C68.2242 70.54 68.303 70.54 68.3424 70.54H81.6202C81.7384 70.54 81.8172 70.6204 81.8566 70.7008C82.0536 71.1832 83.9842 72.8314 86.1906 74.761C91.7066 79.5448 100.926 87.5044 102.62 93.2932C104.236 98.9212 103.33 107.564 102.66 112.187C102.345 114.519 99.7836 116.247 96.7892 116.247ZM68.4606 71.0626C67.4362 71.7862 56.0496 80.1478 50.179 87.3034C45.8056 92.65 45.9238 104.991 46.3966 111.866C46.5542 113.996 48.9182 115.644 51.7944 115.644H96.7498C99.5078 115.644 101.832 114.117 102.108 112.067C102.778 107.484 103.684 98.9614 102.108 93.4138C100.493 87.7858 91.352 79.8664 85.8754 75.163C83.3144 72.952 81.896 71.7058 81.4626 71.0626H68.4606Z" fill="#231F20"/>
<path d="M78.5863 70.2586C78.5469 70.2586 78.5075 70.2586 78.4681 70.2184C78.3499 70.138 78.2711 69.9772 78.3105 69.8566C79.5319 67.2034 81.0685 64.6708 82.8021 62.3392C82.8809 62.2186 83.0779 62.1784 83.1961 62.2588C83.3143 62.3392 83.3537 62.5 83.2749 62.6608C81.5413 64.9522 80.0835 67.4446 78.8621 70.0576C78.7833 70.2184 78.7045 70.2586 78.5863 70.2586Z" fill="#D1D3D4"/>
<path d="M73.0705 70.5802C72.9523 70.5802 72.8341 70.4998 72.7947 70.3792C71.3763 66.0778 66.1755 60.3694 66.0967 60.289C65.9785 60.1684 65.9785 60.0076 66.0967 59.887C66.2149 59.7664 66.3725 59.7664 66.4907 59.887C66.6877 60.088 70.5489 64.3492 72.5189 68.329C72.1643 65.8366 71.5733 63.3844 70.7459 61.0126C70.7065 60.8518 70.7853 60.691 70.9035 60.6508C71.0611 60.6106 71.2187 60.691 71.2581 60.8116C72.3219 63.8668 72.9917 67.0426 73.3069 70.2586C73.3463 70.3792 73.2281 70.4998 73.0705 70.5802Z" fill="#D1D3D4"/>
<path d="M69.2092 70.4596C69.091 70.4596 69.0122 70.3792 68.9728 70.2988C67.9484 67.8466 64.166 65.4346 64.1266 65.4346C64.0084 65.3542 63.969 65.1934 64.0478 65.0326C64.1266 64.912 64.2842 64.8718 64.4418 64.9522C64.5994 65.0326 68.3818 67.4446 69.485 70.0978C69.5638 70.2586 69.485 70.4194 69.3274 70.4596C69.2486 70.4596 69.2092 70.4596 69.2092 70.4596Z" fill="#D1D3D4"/>
<path d="M59.7533 87.022C59.7139 87.022 59.6745 87.022 59.5957 86.9818C59.4775 86.9014 59.3987 86.7406 59.4775 86.62C63.8903 78.8212 70.7459 72.1882 70.8247 72.1078C70.9429 71.9872 71.1005 72.0274 71.2187 72.1078C71.2975 72.1882 71.2975 72.3088 71.2581 72.4294C71.2187 72.5098 67.3575 79.9066 66.5695 83.605C66.5301 83.7658 66.3725 83.8462 66.2543 83.806C66.1361 83.7658 66.0179 83.605 66.0573 83.4844C66.6483 80.7508 68.7759 76.168 69.9973 73.756C67.8303 76.0474 63.2599 81.1528 60.0291 86.8612C59.9503 86.9818 59.8321 87.022 59.7533 87.022Z" fill="#D1D3D4"/>
<path d="M90.3277 86.2984C90.2095 86.2984 90.1307 86.218 90.0913 86.1376C87.1363 79.4242 76.3801 71.5048 76.2619 71.4244C76.1437 71.344 76.1043 71.143 76.2225 71.0224C76.3013 70.9018 76.4589 70.8616 76.5771 70.942C77.0105 71.2636 87.6091 79.0222 90.6035 85.8562C90.6823 85.9768 90.6035 86.1778 90.4853 86.218C90.4459 86.2984 90.3671 86.2984 90.3277 86.2984Z" fill="#D1D3D4"/>
<path d="M79.2956 82.399C79.1774 82.399 79.0592 82.3186 79.0198 82.198C78.4682 80.3086 77.5226 78.5398 76.2224 77.0524C76.1042 76.9318 76.1042 76.771 76.2224 76.6504C76.3406 76.5298 76.4982 76.5298 76.6164 76.6504C77.9954 78.178 78.9804 80.0272 79.5714 82.0372C79.6108 82.198 79.532 82.3588 79.3744 82.399C79.3744 82.399 79.335 82.399 79.2956 82.399Z" fill="#D1D3D4"/>
<path d="M66.4907 68.932H81.6203C82.4083 68.932 83.0387 69.5752 83.0387 70.3792C83.0387 71.1832 82.4083 71.8264 81.6203 71.8264H66.4907C65.7027 71.8264 65.0723 71.1832 65.0723 70.3792C65.0723 69.5752 65.7027 68.932 66.4907 68.932Z" fill="#231F20"/>
<path d="M81.6203 72.1078H66.4907C65.5451 72.0676 64.8359 71.2636 64.8753 70.2988C64.9147 69.4144 65.6239 68.6908 66.4907 68.6506H81.6203C82.5659 68.6908 83.2751 69.4948 83.2357 70.4596C83.1963 71.3842 82.4871 72.0676 81.6203 72.1078ZM66.4907 69.2134C65.8603 69.2536 65.3875 69.8164 65.4269 70.4596C65.4663 71.0626 65.9391 71.545 66.4907 71.545H81.6203C82.2507 71.5048 82.7235 70.942 82.6841 70.2988C82.6447 69.6958 82.1719 69.2134 81.6203 69.2134H66.4907Z" fill="#231F20"/>
<path d="M28.2727 120.187L20.2351 115.564L20.4715 104.429C20.4715 104.429 52.8189 104.308 53.1341 104.429C55.7345 105.434 58.2167 106.8 60.5019 108.449L28.2727 120.187Z" fill="white"/>
<path d="M28.2726 120.468C28.2332 120.468 28.1938 120.468 28.1544 120.428L20.1168 115.845C20.038 115.805 19.9592 115.685 19.9592 115.604L20.1956 104.469C20.1956 104.308 20.3138 104.187 20.4714 104.187C32.5672 104.147 52.8976 104.107 53.2128 104.187C55.8526 105.233 58.3348 106.599 60.6594 108.248C60.7382 108.328 60.7776 108.408 60.7776 108.529C60.7776 108.65 60.6988 108.73 60.5806 108.77L28.3514 120.509C28.3514 120.468 28.312 120.468 28.2726 120.468ZM20.5108 115.403L28.312 119.865L59.9108 108.368C57.7832 106.881 55.4586 105.635 53.0552 104.71C52.4248 104.63 31.8186 104.67 20.7472 104.71L20.5108 115.403Z" fill="#231F20"/>
<path d="M60.5019 108.449C60.0291 108.127 28.2727 108.449 28.2727 108.449V120.187H60.5019V108.449Z" fill="white"/>
<path d="M28.2726 120.468C28.115 120.468 27.9968 120.348 27.9968 120.187V108.449C27.9968 108.288 28.115 108.167 28.2726 108.167C40.132 108.047 60.1472 107.886 60.6594 108.207C60.7382 108.248 60.7776 108.368 60.7776 108.449V120.187C60.7776 120.348 60.6594 120.468 60.5018 120.468H28.2726ZM28.5484 108.73V119.906H60.226V108.69C58.1378 108.489 40.526 108.569 28.5484 108.73Z" fill="#231F20"/>
<path d="M58.4923 115.082H54.5917C54.4341 115.082 54.3159 114.961 54.3159 114.8C54.3159 114.639 54.4341 114.519 54.5917 114.519H58.4923C58.6499 114.519 58.7681 114.639 58.7681 114.8C58.7681 114.961 58.6499 115.082 58.4923 115.082Z" fill="#D1D3D4"/>
<path d="M37.1377 119.865V108.368L30.7549 104.388H46.9089L54.1191 108.288L54.5525 119.745" fill="#231F20"/>
<path d="M37.1377 120.147C36.9801 120.147 36.8619 120.026 36.8619 119.865V108.489L30.5973 104.589C30.4791 104.509 30.4397 104.348 30.5185 104.187C30.5579 104.107 30.6761 104.067 30.7549 104.067H46.9483C46.9877 104.067 47.0271 104.067 47.0665 104.107L54.2767 108.006C54.3555 108.047 54.4343 108.127 54.4343 108.248L54.8677 119.705C54.8677 119.865 54.7495 119.986 54.5919 119.986C54.4343 119.986 54.3161 119.865 54.3161 119.705L53.8827 108.408L46.8695 104.589H31.7399L37.2953 108.047C37.3741 108.087 37.4135 108.207 37.4135 108.288V119.825C37.4135 120.026 37.2953 120.147 37.1377 120.147Z" fill="#231F20"/>
<path d="M28.2727 108.73C28.2333 108.73 28.1939 108.73 28.1545 108.69L20.3533 104.67C20.2351 104.589 20.1563 104.429 20.2351 104.308C20.3139 104.187 20.4715 104.107 20.5897 104.187L28.3909 108.207C28.5091 108.288 28.5879 108.449 28.5091 108.569C28.4697 108.69 28.3909 108.73 28.2727 108.73Z" fill="#231F20"/>
<path d="M36.1525 111.825H30.2819C30.1243 111.825 30.0061 111.705 30.0061 111.544C30.0061 111.383 30.1243 111.263 30.2819 111.263H36.1525C36.3101 111.263 36.4283 111.383 36.4283 111.544C36.4283 111.705 36.3101 111.825 36.1525 111.825Z" fill="#D1D3D4"/>
<path d="M59.5562 111.102H55.498C55.3404 111.102 55.2222 110.981 55.2222 110.82C55.2222 110.66 55.3404 110.539 55.498 110.539H59.5562C59.7138 110.539 59.832 110.66 59.832 110.82C59.832 110.981 59.7138 111.102 59.5562 111.102Z" fill="#D1D3D4"/>
<path d="M35.2857 116.046H28.9423C28.7847 116.046 28.6665 115.926 28.6665 115.765C28.6665 115.604 28.7847 115.484 28.9423 115.484H35.2857C35.4433 115.484 35.5615 115.604 35.5615 115.765C35.5615 115.926 35.4433 116.046 35.2857 116.046Z" fill="#D1D3D4"/>
<path d="M26.2633 110.7C26.2239 110.7 26.1845 110.7 26.1451 110.66L21.8899 108.288C21.7717 108.207 21.6929 108.047 21.7717 107.886C21.8505 107.765 22.0081 107.685 22.1263 107.765L26.3815 110.137C26.5391 110.217 26.5785 110.378 26.4997 110.539C26.4603 110.66 26.3421 110.7 26.2633 110.7Z" fill="#D1D3D4"/>
<path d="M27.2877 117.293C27.2483 117.293 27.2089 117.293 27.1695 117.252L22.7173 114.84C22.5991 114.76 22.5203 114.599 22.5991 114.479C22.6779 114.358 22.8355 114.278 22.9537 114.358L27.4059 116.77C27.5241 116.85 27.6029 117.011 27.5241 117.172C27.4847 117.252 27.3665 117.293 27.2877 117.293Z" fill="#D1D3D4"/>
<path d="M25.7116 113.594C25.6722 113.594 25.6328 113.594 25.5934 113.554L20.9048 111.021C20.7866 110.941 20.7078 110.78 20.7866 110.66C20.8654 110.539 21.023 110.459 21.1412 110.539L25.8298 113.072C25.948 113.152 26.0268 113.313 25.948 113.433C25.9086 113.554 25.7904 113.594 25.7116 113.594Z" fill="#D1D3D4"/>
<path d="M36.5859 118.338H32.8429C32.6853 118.338 32.5671 118.217 32.5671 118.056C32.5671 117.896 32.6853 117.775 32.8429 117.775H36.5859C36.7435 117.775 36.8617 117.896 36.8617 118.056C36.8617 118.217 36.7435 118.338 36.5859 118.338Z" fill="#D1D3D4"/>
<path d="M53.1735 100.248V103.866C53.1735 105.233 49.3517 106.358 44.5843 106.358C39.8169 106.358 35.9951 105.233 35.9951 103.866V100.248H53.1735Z" fill="white"/>
<path d="M44.5842 106.64C40.2896 106.64 35.7192 105.675 35.7192 103.866V100.248C35.7192 100.087 35.8374 99.9664 35.995 99.9664H53.134C53.2916 99.9664 53.4098 100.087 53.4098 100.248V103.866C53.4492 105.675 48.8788 106.64 44.5842 106.64ZM36.2708 100.529V103.866C36.2708 104.911 39.6592 106.077 44.5842 106.077C49.5092 106.077 52.8976 104.911 52.8976 103.866V100.529H36.2708Z" fill="#231F20"/>
<path d="M44.5843 102.74C49.328 102.74 53.1735 101.624 53.1735 100.248C53.1735 98.8713 49.328 97.7554 44.5843 97.7554C39.8406 97.7554 35.9951 98.8713 35.9951 100.248C35.9951 101.624 39.8406 102.74 44.5843 102.74Z" fill="#231F20"/>
<path d="M44.5842 103.022C40.2896 103.022 35.7192 102.057 35.7192 100.248C35.7192 98.4388 40.2896 97.474 44.5842 97.474C48.8788 97.474 53.4492 98.4388 53.4492 100.248C53.4492 102.057 48.8788 103.022 44.5842 103.022ZM44.5842 98.0368C39.6986 98.0368 36.2708 99.2026 36.2708 100.248C36.2708 101.293 39.6592 102.459 44.5842 102.459C49.5092 102.459 52.8976 101.293 52.8976 100.248C52.8976 99.2026 49.4698 98.0368 44.5842 98.0368Z" fill="#231F20"/>
<path d="M51.1247 95.3032V98.9212C51.1247 100.288 47.2635 101.414 42.5355 101.414C37.8075 101.414 33.9463 100.288 33.9463 98.9212V95.3032H51.1247Z" fill="white"/>
<path d="M42.5747 101.655C38.2801 101.655 33.7097 100.69 33.7097 98.881V95.263C33.7097 95.1022 33.8279 94.9816 33.9855 94.9816H51.1245C51.2821 94.9816 51.4003 95.1022 51.4003 95.263V98.881C51.4003 100.69 46.8693 101.655 42.5747 101.655ZM34.2613 95.5846V98.9212C34.2613 99.9664 37.6497 101.132 42.5747 101.132C47.4997 101.132 50.8881 99.9664 50.8881 98.9212V95.5846H34.2613Z" fill="#231F20"/>
<path d="M42.5748 97.7956C47.3185 97.7956 51.164 96.6797 51.164 95.3032C51.164 93.9267 47.3185 92.8108 42.5748 92.8108C37.8311 92.8108 33.9856 93.9267 33.9856 95.3032C33.9856 96.6797 37.8311 97.7956 42.5748 97.7956Z" fill="white"/>
<path d="M42.5747 98.0368C38.2801 98.0368 33.7097 97.072 33.7097 95.263C33.7097 93.454 38.2801 92.4892 42.5747 92.4892C46.8693 92.4892 51.4397 93.454 51.4397 95.263C51.4397 97.072 46.8693 98.0368 42.5747 98.0368ZM42.5747 93.0922C37.6891 93.0922 34.2613 94.258 34.2613 95.3032C34.2613 96.3484 37.6497 97.5142 42.5747 97.5142C47.4997 97.5142 50.8881 96.3484 50.8881 95.3032C50.8881 94.258 47.4603 93.0922 42.5747 93.0922Z" fill="#231F20"/>
<path d="M42.5749 97.072C39.9745 97.072 35.0889 96.7102 35.0889 95.263C35.0889 93.8158 39.9745 93.4942 42.5749 93.4942C45.1753 93.4942 50.0215 93.856 50.0215 95.263C50.0215 96.67 45.1359 97.072 42.5749 97.072ZM42.5749 94.057C38.0833 94.057 35.6405 94.861 35.6405 95.263C35.6405 95.665 38.0833 96.469 42.5749 96.469C47.0665 96.469 49.5093 95.665 49.5093 95.263C49.5093 94.861 47.0271 94.057 42.5749 94.057Z" fill="#D1D3D4"/>
<path d="M125.985 112.589L91.5096 112.268L82.0142 121.232H121.887L125.985 112.589Z" fill="white"/>
<path d="M121.887 121.514H82.0143C81.8567 121.514 81.7385 121.393 81.7385 121.232C81.7385 121.152 81.7779 121.071 81.8173 121.031L91.3127 112.067C91.3521 112.026 91.4309 111.986 91.5097 111.986L125.985 112.308C126.064 112.308 126.182 112.348 126.221 112.428C126.261 112.509 126.261 112.629 126.221 112.71L122.124 121.353C122.084 121.433 121.966 121.514 121.887 121.514ZM82.7235 120.951H121.73L125.591 112.871L91.6673 112.549L82.7235 120.951Z" fill="#231F20"/>
<path d="M81.2263 114.117V117.735C81.2263 119.102 85.0481 120.227 89.8155 120.227C94.5829 120.227 98.4047 119.102 98.4047 117.735V114.117H81.2263Z" fill="white"/>
<path d="M89.8154 120.468C85.5208 120.468 80.9504 119.504 80.9504 117.695V114.077C80.9504 113.916 81.0686 113.795 81.2262 113.795H98.3652C98.5228 113.795 98.641 113.916 98.641 114.077V117.695C98.641 119.504 94.11 120.468 89.8154 120.468ZM81.502 114.398V117.735C81.502 118.78 84.8904 119.946 89.8154 119.946C94.7404 119.946 98.1288 118.78 98.1288 117.735V114.398H81.502Z" fill="#231F20"/>
<path d="M89.8155 116.609C94.5592 116.609 98.4047 115.493 98.4047 114.117C98.4047 112.74 94.5592 111.624 89.8155 111.624C85.0718 111.624 81.2263 112.74 81.2263 114.117C81.2263 115.493 85.0718 116.609 89.8155 116.609Z" fill="#231F20"/>
<path d="M89.8154 116.85C85.5208 116.85 80.9504 115.886 80.9504 114.077C80.9504 112.268 85.5208 111.303 89.8154 111.303C94.11 111.303 98.6804 112.268 98.6804 114.077C98.6804 115.886 94.11 116.85 89.8154 116.85ZM89.8154 111.906C84.9298 111.906 81.502 113.072 81.502 114.117C81.502 115.162 84.8904 116.328 89.8154 116.328C94.7404 116.328 98.1288 115.162 98.1288 114.117C98.1288 113.072 94.701 111.906 89.8154 111.906Z" fill="#231F20"/>
<path d="M83.2356 109.132V112.75C83.2356 114.117 87.0968 115.242 91.8248 115.242C96.5528 115.242 100.414 114.157 100.414 112.75V109.132H83.2356Z" fill="white"/>
<path d="M91.8247 115.524C87.5301 115.524 82.9597 114.559 82.9597 112.75V109.132C82.9597 108.971 83.0779 108.851 83.2355 108.851H100.414C100.572 108.851 100.69 108.971 100.69 109.132V112.75C100.69 114.559 96.1193 115.524 91.8247 115.524ZM83.5113 109.413V112.75C83.5113 113.795 86.8997 114.961 91.8247 114.961C96.7497 114.961 100.138 113.795 100.138 112.75V109.413H83.5113Z" fill="#231F20"/>
<path d="M91.8248 111.624C96.5685 111.624 100.414 110.509 100.414 109.132C100.414 107.755 96.5685 106.64 91.8248 106.64C87.0811 106.64 83.2356 107.755 83.2356 109.132C83.2356 110.509 87.0811 111.624 91.8248 111.624Z" fill="#231F20"/>
<path d="M91.8247 111.906C87.5301 111.906 82.9597 110.941 82.9597 109.132C82.9597 107.323 87.5301 106.358 91.8247 106.358C96.1193 106.358 100.69 107.323 100.69 109.132C100.69 110.941 96.1193 111.906 91.8247 111.906ZM91.8247 106.921C86.9391 106.921 83.5113 108.087 83.5113 109.132C83.5113 110.177 86.8997 111.343 91.8247 111.343C96.7497 111.343 100.138 110.177 100.138 109.132C100.138 108.087 96.7103 106.921 91.8247 106.921Z" fill="#231F20"/>
<path d="M81.502 103.625V107.243C81.502 108.609 85.3631 109.735 90.0911 109.735C94.8191 109.735 98.6804 108.609 98.6804 107.243V103.625H81.502Z" fill="white"/>
<path d="M90.0518 109.976C85.7572 109.976 81.1868 109.011 81.1868 107.202V103.584C81.1868 103.424 81.305 103.303 81.4626 103.303H98.6016C98.7592 103.303 98.8774 103.424 98.8774 103.584V107.202C98.9168 109.011 94.3464 109.976 90.0518 109.976ZM81.7778 103.906V107.243C81.7778 108.288 85.1662 109.454 90.0912 109.454C95.0162 109.454 98.4046 108.288 98.4046 107.243V103.906H81.7778Z" fill="#231F20"/>
<path d="M90.0519 106.117C94.7955 106.117 98.6411 105.001 98.6411 103.625C98.6411 102.248 94.7955 101.132 90.0519 101.132C85.3082 101.132 81.4626 102.248 81.4626 103.625C81.4626 105.001 85.3082 106.117 90.0519 106.117Z" fill="white"/>
<path d="M90.0518 106.358C85.7572 106.358 81.1868 105.393 81.1868 103.584C81.1868 101.775 85.7572 100.811 90.0518 100.811C94.3464 100.811 98.9168 101.775 98.9168 103.584C98.9168 105.393 94.3464 106.358 90.0518 106.358ZM90.0518 101.414C85.1662 101.414 81.7384 102.579 81.7384 103.625C81.7384 104.67 85.1268 105.836 90.0518 105.836C94.9768 105.836 98.3652 104.67 98.3652 103.625C98.3652 102.579 94.9768 101.414 90.0518 101.414Z" fill="#231F20"/>
<path d="M90.0519 105.393C87.4909 105.393 82.5659 105.032 82.5659 103.625C82.5659 102.218 87.4515 101.816 90.0519 101.816C92.6523 101.816 97.5379 102.177 97.5379 103.625C97.5379 105.072 92.6523 105.393 90.0519 105.393ZM90.0519 102.378C85.5603 102.378 83.1569 103.182 83.1569 103.584C83.1569 103.986 85.5997 104.79 90.0519 104.79C94.5041 104.79 96.9863 103.986 96.9863 103.584C96.9863 103.182 94.5435 102.378 90.0519 102.378Z" fill="#D1D3D4"/>
<path d="M103.724 112.147V115.765C103.724 117.132 107.545 118.257 112.313 118.257C117.08 118.257 120.902 117.132 120.902 115.765V112.147H103.724Z" fill="white"/>
<path d="M112.273 118.539C107.979 118.539 103.408 117.574 103.408 115.765V112.147C103.408 111.986 103.527 111.866 103.684 111.866H120.823C120.981 111.866 121.099 111.986 121.099 112.147V115.765C121.138 117.574 116.568 118.539 112.273 118.539ZM103.96 112.428V115.765C103.96 116.81 107.348 117.976 112.273 117.976C117.198 117.976 120.587 116.81 120.587 115.765V112.428H103.96Z" fill="#231F20"/>
<path d="M112.274 114.639C117.017 114.639 120.863 113.523 120.863 112.147C120.863 110.77 117.017 109.655 112.274 109.655C107.53 109.655 103.684 110.77 103.684 112.147C103.684 113.523 107.53 114.639 112.274 114.639Z" fill="#231F20"/>
<path d="M112.273 114.921C107.979 114.921 103.408 113.956 103.408 112.147C103.408 110.338 107.979 109.373 112.273 109.373C116.568 109.373 121.138 110.338 121.138 112.147C121.138 113.956 116.568 114.921 112.273 114.921ZM112.273 109.976C107.388 109.976 103.96 111.142 103.96 112.187C103.96 113.232 107.388 114.398 112.273 114.398C117.159 114.398 120.587 113.232 120.587 112.187C120.587 111.142 117.159 109.976 112.273 109.976Z" fill="#231F20"/>
<path d="M102.581 107.886V111.504C102.581 112.871 106.403 113.996 111.17 113.996C115.938 113.996 119.72 112.871 119.72 111.504V107.886H102.581Z" fill="white"/>
<path d="M111.17 114.278C106.876 114.278 102.305 113.313 102.305 111.504V107.886C102.305 107.725 102.423 107.604 102.581 107.604H119.72C119.878 107.604 119.996 107.725 119.996 107.886V111.504C119.996 113.313 115.465 114.278 111.17 114.278ZM102.857 108.167V111.504C102.857 112.549 106.245 113.715 111.17 113.715C116.095 113.715 119.484 112.549 119.484 111.504V108.167H102.857Z" fill="#231F20"/>
<path d="M111.17 110.378C115.914 110.378 119.759 109.262 119.759 107.886C119.759 106.509 115.914 105.393 111.17 105.393C106.427 105.393 102.581 106.509 102.581 107.886C102.581 109.262 106.427 110.378 111.17 110.378Z" fill="#231F20"/>
<path d="M111.17 110.66C106.876 110.66 102.305 109.695 102.305 107.886C102.305 106.077 106.876 105.112 111.17 105.112C115.465 105.112 120.035 106.077 120.035 107.886C120.035 109.695 115.465 110.66 111.17 110.66ZM111.17 105.675C106.285 105.675 102.857 106.841 102.857 107.886C102.857 108.931 106.245 110.097 111.17 110.097C116.095 110.097 119.484 108.931 119.484 107.886C119.484 106.841 116.056 105.675 111.17 105.675Z" fill="#231F20"/>
<path d="M103.96 102.66V106.278C103.96 107.645 107.782 108.77 112.549 108.77C117.317 108.77 121.138 107.645 121.138 106.278V102.66H103.96Z" fill="white"/>
<path d="M112.549 109.052C108.255 109.052 103.684 108.087 103.684 106.278V102.66C103.684 102.499 103.803 102.378 103.96 102.378H121.099C121.257 102.378 121.375 102.499 121.375 102.66V106.278C121.375 108.087 116.844 109.052 112.549 109.052ZM104.236 102.941V106.278C104.236 107.323 107.624 108.489 112.549 108.489C117.474 108.489 120.863 107.323 120.863 106.278V102.941H104.236Z" fill="#231F20"/>
<path d="M112.549 105.152C117.293 105.152 121.138 104.036 121.138 102.66C121.138 101.283 117.293 100.167 112.549 100.167C107.805 100.167 103.96 101.283 103.96 102.66C103.96 104.036 107.805 105.152 112.549 105.152Z" fill="#231F20"/>
<path d="M112.549 105.434C108.255 105.434 103.684 104.469 103.684 102.66C103.684 100.851 108.255 99.886 112.549 99.886C116.844 99.886 121.414 100.851 121.414 102.66C121.414 104.469 116.844 105.434 112.549 105.434ZM112.549 100.449C107.664 100.449 104.236 101.615 104.236 102.66C104.236 103.705 107.624 104.871 112.549 104.871C117.474 104.871 120.863 103.705 120.863 102.66C120.863 101.615 117.435 100.449 112.549 100.449Z" fill="#231F20"/>
<path d="M102.581 97.3936V101.012C102.581 102.378 106.403 103.504 111.17 103.504C115.938 103.504 119.72 102.378 119.72 101.012V97.3936H102.581Z" fill="white"/>
<path d="M111.17 103.785C106.876 103.785 102.305 102.821 102.305 101.012V97.3936C102.305 97.2328 102.423 97.1122 102.581 97.1122H119.72C119.878 97.1122 119.996 97.2328 119.996 97.3936V101.012C119.996 102.821 115.465 103.785 111.17 103.785ZM102.857 97.675V101.012C102.857 102.057 106.245 103.223 111.17 103.223C116.095 103.223 119.484 102.057 119.484 101.012V97.675H102.857Z" fill="#231F20"/>
<path d="M111.17 99.886C115.914 99.886 119.759 98.7701 119.759 97.3936C119.759 96.0171 115.914 94.9012 111.17 94.9012C106.427 94.9012 102.581 96.0171 102.581 97.3936C102.581 98.7701 106.427 99.886 111.17 99.886Z" fill="#231F20"/>
<path d="M111.17 100.167C106.876 100.167 102.305 99.2026 102.305 97.3936C102.305 95.5846 106.876 94.66 111.17 94.66C115.465 94.66 120.035 95.6248 120.035 97.4338C120.035 99.2428 115.465 100.167 111.17 100.167ZM111.17 95.2228C106.285 95.2228 102.857 96.3886 102.857 97.4338C102.857 98.479 106.245 99.6448 111.17 99.6448C116.095 99.6448 119.484 98.479 119.484 97.4338C119.484 96.3886 116.056 95.2228 111.17 95.2228Z" fill="#231F20"/>
<path d="M105.339 93.0922V96.7102C105.339 98.077 109.2 99.2026 113.928 99.2026C118.656 99.2026 122.518 98.077 122.518 96.7102V93.0922H105.339Z" fill="white"/>
<path d="M113.928 99.484C109.634 99.484 105.063 98.5192 105.063 96.7102V93.0922C105.063 92.9314 105.181 92.8108 105.339 92.8108H122.478C122.636 92.8108 122.754 92.9314 122.754 93.0922V96.7102C122.793 98.5192 118.223 99.484 113.928 99.484ZM105.615 93.3736V96.7102C105.615 97.7554 109.003 98.9212 113.928 98.9212C118.853 98.9212 122.242 97.7554 122.242 96.7102V93.3736H105.615Z" fill="#231F20"/>
<path d="M113.928 95.5846C118.672 95.5846 122.518 94.4687 122.518 93.0922C122.518 91.7157 118.672 90.5998 113.928 90.5998C109.185 90.5998 105.339 91.7157 105.339 93.0922C105.339 94.4687 109.185 95.5846 113.928 95.5846Z" fill="#231F20"/>
<path d="M113.928 95.866C109.634 95.866 105.063 94.9012 105.063 93.0922C105.063 91.2832 109.634 90.3184 113.928 90.3184C118.223 90.3184 122.793 91.2832 122.793 93.0922C122.793 94.9012 118.223 95.866 113.928 95.866ZM113.928 90.9214C109.043 90.9214 105.615 92.0872 105.615 93.1324C105.615 94.1776 109.003 95.3434 113.928 95.3434C118.853 95.3434 122.242 94.1776 122.242 93.1324C122.242 92.0872 118.814 90.9214 113.928 90.9214Z" fill="#231F20"/>
<path d="M103.487 88.831V92.449C103.487 93.8158 107.309 94.9414 112.077 94.9414C116.844 94.9414 120.666 93.8158 120.666 92.449V88.831H103.487Z" fill="white"/>
<path d="M112.037 95.2228C107.743 95.2228 103.172 94.258 103.172 92.449V88.831C103.172 88.6702 103.29 88.5496 103.448 88.5496H120.587C120.745 88.5496 120.863 88.6702 120.863 88.831V92.449C120.902 94.2178 116.332 95.2228 112.037 95.2228ZM103.763 89.1124V92.449C103.763 93.4942 107.152 94.66 112.077 94.66C117.002 94.66 120.39 93.4942 120.39 92.449V89.1124H103.763Z" fill="#231F20"/>
<path d="M112.037 91.3234C116.781 91.3234 120.626 90.2075 120.626 88.831C120.626 87.4545 116.781 86.3386 112.037 86.3386C107.293 86.3386 103.448 87.4545 103.448 88.831C103.448 90.2075 107.293 91.3234 112.037 91.3234Z" fill="white"/>
<path d="M112.037 91.6048C107.743 91.6048 103.172 90.64 103.172 88.831C103.172 87.022 107.743 86.0572 112.037 86.0572C116.332 86.0572 120.902 87.022 120.902 88.831C120.902 90.64 116.332 91.6048 112.037 91.6048ZM112.037 86.62C107.152 86.62 103.724 87.7858 103.724 88.831C103.724 89.8762 107.112 91.042 112.037 91.042C116.962 91.042 120.351 89.8762 120.351 88.831C120.351 87.7858 116.923 86.62 112.037 86.62Z" fill="#231F20"/>
<path d="M112.037 90.5998C109.437 90.5998 104.551 90.238 104.551 88.831C104.551 87.424 109.437 87.022 112.037 87.022C114.637 87.022 119.523 87.3838 119.523 88.831C119.523 90.2782 114.637 90.5998 112.037 90.5998ZM112.037 87.5848C107.545 87.5848 105.142 88.3888 105.142 88.7908C105.142 89.1928 107.585 89.9968 112.037 89.9968C116.489 89.9968 118.932 89.1928 118.932 88.7908C118.932 88.3888 116.529 87.5848 112.037 87.5848Z" fill="#D1D3D4"/>
<path d="M48.406 124.328C52.4969 124.328 55.8132 120.944 55.8132 116.77C55.8132 112.596 52.4969 109.212 48.406 109.212C44.3151 109.212 40.9988 112.596 40.9988 116.77C40.9988 120.944 44.3151 124.328 48.406 124.328Z" fill="white"/>
<path d="M48.4061 124.569C44.1509 124.569 40.7231 121.071 40.7231 116.73C40.7231 112.388 44.1509 108.891 48.4061 108.891C52.6613 108.891 56.0891 112.388 56.0891 116.73C56.0891 117.815 55.8527 118.86 55.4587 119.825C54.2373 122.72 51.4793 124.569 48.4061 124.569ZM48.4455 109.494C44.5055 109.494 41.3141 112.75 41.3141 116.77C41.3141 120.79 44.5055 124.046 48.4455 124.046C52.3855 124.046 55.5769 120.79 55.5769 116.77C55.5769 113.876 53.8827 111.263 51.2823 110.097C50.3367 109.695 49.3911 109.494 48.4455 109.494Z" fill="#231F20"/>
<path d="M48.406 123.081C44.9782 123.081 42.2202 120.267 42.2202 116.77C42.2202 113.273 44.9782 110.459 48.406 110.459C49.2728 110.459 50.1002 110.619 50.8882 110.981C54.0402 112.388 55.4586 116.087 54.0796 119.262C53.4492 120.79 52.1884 121.996 50.6912 122.639C49.9426 122.921 49.194 123.081 48.406 123.081ZM48.406 111.021C45.2934 111.021 42.7718 113.594 42.7718 116.77C42.7718 119.946 45.2934 122.519 48.406 122.519C50.6518 122.519 52.6612 121.152 53.5674 119.061C54.7888 116.127 53.4886 112.75 50.6124 111.504C49.9426 111.182 49.1546 111.021 48.406 111.021Z" fill="#D1D3D4"/>
<path d="M77.7591 116.247V119.865C77.7591 121.232 73.8979 122.358 69.1699 122.358C64.4419 122.358 60.6201 121.232 60.6201 119.865V116.247H77.7591Z" fill="white"/>
<path d="M69.2092 122.639C64.9146 122.639 60.3442 121.674 60.3442 119.865V116.247C60.3442 116.087 60.4624 115.966 60.62 115.966H77.759C77.9166 115.966 78.0348 116.087 78.0348 116.247V119.865C78.0348 121.634 73.4644 122.639 69.2092 122.639ZM60.8958 116.529V119.865C60.8958 120.911 64.2842 122.076 69.2092 122.076C74.1342 122.076 77.5226 120.911 77.5226 119.865V116.529H60.8958Z" fill="#231F20"/>
<path d="M69.2093 118.74C73.953 118.74 77.7985 117.624 77.7985 116.247C77.7985 114.871 73.953 113.755 69.2093 113.755C64.4656 113.755 60.6201 114.871 60.6201 116.247C60.6201 117.624 64.4656 118.74 69.2093 118.74Z" fill="white"/>
<path d="M69.2092 118.981C64.9146 118.981 60.3442 118.016 60.3442 116.207C60.3442 114.398 64.9146 113.433 69.2092 113.433C73.5038 113.433 78.0742 114.398 78.0742 116.207C78.0742 118.016 73.4644 118.981 69.2092 118.981ZM69.2092 114.036C64.3236 114.036 60.8958 115.202 60.8958 116.247C60.8958 117.293 64.2842 118.458 69.2092 118.458C74.1342 118.458 77.5226 117.293 77.5226 116.247C77.5226 115.202 74.0948 114.036 69.2092 114.036Z" fill="#231F20"/>
<path d="M69.2093 118.016C66.6089 118.016 61.7627 117.654 61.7627 116.247C61.7627 114.84 66.6483 114.479 69.2093 114.479C71.7703 114.479 76.6953 114.84 76.6953 116.247C76.6953 117.654 71.7703 118.016 69.2093 118.016ZM69.2093 115.001C64.7177 115.001 62.2749 115.805 62.2749 116.207C62.2749 116.609 64.7177 117.413 69.2093 117.413C73.7009 117.413 76.1437 116.609 76.1437 116.207C76.1437 115.805 73.6615 115.001 69.2093 115.001Z" fill="#D1D3D4"/>
<path d="M52.5823 108.73H38.2013C38.0437 108.73 37.9255 108.609 37.9255 108.449C37.9255 108.288 38.0437 108.167 38.2013 108.167H52.5823C52.7399 108.167 52.8581 108.288 52.8581 108.449C52.8581 108.609 52.7399 108.73 52.5823 108.73Z" fill="white"/>
</svg>
