<svg width="197" height="201" viewBox="0 0 197 201" fill="none" xmlns="http://www.w3.org/2000/svg">
<path d="M104.607 71.3148C104.607 71.3148 100.588 63.2346 91.5262 65.4858C91.999 67.938 93.5356 70.0284 95.6632 71.2344C99.3274 73.365 104.607 71.3148 104.607 71.3148Z" fill="#231F20"/>
<path d="M105.395 123.615C105.08 123.615 104.843 123.374 104.843 123.052V61.1844C104.843 60.8628 105.08 60.6216 105.395 60.6216C105.71 60.6216 105.947 60.8628 105.947 61.1844V123.052C105.947 123.374 105.71 123.615 105.395 123.615Z" fill="#231F20"/>
<path d="M113.117 75.576C113.117 75.576 121.628 73.2444 125.371 83.5356C125.371 83.5356 121.943 84.7014 118.003 82.4502C113.866 80.0784 113.117 75.576 113.117 75.576Z" fill="#231F20"/>
<path d="M97.4757 83.7366C97.4757 83.7366 96.2937 92.661 85.5375 92.2188C85.5375 92.2188 85.8133 88.5606 89.3593 85.7064C93.1023 82.7316 97.4757 83.7366 97.4757 83.7366Z" fill="#231F20"/>
<path d="M105.395 61.1844C111.488 61.1844 116.427 56.1449 116.427 49.9284C116.427 43.7118 111.488 38.6724 105.395 38.6724C99.3022 38.6724 94.363 43.7118 94.363 49.9284C94.363 56.1449 99.3022 61.1844 105.395 61.1844Z" fill="white"/>
<path d="M105.395 61.4658C99.1698 61.4658 94.0872 56.3202 94.0872 49.9284C94.0872 43.5768 99.1304 38.391 105.395 38.391C111.66 38.391 116.703 43.5366 116.703 49.9284C116.703 56.3202 111.66 61.4658 105.395 61.4658ZM105.395 38.994C99.4456 38.994 94.6388 43.8984 94.6388 49.9686C94.6388 56.0388 99.4456 60.9432 105.395 60.9432C111.344 60.9432 116.151 56.0388 116.151 49.9686C116.151 43.8984 111.344 38.994 105.395 38.994Z" fill="#231F20"/>
<path d="M105.395 59.2146C100.391 59.2146 96.3331 55.074 96.3725 49.9686C96.3725 44.8632 100.431 40.7226 105.434 40.7628C110.438 40.7628 114.457 44.9034 114.496 50.0088C114.457 55.074 110.399 59.2146 105.395 59.2146ZM105.395 41.2452C100.667 41.2452 96.8453 45.1446 96.8453 49.9686C96.8453 54.7926 100.667 58.692 105.395 58.692C110.123 58.692 113.905 54.7926 113.905 49.9686C113.945 45.1446 110.123 41.2452 105.395 41.2452Z" fill="#D1D3D4"/>
<path d="M105.828 54.5514V55.7976H104.883V54.5112C102.952 54.3102 101.613 53.265 101.337 51.3354L103.386 50.9736C103.622 51.9786 104.095 52.5012 104.922 52.662V50.5716C103.307 50.1696 101.573 49.647 101.573 47.8782C101.573 46.3104 102.913 45.2652 104.922 45.1848V44.0994H105.868V45.225C107.641 45.426 108.862 46.431 109.217 47.8782L107.168 48.3204C107.01 47.6772 106.498 47.1948 105.868 47.034V48.8028C107.523 49.2048 109.532 49.7274 109.532 51.7374C109.493 53.4258 108.114 54.5112 105.828 54.5514ZM104.883 48.6822V47.034C104.095 47.0742 103.661 47.3556 103.661 47.8782C103.622 48.2802 104.134 48.4812 104.883 48.6822ZM107.404 51.858C107.404 51.2952 106.735 51.054 105.828 50.8128V52.7424C106.853 52.7022 107.365 52.3806 107.404 51.858Z" fill="#007EC6"/>
<path d="M104.883 89.7666C104.765 89.7666 104.686 89.7264 104.568 89.6862L82.0702 75.2142C81.7944 75.0534 81.755 74.6916 81.9126 74.4504C82.0702 74.169 82.4248 74.1288 82.6612 74.2896L105.159 88.7616C105.434 88.9224 105.513 89.2842 105.316 89.5254C105.237 89.646 105.08 89.7264 104.883 89.7666Z" fill="#231F20"/>
<path d="M105.828 80.1186C105.513 80.1186 105.277 79.8774 105.277 79.5558C105.277 79.3548 105.356 79.194 105.513 79.0734L125.41 66.0084C125.686 65.8476 126.001 65.928 126.159 66.1692C126.316 66.4506 126.238 66.7722 126.001 66.933L106.104 79.998C106.025 80.0784 105.947 80.1186 105.828 80.1186Z" fill="#231F20"/>
<path d="M80.5336 81.2442C84.9726 81.2442 88.5712 77.5726 88.5712 73.0434C88.5712 68.5142 84.9726 64.8426 80.5336 64.8426C76.0945 64.8426 72.496 68.5142 72.496 73.0434C72.496 77.5726 76.0945 81.2442 80.5336 81.2442Z" fill="white"/>
<path d="M80.5336 81.5256C75.9632 81.5256 72.2202 77.7468 72.2202 73.0434C72.2202 68.3802 75.9238 64.5612 80.5336 64.5612C85.104 64.5612 88.847 68.34 88.847 73.0434C88.847 77.7066 85.1434 81.5256 80.5336 81.5256ZM80.5336 65.124C76.239 65.124 72.7718 68.6616 72.7718 73.0434C72.7718 77.4252 76.239 80.9628 80.5336 80.9628C84.8282 80.9628 88.2954 77.4252 88.2954 73.0434C88.2954 68.6616 84.8282 65.124 80.5336 65.124Z" fill="#231F20"/>
<path d="M80.5336 79.8774C76.83 79.8774 73.8356 76.8222 73.8356 73.0434C73.8356 69.2646 76.83 66.2094 80.5336 66.2094C84.2372 66.2094 87.2316 69.2646 87.2316 73.0434C87.2316 76.8222 84.2372 79.8774 80.5336 79.8774ZM80.5336 66.7722C77.1452 66.7722 74.3872 69.5862 74.3872 73.0434C74.3872 76.5006 77.1452 79.3146 80.5336 79.3146C83.922 79.3146 86.68 76.5006 86.68 73.0434C86.68 69.5862 83.9614 66.7722 80.5336 66.7722Z" fill="#D1D3D4"/>
<path d="M80.8488 76.38V77.2644H80.1396V76.38C78.7606 76.2192 77.7362 75.4554 77.5392 74.0886L79.0364 73.8072C79.1152 74.4102 79.5486 74.9328 80.1396 75.0534V73.5258C78.9576 73.2444 77.6968 72.8424 77.6968 71.556C77.6968 70.4304 78.6818 69.6666 80.1396 69.5862V68.7822H80.8488V69.6264C82.149 69.7872 83.0552 70.5108 83.2916 71.556L81.7944 71.8776C81.6762 71.3952 81.2822 71.0736 80.8488 70.953V72.2394C82.0702 72.5208 83.528 72.9228 83.528 74.37C83.528 75.576 82.543 76.38 80.8488 76.38ZM80.179 72.0786V70.8726C79.6274 70.9128 79.2728 71.1138 79.2728 71.4756C79.2728 71.7972 79.6274 71.958 80.179 72.0786ZM81.9914 74.4102C81.9914 74.0082 81.5186 73.8072 80.8488 73.6464V75.0534C81.5974 75.0534 81.9914 74.8122 81.9914 74.4102Z" fill="#007EC6"/>
<path d="M129.193 74.7318C133.632 74.7318 137.23 71.0602 137.23 66.531C137.23 62.0018 133.632 58.3302 129.193 58.3302C124.754 58.3302 121.155 62.0018 121.155 66.531C121.155 71.0602 124.754 74.7318 129.193 74.7318Z" fill="white"/>
<path d="M129.193 75.0132C124.583 75.0132 120.879 71.2344 120.879 66.531C120.879 61.8276 124.583 58.0488 129.193 58.0488C133.802 58.0488 137.506 61.8276 137.506 66.531C137.506 71.1942 133.802 74.973 129.193 75.0132ZM129.193 58.6116C124.898 58.6116 121.431 62.1492 121.431 66.531C121.431 70.9128 124.898 74.4504 129.193 74.4504C133.487 74.4504 136.954 70.9128 136.954 66.531C136.954 62.1492 133.487 58.6116 129.193 58.6116Z" fill="#231F20"/>
<path d="M129.193 73.365C125.489 73.365 122.495 70.3098 122.495 66.531C122.495 62.7522 125.489 59.697 129.193 59.697C132.896 59.697 135.891 62.7522 135.891 66.531C135.891 70.3098 132.896 73.365 129.193 73.365ZM129.193 60.2598C125.804 60.2598 123.046 63.0738 123.046 66.531C123.046 69.9882 125.804 72.8022 129.193 72.8022C132.581 72.8022 135.339 69.9882 135.339 66.531C135.339 63.0336 132.581 60.2598 129.193 60.2598Z" fill="#D1D3D4"/>
<path d="M129.508 69.8676V70.752H128.799V69.8274C127.42 69.6666 126.395 68.9028 126.198 67.536L127.695 67.2546C127.774 67.8576 128.208 68.3802 128.799 68.5008V66.9732C127.617 66.6918 126.356 66.2898 126.356 65.0034C126.356 63.8778 127.341 63.114 128.799 63.0336V62.2296H129.508V63.0738C130.808 63.2346 131.714 63.9582 131.951 65.0034L130.453 65.325C130.335 64.8426 129.981 64.521 129.508 64.4004V65.6868C130.729 65.9682 132.187 66.3702 132.187 67.8174C132.187 69.0636 131.163 69.8274 129.508 69.8676ZM128.799 65.5662V64.3602C128.247 64.4004 127.892 64.6014 127.892 64.9632C127.892 65.2848 128.286 65.4456 128.799 65.5662ZM130.65 67.8978C130.65 67.4958 130.178 67.2948 129.508 67.134V68.541C130.256 68.541 130.65 68.2998 130.65 67.8978Z" fill="#007EC6"/>
<path d="M57.7604 153.082H70.526V98.9724H78.1696L64.1432 82.611L50.0774 98.9724H57.7604V153.082Z" fill="#007EC6"/>
<path d="M35.8541 153.082H45.5465V131.213H51.3383L40.7003 118.831L30.0623 131.213H35.8541V153.082Z" fill="#007EC6"/>
<path d="M146.529 153.082H159.294V77.1438H166.938L152.911 60.7824L138.885 77.1438H146.529V153.082Z" fill="#007EC6"/>
<path d="M96.8847 108.098C96.8847 108.098 89.0441 103.073 85.4193 100.822C81.7945 98.5704 85.0647 97.2438 87.5075 97.6056C87.5075 97.6056 90.6201 94.1886 93.2599 96.4398C93.2599 96.4398 94.9935 93.7464 99.0123 92.8218C103.031 91.8972 111.029 93.9876 111.029 93.9876C111.029 93.9876 114.496 90.7716 117.018 91.7766C119.54 92.7816 117.924 95.073 117.924 95.073C117.924 95.073 125.095 96.1584 124.189 98.0076C123.283 99.8568 114.772 103.234 113.039 105.284C111.305 107.334 110.478 108.379 110.478 108.379L96.8847 108.098Z" fill="white"/>
<path d="M110.478 108.661L96.924 108.379C96.8846 108.379 96.8058 108.379 96.7664 108.339C96.6876 108.299 88.8864 103.314 85.301 101.063C83.922 100.219 83.331 99.3744 83.6068 98.6106C83.9614 97.5654 85.8526 97.1232 87.4286 97.3242C87.9802 96.7614 90.7382 94.2288 93.2204 96.078C94.6782 94.3092 96.6876 93.063 98.9334 92.5806C102.716 91.656 109.808 93.4248 110.95 93.7062C111.581 93.1434 114.693 90.5706 117.136 91.5756C117.964 91.8972 118.476 92.4198 118.673 93.063C118.83 93.7062 118.712 94.3494 118.397 94.9122C119.776 95.1534 123.795 95.9574 124.465 97.284C124.622 97.5654 124.622 97.887 124.465 98.1684C123.952 99.2136 121.391 100.58 118.712 102.068C116.427 103.314 114.063 104.56 113.275 105.525C111.541 107.535 110.714 108.58 110.714 108.62C110.635 108.62 110.556 108.661 110.478 108.661ZM96.9634 107.816L110.32 108.098C110.556 107.776 111.384 106.771 112.842 105.083C113.708 104.078 115.994 102.832 118.436 101.505C120.879 100.178 123.519 98.7714 123.952 97.8468C124.031 97.7262 124.031 97.5654 123.952 97.4448C123.401 96.3594 119.382 95.5152 117.885 95.274C117.806 95.274 117.688 95.1936 117.688 95.1132C117.648 95.0328 117.648 94.9122 117.727 94.8318C117.727 94.8318 118.358 93.9072 118.121 93.1032C117.924 92.5806 117.491 92.1384 116.939 91.9776C114.575 91.0128 111.266 94.068 111.226 94.1082C111.147 94.1886 111.069 94.1886 110.99 94.1886C110.911 94.1484 102.992 92.0982 99.091 93.0228C95.1904 93.9474 93.5356 96.5202 93.5356 96.5604C93.4962 96.6408 93.4174 96.681 93.3386 96.681C93.2598 96.681 93.181 96.681 93.1022 96.6408C90.6988 94.5906 87.7832 97.7664 87.7438 97.7664C87.665 97.8468 87.5862 97.8468 87.5074 97.8468C86.0102 97.6458 84.3554 98.088 84.119 98.7714C83.9614 99.2136 84.4736 99.897 85.5768 100.58C89.0046 102.711 96.2148 107.334 96.9634 107.816Z" fill="#231F20"/>
<path d="M98.3424 108.781C98.3424 108.781 86.1284 117.585 79.9426 125.102C75.451 130.57 75.648 143.313 76.1208 149.866C76.2784 152.117 78.7606 153.926 81.7944 153.926H126.75C129.626 153.926 132.069 152.278 132.384 150.107C133.093 145.283 133.96 136.841 132.384 131.333C130.02 123.173 112.369 110.55 111.62 108.741H98.3424V108.781Z" fill="white"/>
<path d="M126.789 154.247H81.7944C78.6424 154.247 76.0026 152.358 75.845 149.946C75.3722 142.991 75.2146 130.489 79.7456 124.982C85.892 117.505 98.0666 108.701 98.1848 108.58C98.2242 108.54 98.303 108.54 98.3424 108.54H111.62C111.738 108.54 111.817 108.62 111.857 108.701C112.054 109.183 113.984 110.831 116.191 112.761C121.707 117.545 130.926 125.504 132.62 131.293C134.236 136.921 133.33 145.564 132.66 150.187C132.345 152.519 129.784 154.247 126.789 154.247ZM98.4606 109.063C97.4362 109.786 86.0496 118.148 80.179 125.303C75.8056 130.65 75.9238 142.991 76.3966 149.866C76.5542 151.996 78.9182 153.644 81.7944 153.644H126.75C129.508 153.644 131.832 152.117 132.108 150.067C132.778 145.484 133.684 136.961 132.108 131.414C130.493 125.786 121.352 117.866 115.875 113.163C113.314 110.952 111.896 109.706 111.463 109.063H98.4606Z" fill="#231F20"/>
<path d="M108.586 108.259C108.547 108.259 108.508 108.259 108.468 108.218C108.35 108.138 108.271 107.977 108.311 107.857C109.532 105.203 111.069 102.671 112.802 100.339C112.881 100.219 113.078 100.178 113.196 100.259C113.314 100.339 113.354 100.5 113.275 100.661C111.541 102.952 110.084 105.445 108.862 108.058C108.783 108.218 108.705 108.259 108.586 108.259Z" fill="#D1D3D4"/>
<path d="M103.07 108.58C102.952 108.58 102.834 108.5 102.795 108.379C101.376 104.078 96.1754 98.3694 96.0966 98.289C95.9784 98.1684 95.9784 98.0076 96.0966 97.887C96.2148 97.7664 96.3724 97.7664 96.4906 97.887C96.6876 98.088 100.549 102.349 102.519 106.329C102.164 103.837 101.573 101.384 100.746 99.0126C100.706 98.8518 100.785 98.691 100.903 98.6508C101.061 98.6106 101.219 98.691 101.258 98.8116C102.322 101.867 102.992 105.043 103.307 108.259C103.346 108.379 103.228 108.5 103.07 108.58Z" fill="#D1D3D4"/>
<path d="M99.2092 108.46C99.091 108.46 99.0122 108.379 98.9728 108.299C97.9484 105.847 94.166 103.435 94.1266 103.435C94.0084 103.354 93.969 103.193 94.0478 103.033C94.1266 102.912 94.2842 102.872 94.4418 102.952C94.5994 103.033 98.3818 105.445 99.485 108.098C99.5638 108.259 99.485 108.419 99.3274 108.46C99.2486 108.46 99.2092 108.46 99.2092 108.46Z" fill="#D1D3D4"/>
<path d="M89.7532 125.022C89.7138 125.022 89.6744 125.022 89.5956 124.982C89.4774 124.901 89.3986 124.741 89.4774 124.62C93.8902 116.821 100.746 110.188 100.825 110.108C100.943 109.987 101.1 110.027 101.219 110.108C101.297 110.188 101.297 110.309 101.258 110.429C101.219 110.51 97.3574 117.907 96.5694 121.605C96.53 121.766 96.3724 121.846 96.2542 121.806C96.136 121.766 96.0178 121.605 96.0572 121.484C96.6482 118.751 98.7758 114.168 99.9972 111.756C97.8302 114.047 93.2598 119.153 90.029 124.861C89.9502 124.982 89.832 125.022 89.7532 125.022Z" fill="#D1D3D4"/>
<path d="M120.328 124.298C120.209 124.298 120.131 124.218 120.091 124.138C117.136 117.424 106.38 109.505 106.262 109.424C106.144 109.344 106.104 109.143 106.222 109.022C106.301 108.902 106.459 108.862 106.577 108.942C107.01 109.264 117.609 117.022 120.603 123.856C120.682 123.977 120.603 124.178 120.485 124.218C120.446 124.298 120.367 124.298 120.328 124.298Z" fill="#D1D3D4"/>
<path d="M109.296 120.399C109.177 120.399 109.059 120.319 109.02 120.198C108.468 118.309 107.523 116.54 106.222 115.052C106.104 114.932 106.104 114.771 106.222 114.65C106.341 114.53 106.498 114.53 106.616 114.65C107.995 116.178 108.98 118.027 109.571 120.037C109.611 120.198 109.532 120.359 109.374 120.399C109.374 120.399 109.335 120.399 109.296 120.399Z" fill="#D1D3D4"/>
<path d="M96.4907 106.932H111.62C112.408 106.932 113.039 107.575 113.039 108.379C113.039 109.183 112.408 109.826 111.62 109.826H96.4907C95.7027 109.826 95.0723 109.183 95.0723 108.379C95.0723 107.575 95.7027 106.932 96.4907 106.932Z" fill="#231F20"/>
<path d="M111.62 110.108H96.4906C95.545 110.068 94.8358 109.264 94.8752 108.299C94.9146 107.414 95.6238 106.691 96.4906 106.651H111.62C112.566 106.691 113.275 107.495 113.236 108.46C113.196 109.384 112.487 110.068 111.62 110.108ZM96.4906 107.213C95.8602 107.254 95.3874 107.816 95.4268 108.46C95.4662 109.063 95.939 109.545 96.4906 109.545H111.62C112.251 109.505 112.723 108.942 112.684 108.299C112.645 107.696 112.172 107.213 111.62 107.213H96.4906Z" fill="#231F20"/>
<path d="M58.2726 158.187L50.235 153.564L50.4714 142.429C50.4714 142.429 82.8188 142.308 83.134 142.429C85.7344 143.434 88.2166 144.8 90.5018 146.449L58.2726 158.187Z" fill="white"/>
<path d="M58.2726 158.468C58.2332 158.468 58.1938 158.468 58.1544 158.428L50.1168 153.845C50.038 153.805 49.9592 153.685 49.9592 153.604L50.1956 142.469C50.1956 142.308 50.3138 142.187 50.4714 142.187C62.5672 142.147 82.8976 142.107 83.2128 142.187C85.8526 143.233 88.3348 144.599 90.6594 146.248C90.7382 146.328 90.7776 146.408 90.7776 146.529C90.7776 146.65 90.6988 146.73 90.5806 146.77L58.3514 158.509C58.3514 158.468 58.312 158.468 58.2726 158.468ZM50.5108 153.403L58.312 157.865L89.9108 146.368C87.7832 144.881 85.4586 143.635 83.0552 142.71C82.4248 142.63 61.8186 142.67 50.7472 142.71L50.5108 153.403Z" fill="#231F20"/>
<path d="M90.5018 146.449C90.029 146.127 58.2726 146.449 58.2726 146.449V158.187H90.5018V146.449Z" fill="white"/>
<path d="M58.2726 158.468C58.115 158.468 57.9968 158.348 57.9968 158.187V146.449C57.9968 146.288 58.115 146.167 58.2726 146.167C70.132 146.047 90.1472 145.886 90.6594 146.207C90.7382 146.248 90.7776 146.368 90.7776 146.449V158.187C90.7776 158.348 90.6594 158.468 90.5018 158.468H58.2726ZM58.5484 146.73V157.906H90.226V146.69C88.1378 146.489 70.526 146.569 58.5484 146.73Z" fill="#231F20"/>
<path d="M88.4924 153.082H84.5918C84.4342 153.082 84.316 152.961 84.316 152.8C84.316 152.639 84.4342 152.519 84.5918 152.519H88.4924C88.65 152.519 88.7682 152.639 88.7682 152.8C88.7682 152.961 88.65 153.082 88.4924 153.082Z" fill="#D1D3D4"/>
<path d="M67.1377 157.865V146.368L60.7549 142.388H76.9089L84.1191 146.288L84.5525 157.745" fill="#231F20"/>
<path d="M67.1376 158.147C66.98 158.147 66.8618 158.026 66.8618 157.865V146.489L60.5972 142.589C60.479 142.509 60.4396 142.348 60.5184 142.187C60.5578 142.107 60.676 142.067 60.7548 142.067H76.9482C76.9876 142.067 77.027 142.067 77.0664 142.107L84.2766 146.006C84.3554 146.047 84.4342 146.127 84.4342 146.248L84.8676 157.705C84.8676 157.865 84.7494 157.986 84.5918 157.986C84.4342 157.986 84.316 157.865 84.316 157.705L83.8826 146.408L76.8694 142.589H61.7398L67.2952 146.047C67.374 146.087 67.4134 146.207 67.4134 146.288V157.825C67.4134 158.026 67.2952 158.147 67.1376 158.147Z" fill="#231F20"/>
<path d="M58.2726 146.73C58.2332 146.73 58.1938 146.73 58.1544 146.69L50.3532 142.67C50.235 142.589 50.1562 142.429 50.235 142.308C50.3138 142.187 50.4714 142.107 50.5896 142.187L58.3908 146.207C58.509 146.288 58.5878 146.449 58.509 146.569C58.4696 146.69 58.3908 146.73 58.2726 146.73Z" fill="#231F20"/>
<path d="M66.1526 149.825H60.282C60.1244 149.825 60.0062 149.705 60.0062 149.544C60.0062 149.383 60.1244 149.263 60.282 149.263H66.1526C66.3102 149.263 66.4284 149.383 66.4284 149.544C66.4284 149.705 66.3102 149.825 66.1526 149.825Z" fill="#D1D3D4"/>
<path d="M89.5562 149.102H85.498C85.3404 149.102 85.2222 148.981 85.2222 148.82C85.2222 148.66 85.3404 148.539 85.498 148.539H89.5562C89.7138 148.539 89.832 148.66 89.832 148.82C89.832 148.981 89.7138 149.102 89.5562 149.102Z" fill="#D1D3D4"/>
<path d="M65.2858 154.046H58.9424C58.7848 154.046 58.6666 153.926 58.6666 153.765C58.6666 153.604 58.7848 153.484 58.9424 153.484H65.2858C65.4434 153.484 65.5616 153.604 65.5616 153.765C65.5616 153.926 65.4434 154.046 65.2858 154.046Z" fill="#D1D3D4"/>
<path d="M56.2632 148.7C56.2238 148.7 56.1844 148.7 56.145 148.66L51.8898 146.288C51.7716 146.207 51.6928 146.047 51.7716 145.886C51.8504 145.765 52.008 145.685 52.1262 145.765L56.3814 148.137C56.539 148.217 56.5784 148.378 56.4996 148.539C56.4602 148.66 56.342 148.7 56.2632 148.7Z" fill="#D1D3D4"/>
<path d="M57.2876 155.293C57.2482 155.293 57.2088 155.293 57.1694 155.252L52.7172 152.84C52.599 152.76 52.5202 152.599 52.599 152.479C52.6778 152.358 52.8354 152.278 52.9536 152.358L57.4058 154.77C57.524 154.85 57.6028 155.011 57.524 155.172C57.4846 155.252 57.3664 155.293 57.2876 155.293Z" fill="#D1D3D4"/>
<path d="M55.7116 151.594C55.6722 151.594 55.6328 151.594 55.5934 151.554L50.9048 149.021C50.7866 148.941 50.7078 148.78 50.7866 148.66C50.8654 148.539 51.023 148.459 51.1412 148.539L55.8298 151.072C55.948 151.152 56.0268 151.313 55.948 151.433C55.9086 151.554 55.7904 151.594 55.7116 151.594Z" fill="#D1D3D4"/>
<path d="M66.5861 156.338H62.8431C62.6855 156.338 62.5673 156.217 62.5673 156.056C62.5673 155.896 62.6855 155.775 62.8431 155.775H66.5861C66.7437 155.775 66.8619 155.896 66.8619 156.056C66.8619 156.217 66.7437 156.338 66.5861 156.338Z" fill="#D1D3D4"/>
<path d="M83.1734 138.248V141.866C83.1734 143.233 79.3516 144.358 74.5842 144.358C69.8168 144.358 65.995 143.233 65.995 141.866V138.248H83.1734Z" fill="white"/>
<path d="M74.5842 144.64C70.2896 144.64 65.7192 143.675 65.7192 141.866V138.248C65.7192 138.087 65.8374 137.966 65.995 137.966H83.134C83.2916 137.966 83.4098 138.087 83.4098 138.248V141.866C83.4492 143.675 78.8788 144.64 74.5842 144.64ZM66.2708 138.529V141.866C66.2708 142.911 69.6592 144.077 74.5842 144.077C79.5092 144.077 82.8976 142.911 82.8976 141.866V138.529H66.2708Z" fill="#231F20"/>
<path d="M74.5842 140.74C79.3279 140.74 83.1734 139.624 83.1734 138.248C83.1734 136.871 79.3279 135.755 74.5842 135.755C69.8405 135.755 65.995 136.871 65.995 138.248C65.995 139.624 69.8405 140.74 74.5842 140.74Z" fill="#231F20"/>
<path d="M74.5842 141.022C70.2896 141.022 65.7192 140.057 65.7192 138.248C65.7192 136.439 70.2896 135.474 74.5842 135.474C78.8788 135.474 83.4492 136.439 83.4492 138.248C83.4492 140.057 78.8788 141.022 74.5842 141.022ZM74.5842 136.037C69.6986 136.037 66.2708 137.203 66.2708 138.248C66.2708 139.293 69.6592 140.459 74.5842 140.459C79.5092 140.459 82.8976 139.293 82.8976 138.248C82.8976 137.203 79.4698 136.037 74.5842 136.037Z" fill="#231F20"/>
<path d="M81.1246 133.303V136.921C81.1246 138.288 77.2634 139.414 72.5354 139.414C67.8074 139.414 63.9462 138.288 63.9462 136.921V133.303H81.1246Z" fill="white"/>
<path d="M72.5748 139.655C68.2802 139.655 63.7098 138.69 63.7098 136.881V133.263C63.7098 133.102 63.828 132.982 63.9856 132.982H81.1246C81.2822 132.982 81.4004 133.102 81.4004 133.263V136.881C81.4004 138.69 76.8694 139.655 72.5748 139.655ZM64.2614 133.585V136.921C64.2614 137.966 67.6498 139.132 72.5748 139.132C77.4998 139.132 80.8882 137.966 80.8882 136.921V133.585H64.2614Z" fill="#231F20"/>
<path d="M72.5748 135.796C77.3185 135.796 81.164 134.68 81.164 133.303C81.164 131.927 77.3185 130.811 72.5748 130.811C67.8311 130.811 63.9856 131.927 63.9856 133.303C63.9856 134.68 67.8311 135.796 72.5748 135.796Z" fill="white"/>
<path d="M72.5748 136.037C68.2802 136.037 63.7098 135.072 63.7098 133.263C63.7098 131.454 68.2802 130.489 72.5748 130.489C76.8694 130.489 81.4398 131.454 81.4398 133.263C81.4398 135.072 76.8694 136.037 72.5748 136.037ZM72.5748 131.092C67.6892 131.092 64.2614 132.258 64.2614 133.303C64.2614 134.348 67.6498 135.514 72.5748 135.514C77.4998 135.514 80.8882 134.348 80.8882 133.303C80.8882 132.258 77.4604 131.092 72.5748 131.092Z" fill="#231F20"/>
<path d="M72.5749 135.072C69.9745 135.072 65.0889 134.71 65.0889 133.263C65.0889 131.816 69.9745 131.494 72.5749 131.494C75.1753 131.494 80.0215 131.856 80.0215 133.263C80.0215 134.67 75.1359 135.072 72.5749 135.072ZM72.5749 132.057C68.0833 132.057 65.6405 132.861 65.6405 133.263C65.6405 133.665 68.0833 134.469 72.5749 134.469C77.0665 134.469 79.5093 133.665 79.5093 133.263C79.5093 132.861 77.0271 132.057 72.5749 132.057Z" fill="#D1D3D4"/>
<path d="M155.985 150.589L121.51 150.268L112.014 159.232H151.887L155.985 150.589Z" fill="white"/>
<path d="M151.887 159.514H112.014C111.857 159.514 111.738 159.393 111.738 159.232C111.738 159.152 111.778 159.071 111.817 159.031L121.313 150.067C121.352 150.026 121.431 149.986 121.51 149.986L155.985 150.308C156.063 150.308 156.182 150.348 156.221 150.428C156.26 150.509 156.26 150.629 156.221 150.71L152.123 159.353C152.084 159.433 151.966 159.514 151.887 159.514ZM112.723 158.951H151.729L155.591 150.871L121.667 150.549L112.723 158.951Z" fill="#231F20"/>
<path d="M111.226 152.117V155.735C111.226 157.102 115.048 158.227 119.815 158.227C124.583 158.227 128.405 157.102 128.405 155.735V152.117H111.226Z" fill="white"/>
<path d="M119.815 158.468C115.521 158.468 110.95 157.504 110.95 155.695V152.077C110.95 151.916 111.069 151.795 111.226 151.795H128.365C128.523 151.795 128.641 151.916 128.641 152.077V155.695C128.641 157.504 124.11 158.468 119.815 158.468ZM111.502 152.398V155.735C111.502 156.78 114.89 157.946 119.815 157.946C124.74 157.946 128.129 156.78 128.129 155.735V152.398H111.502Z" fill="#231F20"/>
<path d="M119.815 154.609C124.559 154.609 128.405 153.493 128.405 152.117C128.405 150.74 124.559 149.624 119.815 149.624C115.072 149.624 111.226 150.74 111.226 152.117C111.226 153.493 115.072 154.609 119.815 154.609Z" fill="#231F20"/>
<path d="M119.815 154.85C115.521 154.85 110.95 153.886 110.95 152.077C110.95 150.268 115.521 149.303 119.815 149.303C124.11 149.303 128.68 150.268 128.68 152.077C128.68 153.886 124.11 154.85 119.815 154.85ZM119.815 149.906C114.93 149.906 111.502 151.072 111.502 152.117C111.502 153.162 114.89 154.328 119.815 154.328C124.74 154.328 128.129 153.162 128.129 152.117C128.129 151.072 124.701 149.906 119.815 149.906Z" fill="#231F20"/>
<path d="M113.236 147.132V150.75C113.236 152.117 117.097 153.242 121.825 153.242C126.553 153.242 130.414 152.157 130.414 150.75V147.132H113.236Z" fill="white"/>
<path d="M121.825 153.524C117.53 153.524 112.96 152.559 112.96 150.75V147.132C112.96 146.971 113.078 146.851 113.236 146.851H130.414C130.572 146.851 130.69 146.971 130.69 147.132V150.75C130.69 152.559 126.119 153.524 121.825 153.524ZM113.511 147.413V150.75C113.511 151.795 116.9 152.961 121.825 152.961C126.75 152.961 130.138 151.795 130.138 150.75V147.413H113.511Z" fill="#231F20"/>
<path d="M121.825 149.624C126.568 149.624 130.414 148.509 130.414 147.132C130.414 145.755 126.568 144.64 121.825 144.64C117.081 144.64 113.236 145.755 113.236 147.132C113.236 148.509 117.081 149.624 121.825 149.624Z" fill="#231F20"/>
<path d="M121.825 149.906C117.53 149.906 112.96 148.941 112.96 147.132C112.96 145.323 117.53 144.358 121.825 144.358C126.119 144.358 130.69 145.323 130.69 147.132C130.69 148.941 126.119 149.906 121.825 149.906ZM121.825 144.921C116.939 144.921 113.511 146.087 113.511 147.132C113.511 148.177 116.9 149.343 121.825 149.343C126.75 149.343 130.138 148.177 130.138 147.132C130.138 146.087 126.71 144.921 121.825 144.921Z" fill="#231F20"/>
<path d="M111.502 141.625V145.243C111.502 146.609 115.363 147.735 120.091 147.735C124.819 147.735 128.68 146.609 128.68 145.243V141.625H111.502Z" fill="white"/>
<path d="M120.052 147.976C115.757 147.976 111.187 147.011 111.187 145.202V141.584C111.187 141.424 111.305 141.303 111.463 141.303H128.602C128.759 141.303 128.877 141.424 128.877 141.584V145.202C128.917 147.011 124.346 147.976 120.052 147.976ZM111.778 141.906V145.243C111.778 146.288 115.166 147.454 120.091 147.454C125.016 147.454 128.405 146.288 128.405 145.243V141.906H111.778Z" fill="#231F20"/>
<path d="M120.052 144.117C124.796 144.117 128.641 143.001 128.641 141.625C128.641 140.248 124.796 139.132 120.052 139.132C115.308 139.132 111.463 140.248 111.463 141.625C111.463 143.001 115.308 144.117 120.052 144.117Z" fill="white"/>
<path d="M120.052 144.358C115.757 144.358 111.187 143.393 111.187 141.584C111.187 139.775 115.757 138.811 120.052 138.811C124.346 138.811 128.917 139.775 128.917 141.584C128.917 143.393 124.346 144.358 120.052 144.358ZM120.052 139.414C115.166 139.414 111.738 140.579 111.738 141.625C111.738 142.67 115.127 143.836 120.052 143.836C124.977 143.836 128.365 142.67 128.365 141.625C128.365 140.579 124.977 139.414 120.052 139.414Z" fill="#231F20"/>
<path d="M120.052 143.393C117.491 143.393 112.566 143.032 112.566 141.625C112.566 140.218 117.451 139.816 120.052 139.816C122.652 139.816 127.538 140.177 127.538 141.625C127.538 143.072 122.652 143.393 120.052 143.393ZM120.052 140.378C115.56 140.378 113.157 141.182 113.157 141.584C113.157 141.986 115.6 142.79 120.052 142.79C124.504 142.79 126.986 141.986 126.986 141.584C126.986 141.182 124.543 140.378 120.052 140.378Z" fill="#D1D3D4"/>
<path d="M133.724 150.147V153.765C133.724 155.132 137.545 156.257 142.313 156.257C147.08 156.257 150.902 155.132 150.902 153.765V150.147H133.724Z" fill="white"/>
<path d="M142.273 156.539C137.979 156.539 133.408 155.574 133.408 153.765V150.147C133.408 149.986 133.527 149.866 133.684 149.866H150.823C150.981 149.866 151.099 149.986 151.099 150.147V153.765C151.138 155.574 146.568 156.539 142.273 156.539ZM133.96 150.428V153.765C133.96 154.81 137.348 155.976 142.273 155.976C147.198 155.976 150.587 154.81 150.587 153.765V150.428H133.96Z" fill="#231F20"/>
<path d="M142.273 152.639C147.017 152.639 150.863 151.524 150.863 150.147C150.863 148.77 147.017 147.655 142.273 147.655C137.53 147.655 133.684 148.77 133.684 150.147C133.684 151.524 137.53 152.639 142.273 152.639Z" fill="#231F20"/>
<path d="M142.273 152.921C137.979 152.921 133.408 151.956 133.408 150.147C133.408 148.338 137.979 147.373 142.273 147.373C146.568 147.373 151.138 148.338 151.138 150.147C151.138 151.956 146.568 152.921 142.273 152.921ZM142.273 147.976C137.388 147.976 133.96 149.142 133.96 150.187C133.96 151.232 137.388 152.398 142.273 152.398C147.159 152.398 150.587 151.232 150.587 150.187C150.587 149.142 147.159 147.976 142.273 147.976Z" fill="#231F20"/>
<path d="M132.581 145.886V149.504C132.581 150.871 136.403 151.996 141.17 151.996C145.938 151.996 149.72 150.871 149.72 149.504V145.886H132.581Z" fill="white"/>
<path d="M141.17 152.278C136.876 152.278 132.305 151.313 132.305 149.504V145.886C132.305 145.725 132.423 145.604 132.581 145.604H149.72C149.878 145.604 149.996 145.725 149.996 145.886V149.504C149.996 151.313 145.465 152.278 141.17 152.278ZM132.857 146.167V149.504C132.857 150.549 136.245 151.715 141.17 151.715C146.095 151.715 149.484 150.549 149.484 149.504V146.167H132.857Z" fill="#231F20"/>
<path d="M141.17 148.378C145.914 148.378 149.759 147.262 149.759 145.886C149.759 144.509 145.914 143.393 141.17 143.393C136.427 143.393 132.581 144.509 132.581 145.886C132.581 147.262 136.427 148.378 141.17 148.378Z" fill="#231F20"/>
<path d="M141.17 148.66C136.876 148.66 132.305 147.695 132.305 145.886C132.305 144.077 136.876 143.112 141.17 143.112C145.465 143.112 150.035 144.077 150.035 145.886C150.035 147.695 145.465 148.66 141.17 148.66ZM141.17 143.675C136.285 143.675 132.857 144.841 132.857 145.886C132.857 146.931 136.245 148.097 141.17 148.097C146.095 148.097 149.484 146.931 149.484 145.886C149.484 144.841 146.056 143.675 141.17 143.675Z" fill="#231F20"/>
<path d="M133.96 140.66V144.278C133.96 145.645 137.782 146.77 142.549 146.77C147.317 146.77 151.138 145.645 151.138 144.278V140.66H133.96Z" fill="white"/>
<path d="M142.549 147.052C138.255 147.052 133.684 146.087 133.684 144.278V140.66C133.684 140.499 133.802 140.378 133.96 140.378H151.099C151.257 140.378 151.375 140.499 151.375 140.66V144.278C151.375 146.087 146.844 147.052 142.549 147.052ZM134.236 140.941V144.278C134.236 145.323 137.624 146.489 142.549 146.489C147.474 146.489 150.863 145.323 150.863 144.278V140.941H134.236Z" fill="#231F20"/>
<path d="M142.549 143.152C147.293 143.152 151.138 142.036 151.138 140.66C151.138 139.283 147.293 138.167 142.549 138.167C137.805 138.167 133.96 139.283 133.96 140.66C133.96 142.036 137.805 143.152 142.549 143.152Z" fill="#231F20"/>
<path d="M142.549 143.434C138.255 143.434 133.684 142.469 133.684 140.66C133.684 138.851 138.255 137.886 142.549 137.886C146.844 137.886 151.414 138.851 151.414 140.66C151.414 142.469 146.844 143.434 142.549 143.434ZM142.549 138.449C137.664 138.449 134.236 139.615 134.236 140.66C134.236 141.705 137.624 142.871 142.549 142.871C147.474 142.871 150.863 141.705 150.863 140.66C150.863 139.615 147.435 138.449 142.549 138.449Z" fill="#231F20"/>
<path d="M132.581 135.394V139.012C132.581 140.378 136.403 141.504 141.17 141.504C145.938 141.504 149.72 140.378 149.72 139.012V135.394H132.581Z" fill="white"/>
<path d="M141.17 141.785C136.876 141.785 132.305 140.821 132.305 139.012V135.394C132.305 135.233 132.423 135.112 132.581 135.112H149.72C149.878 135.112 149.996 135.233 149.996 135.394V139.012C149.996 140.821 145.465 141.785 141.17 141.785ZM132.857 135.675V139.012C132.857 140.057 136.245 141.223 141.17 141.223C146.095 141.223 149.484 140.057 149.484 139.012V135.675H132.857Z" fill="#231F20"/>
<path d="M141.17 137.886C145.914 137.886 149.759 136.77 149.759 135.394C149.759 134.017 145.914 132.901 141.17 132.901C136.427 132.901 132.581 134.017 132.581 135.394C132.581 136.77 136.427 137.886 141.17 137.886Z" fill="#231F20"/>
<path d="M141.17 138.167C136.876 138.167 132.305 137.203 132.305 135.394C132.305 133.585 136.876 132.66 141.17 132.66C145.465 132.66 150.035 133.625 150.035 135.434C150.035 137.243 145.465 138.167 141.17 138.167ZM141.17 133.223C136.285 133.223 132.857 134.389 132.857 135.434C132.857 136.479 136.245 137.645 141.17 137.645C146.095 137.645 149.484 136.479 149.484 135.434C149.484 134.389 146.056 133.223 141.17 133.223Z" fill="#231F20"/>
<path d="M135.339 131.092V134.71C135.339 136.077 139.2 137.203 143.928 137.203C148.656 137.203 152.517 136.077 152.517 134.71V131.092H135.339Z" fill="white"/>
<path d="M143.928 137.484C139.634 137.484 135.063 136.519 135.063 134.71V131.092C135.063 130.931 135.181 130.811 135.339 130.811H152.478C152.636 130.811 152.754 130.931 152.754 131.092V134.71C152.793 136.519 148.223 137.484 143.928 137.484ZM135.615 131.374V134.71C135.615 135.755 139.003 136.921 143.928 136.921C148.853 136.921 152.242 135.755 152.242 134.71V131.374H135.615Z" fill="#231F20"/>
<path d="M143.928 133.585C148.672 133.585 152.517 132.469 152.517 131.092C152.517 129.716 148.672 128.6 143.928 128.6C139.185 128.6 135.339 129.716 135.339 131.092C135.339 132.469 139.185 133.585 143.928 133.585Z" fill="#231F20"/>
<path d="M143.928 133.866C139.634 133.866 135.063 132.901 135.063 131.092C135.063 129.283 139.634 128.318 143.928 128.318C148.223 128.318 152.793 129.283 152.793 131.092C152.793 132.901 148.223 133.866 143.928 133.866ZM143.928 128.921C139.043 128.921 135.615 130.087 135.615 131.132C135.615 132.178 139.003 133.343 143.928 133.343C148.853 133.343 152.242 132.178 152.242 131.132C152.242 130.087 148.814 128.921 143.928 128.921Z" fill="#231F20"/>
<path d="M133.487 126.831V130.449C133.487 131.816 137.309 132.941 142.076 132.941C146.844 132.941 150.666 131.816 150.666 130.449V126.831H133.487Z" fill="white"/>
<path d="M142.037 133.223C137.742 133.223 133.172 132.258 133.172 130.449V126.831C133.172 126.67 133.29 126.55 133.448 126.55H150.587C150.744 126.55 150.863 126.67 150.863 126.831V130.449C150.902 132.218 146.332 133.223 142.037 133.223ZM133.763 127.112V130.449C133.763 131.494 137.151 132.66 142.076 132.66C147.001 132.66 150.39 131.494 150.39 130.449V127.112H133.763Z" fill="#231F20"/>
<path d="M142.037 129.323C146.781 129.323 150.626 128.207 150.626 126.831C150.626 125.454 146.781 124.339 142.037 124.339C137.293 124.339 133.448 125.454 133.448 126.831C133.448 128.207 137.293 129.323 142.037 129.323Z" fill="white"/>
<path d="M142.037 129.605C137.742 129.605 133.172 128.64 133.172 126.831C133.172 125.022 137.742 124.057 142.037 124.057C146.332 124.057 150.902 125.022 150.902 126.831C150.902 128.64 146.332 129.605 142.037 129.605ZM142.037 124.62C137.151 124.62 133.724 125.786 133.724 126.831C133.724 127.876 137.112 129.042 142.037 129.042C146.962 129.042 150.35 127.876 150.35 126.831C150.35 125.786 146.923 124.62 142.037 124.62Z" fill="#231F20"/>
<path d="M142.037 128.6C139.437 128.6 134.551 128.238 134.551 126.831C134.551 125.424 139.437 125.022 142.037 125.022C144.637 125.022 149.523 125.384 149.523 126.831C149.523 128.278 144.637 128.6 142.037 128.6ZM142.037 125.585C137.545 125.585 135.142 126.389 135.142 126.791C135.142 127.193 137.585 127.997 142.037 127.997C146.489 127.997 148.932 127.193 148.932 126.791C148.932 126.389 146.529 125.585 142.037 125.585Z" fill="#D1D3D4"/>
<path d="M78.406 162.328C82.4969 162.328 85.8132 158.944 85.8132 154.77C85.8132 150.596 82.4969 147.212 78.406 147.212C74.3151 147.212 70.9988 150.596 70.9988 154.77C70.9988 158.944 74.3151 162.328 78.406 162.328Z" fill="white"/>
<path d="M78.406 162.569C74.1508 162.569 70.723 159.071 70.723 154.73C70.723 150.388 74.1508 146.891 78.406 146.891C82.6612 146.891 86.089 150.388 86.089 154.73C86.089 155.815 85.8526 156.86 85.4586 157.825C84.2372 160.72 81.4792 162.569 78.406 162.569ZM78.4454 147.494C74.5054 147.494 71.314 150.75 71.314 154.77C71.314 158.79 74.5054 162.046 78.4454 162.046C82.3854 162.046 85.5768 158.79 85.5768 154.77C85.5768 151.876 83.8826 149.263 81.2822 148.097C80.3366 147.695 79.391 147.494 78.4454 147.494Z" fill="#231F20"/>
<path d="M78.406 161.081C74.9782 161.081 72.2202 158.267 72.2202 154.77C72.2202 151.273 74.9782 148.459 78.406 148.459C79.2728 148.459 80.1002 148.619 80.8882 148.981C84.0402 150.388 85.4586 154.087 84.0796 157.262C83.4492 158.79 82.1884 159.996 80.6912 160.639C79.9426 160.921 79.194 161.081 78.406 161.081ZM78.406 149.021C75.2934 149.021 72.7718 151.594 72.7718 154.77C72.7718 157.946 75.2934 160.519 78.406 160.519C80.6518 160.519 82.6612 159.152 83.5674 157.061C84.7888 154.127 83.4886 150.75 80.6124 149.504C79.9426 149.182 79.1546 149.021 78.406 149.021Z" fill="#D1D3D4"/>
<path d="M107.759 154.247V157.865C107.759 159.232 103.898 160.358 99.1698 160.358C94.4418 160.358 90.62 159.232 90.62 157.865V154.247H107.759Z" fill="white"/>
<path d="M99.2092 160.639C94.9146 160.639 90.3442 159.674 90.3442 157.865V154.247C90.3442 154.087 90.4624 153.966 90.62 153.966H107.759C107.917 153.966 108.035 154.087 108.035 154.247V157.865C108.035 159.634 103.464 160.639 99.2092 160.639ZM90.8958 154.529V157.865C90.8958 158.911 94.2842 160.076 99.2092 160.076C104.134 160.076 107.523 158.911 107.523 157.865V154.529H90.8958Z" fill="#231F20"/>
<path d="M99.2092 156.74C103.953 156.74 107.798 155.624 107.798 154.247C107.798 152.871 103.953 151.755 99.2092 151.755C94.4655 151.755 90.62 152.871 90.62 154.247C90.62 155.624 94.4655 156.74 99.2092 156.74Z" fill="white"/>
<path d="M99.2092 156.981C94.9146 156.981 90.3442 156.016 90.3442 154.207C90.3442 152.398 94.9146 151.433 99.2092 151.433C103.504 151.433 108.074 152.398 108.074 154.207C108.074 156.016 103.464 156.981 99.2092 156.981ZM99.2092 152.036C94.3236 152.036 90.8958 153.202 90.8958 154.247C90.8958 155.293 94.2842 156.458 99.2092 156.458C104.134 156.458 107.523 155.293 107.523 154.247C107.523 153.202 104.095 152.036 99.2092 152.036Z" fill="#231F20"/>
<path d="M99.2092 156.016C96.6088 156.016 91.7626 155.654 91.7626 154.247C91.7626 152.84 96.6482 152.479 99.2092 152.479C101.77 152.479 106.695 152.84 106.695 154.247C106.695 155.654 101.77 156.016 99.2092 156.016ZM99.2092 153.001C94.7176 153.001 92.2748 153.805 92.2748 154.207C92.2748 154.609 94.7176 155.413 99.2092 155.413C103.701 155.413 106.144 154.609 106.144 154.207C106.144 153.805 103.661 153.001 99.2092 153.001Z" fill="#D1D3D4"/>
<path d="M82.5825 146.73H68.2015C68.0439 146.73 67.9257 146.609 67.9257 146.449C67.9257 146.288 68.0439 146.167 68.2015 146.167H82.5825C82.7401 146.167 82.8583 146.288 82.8583 146.449C82.8583 146.609 82.7401 146.73 82.5825 146.73Z" fill="white"/>
</svg>
