<svg width="346" height="92" viewBox="0 0 346 92" fill="none" xmlns="http://www.w3.org/2000/svg">
<path d="M13.312 40.736L10.24 68H2.432L8.576 20.96L26.944 51.36L45.376 20.96L51.52 68H43.712L40.576 40.736L26.944 63.84L13.312 40.736ZM64.243 56.48L65.651 50.08H86.451L87.923 56.48H64.243ZM75.955 35.872L68.915 52.32L68.787 53.984L62.579 68H54.067L75.955 20.704L97.843 68H89.331L83.251 54.368L83.059 52.512L75.955 35.872ZM112.271 46.624H120.463L135.631 68H126.543L112.271 46.624ZM103.055 23.2H110.607V68H103.055V23.2ZM107.535 29.728V23.2H116.878C120.121 23.2 122.937 23.776 125.327 24.928C127.759 26.08 129.636 27.7013 130.958 29.792C132.281 31.84 132.943 34.272 132.943 37.088C132.943 39.904 132.281 42.3573 130.958 44.448C129.636 46.5387 127.759 48.16 125.327 49.312C122.937 50.464 120.121 51.04 116.878 51.04H107.535V44.832H116.559C118.265 44.832 119.759 44.5333 121.039 43.936C122.361 43.3387 123.385 42.4853 124.111 41.376C124.836 40.224 125.199 38.8587 125.199 37.28C125.199 35.6587 124.836 34.2933 124.111 33.184C123.385 32.0747 122.361 31.2213 121.039 30.624C119.759 30.0267 118.265 29.728 116.559 29.728H107.535ZM141.117 23.2H148.861V68H141.117V23.2ZM165.501 23.2H174.589L155.709 44.192L175.549 68H166.269L146.557 44.384L165.501 23.2ZM185.414 68V61.344H208.006V68H185.414ZM185.414 29.856V23.2H208.006V29.856H185.414ZM185.414 47.264V40.736H206.726V47.264H185.414ZM180.742 23.2H188.166V68H180.742V23.2ZM217.305 23.2H224.985V68H217.305V23.2ZM231.769 68H221.977V60.896H231.577C233.795 60.896 235.843 60.576 237.721 59.936C239.598 59.296 241.219 58.336 242.585 57.056C243.993 55.776 245.081 54.176 245.849 52.256C246.659 50.336 247.065 48.1173 247.065 45.6C247.065 43.0827 246.659 40.864 245.849 38.944C245.081 37.024 243.993 35.424 242.585 34.144C241.219 32.864 239.598 31.904 237.721 31.264C235.843 30.624 233.795 30.304 231.577 30.304H221.977V23.2H231.769C236.334 23.2 240.345 24.1387 243.801 26.016C247.257 27.8507 249.945 30.4533 251.865 33.824C253.827 37.152 254.809 41.0773 254.809 45.6C254.809 50.1227 253.827 54.0693 251.865 57.44C249.945 60.768 247.257 63.3707 243.801 65.248C240.345 67.0827 236.334 68 231.769 68Z" fill="black"/>
<path d="M289.983 21.4545H299.824V51.6818C299.824 55.0758 299.013 58.0455 297.392 60.5909C295.786 63.1364 293.536 65.1212 290.642 66.5455C287.748 67.9545 284.377 68.6591 280.528 68.6591C276.665 68.6591 273.286 67.9545 270.392 66.5455C267.498 65.1212 265.248 63.1364 263.642 60.5909C262.036 58.0455 261.233 55.0758 261.233 51.6818V21.4545H271.074V50.8409C271.074 52.6136 271.46 54.1894 272.233 55.5682C273.021 56.947 274.127 58.0303 275.551 58.8182C276.975 59.6061 278.634 60 280.528 60C282.438 60 284.097 59.6061 285.506 58.8182C286.93 58.0303 288.028 56.947 288.801 55.5682C289.589 54.1894 289.983 52.6136 289.983 50.8409V21.4545ZM307.92 68V21.4545H326.284C329.814 21.4545 332.822 22.1288 335.307 23.4773C337.792 24.8106 339.686 26.6667 340.989 29.0455C342.307 31.4091 342.966 34.1364 342.966 37.2273C342.966 40.3182 342.299 43.0455 340.966 45.4091C339.633 47.7727 337.701 49.6136 335.17 50.9318C332.655 52.25 329.61 52.9091 326.034 52.9091H314.33V45.0227H324.443C326.337 45.0227 327.898 44.697 329.125 44.0455C330.367 43.3788 331.292 42.4621 331.898 41.2955C332.519 40.1136 332.83 38.7576 332.83 37.2273C332.83 35.6818 332.519 34.3333 331.898 33.1818C331.292 32.0151 330.367 31.1136 329.125 30.4773C327.883 29.8258 326.307 29.5 324.398 29.5H317.761V68H307.92Z" fill="#007EC6"/>
</svg>
