<svg width="192" height="28" viewBox="0 0 192 28" fill="none" xmlns="http://www.w3.org/2000/svg">
<path d="M6.488 11.664L4.76 27H0.368L3.824 0.539999L14.156 17.64L24.524 0.539999L27.98 27H23.588L21.824 11.664L14.156 24.66L6.488 11.664ZM35.1367 20.52L35.9287 16.92H47.6287L48.4567 20.52H35.1367ZM41.7247 8.928L37.7647 18.18L37.6927 19.116L34.2007 27H29.4127L41.7247 0.395999L54.0367 27H49.2487L45.8287 19.332L45.7207 18.288L41.7247 8.928ZM62.1522 14.976H66.7602L75.2922 27H70.1802L62.1522 14.976ZM56.9682 1.8H61.2162V27H56.9682V1.8ZM59.4882 5.472V1.8H64.7442C66.5682 1.8 68.1522 2.124 69.4962 2.772C70.8642 3.42 71.9202 4.332 72.6642 5.508C73.4082 6.66 73.7802 8.028 73.7802 9.612C73.7802 11.196 73.4082 12.576 72.6642 13.752C71.9202 14.928 70.8642 15.84 69.4962 16.488C68.1522 17.136 66.5682 17.46 64.7442 17.46H59.4882V13.968H64.5642C65.5242 13.968 66.3642 13.8 67.0842 13.464C67.8282 13.128 68.4042 12.648 68.8122 12.024C69.2202 11.376 69.4242 10.608 69.4242 9.72C69.4242 8.808 69.2202 8.04 68.8122 7.416C68.4042 6.792 67.8282 6.312 67.0842 5.976C66.3642 5.64 65.5242 5.472 64.5642 5.472H59.4882ZM78.3783 1.8H82.7343V27H78.3783V1.8ZM92.0943 1.8H97.2063L86.5863 13.608L97.7463 27H92.5263L81.4383 13.716L92.0943 1.8ZM103.295 27V23.256H116.003V27H103.295ZM103.295 5.544V1.8H116.003V5.544H103.295ZM103.295 15.336V11.664H115.283V15.336H103.295ZM100.667 1.8H104.843V27H100.667V1.8ZM121.234 1.8H125.554V27H121.234V1.8ZM129.37 27H123.862V23.004H129.262C130.51 23.004 131.662 22.824 132.718 22.464C133.774 22.104 134.686 21.564 135.454 20.844C136.246 20.124 136.858 19.224 137.29 18.144C137.746 17.064 137.974 15.816 137.974 14.4C137.974 12.984 137.746 11.736 137.29 10.656C136.858 9.576 136.246 8.676 135.454 7.956C134.686 7.236 133.774 6.696 132.718 6.336C131.662 5.976 130.51 5.796 129.262 5.796H123.862V1.8H129.37C131.938 1.8 134.194 2.328 136.138 3.384C138.082 4.416 139.594 5.88 140.674 7.776C141.778 9.648 142.33 11.856 142.33 14.4C142.33 16.944 141.778 19.164 140.674 21.06C139.594 22.932 138.082 24.396 136.138 25.452C134.194 26.484 131.938 27 129.37 27Z" fill="white"/>
<path d="M162.115 0.818181H167.651V17.821C167.651 19.7301 167.195 21.4006 166.283 22.8324C165.38 24.2642 164.114 25.3807 162.486 26.1818C160.858 26.9744 158.962 27.3707 156.797 27.3707C154.624 27.3707 152.723 26.9744 151.096 26.1818C149.468 25.3807 148.202 24.2642 147.299 22.8324C146.395 21.4006 145.944 19.7301 145.944 17.821V0.818181H151.479V17.348C151.479 18.3452 151.696 19.2315 152.131 20.0071C152.574 20.7827 153.196 21.392 153.998 21.8352C154.799 22.2784 155.732 22.5 156.797 22.5C157.871 22.5 158.804 22.2784 159.597 21.8352C160.398 21.392 161.016 20.7827 161.451 20.0071C161.894 19.2315 162.115 18.3452 162.115 17.348V0.818181ZM172.205 27V0.818181H182.535C184.521 0.818181 186.212 1.19744 187.61 1.95597C189.008 2.70597 190.073 3.75 190.806 5.08807C191.548 6.41761 191.918 7.9517 191.918 9.69034C191.918 11.429 191.543 12.9631 190.793 14.2926C190.043 15.6222 188.957 16.6577 187.533 17.3991C186.119 18.1406 184.406 18.5114 182.394 18.5114H175.81V14.0753H181.499C182.565 14.0753 183.442 13.892 184.133 13.5256C184.832 13.1506 185.352 12.6349 185.692 11.9787C186.042 11.3139 186.217 10.5511 186.217 9.69034C186.217 8.82102 186.042 8.0625 185.692 7.41477C185.352 6.75852 184.832 6.25142 184.133 5.89347C183.434 5.52699 182.548 5.34375 181.474 5.34375H177.741V27H172.205Z" fill="#007EC6"/>
</svg>
