<svg width="258" height="277" viewBox="0 0 258 277" fill="none" xmlns="http://www.w3.org/2000/svg">
<path d="M254.17 228.85L257.65 213.73L250.03 211.21C250.141 205.988 249.258 200.793 247.43 195.9L253.83 191.01L245.59 177.85L238.4 181.47C234.789 177.703 230.501 174.65 225.76 172.47L226.82 164.47L211.69 161L209.17 168.64C203.952 168.531 198.761 169.41 193.87 171.23L188.97 164.84L175.82 173.08L179.43 180.27C175.663 183.881 172.61 188.169 170.43 192.91L162.48 191.85L159 206.97L166.62 209.5C166.515 214.718 167.397 219.909 169.22 224.8L162.83 229.69L171.06 242.85L178.26 239.23C181.863 243.002 186.149 246.056 190.89 248.23L189.83 256.23L204.96 259.71L207.48 252.09C212.701 252.19 217.895 251.308 222.79 249.49L227.68 255.88L240.83 247.64L237.17 240.43C240.936 236.822 243.99 232.538 246.17 227.8L254.17 228.85ZM203.61 230.85C199.563 229.918 195.883 227.808 193.036 224.785C190.188 221.762 188.301 217.963 187.612 213.868C186.924 209.773 187.464 205.566 189.167 201.778C190.869 197.99 193.656 194.792 197.175 192.588C200.694 190.384 204.788 189.272 208.939 189.394C213.09 189.517 217.112 190.867 220.495 193.274C223.879 195.681 226.473 199.038 227.949 202.919C229.426 206.8 229.718 211.032 228.79 215.08C228.171 217.772 227.027 220.315 225.424 222.564C223.821 224.813 221.79 226.724 219.447 228.187C217.105 229.65 214.496 230.637 211.772 231.09C209.047 231.544 206.26 231.455 203.57 230.83L203.61 230.85Z" fill="#DA7704"/>
<path d="M116.86 181.04L125.86 192.75L149.96 177.66L143.34 164.49C150.254 157.882 155.859 150.027 159.86 141.34L174.39 143.29L180.76 115.59L166.76 110.96C166.95 101.41 165.335 91.9104 162 82.96L173.71 73.96L158.66 49.85L145.48 56.47C138.877 49.554 131.026 43.9489 122.34 39.95L124.27 25.37L96.57 19L91.94 33C82.3905 32.8131 72.8913 34.428 63.94 37.76L54.94 26.05L30.86 41.1L37.46 54.29C30.5492 60.9014 24.9449 68.7549 20.94 77.44L6.37 75.51L0 103.21L14 107.84C13.8113 117.389 15.4228 126.888 18.75 135.84L7.05 144.84L22.14 168.93L35.27 162.29C41.8775 169.208 49.7318 174.816 58.42 178.82L56.48 193.39L84.19 199.76L88.82 185.76C98.3805 185.966 107.894 184.365 116.86 181.04ZM81.76 146.89C74.3377 145.191 67.5862 141.328 62.3596 135.791C57.133 130.254 53.6661 123.291 52.3976 115.783C51.1292 108.275 52.1161 100.559 55.2334 93.6125C58.3508 86.6655 63.4587 80.7993 69.9107 76.7559C76.3628 72.7126 83.8691 70.6737 91.4802 70.8973C99.0912 71.1209 106.465 73.597 112.668 78.0122C118.872 82.4274 123.627 88.5834 126.331 95.7014C129.035 102.819 129.567 110.579 127.86 118C125.575 127.943 119.436 136.572 110.791 141.989C102.146 147.407 91.7041 149.169 81.76 146.89Z" fill="black"/>
<path d="M106.47 271.06C109.969 271.135 113.451 270.544 116.73 269.32L120.02 273.61L128.84 268.09L126.41 263.26C128.944 260.845 130.997 257.97 132.46 254.79L137.8 255.49L140.11 245.35L135 243.66C135.075 240.157 134.485 236.672 133.26 233.39L137.55 230.11L132.02 221.29L127.2 223.71C124.778 221.179 121.901 219.126 118.72 217.66L119.43 212.32L109.31 210L107.61 215.11C104.111 215.045 100.632 215.635 97.35 216.85L94.11 212.56L85.29 218.08L87.72 222.91C85.1838 225.324 83.1306 228.198 81.67 231.38L76.33 230.67L74 240.82L79.11 242.51C79.0363 246.012 79.6267 249.497 80.85 252.78L76.56 256.06L82.09 264.88L86.91 262.46C89.3318 264.991 92.2086 267.044 95.39 268.51L94.68 273.84L104.82 276.18L106.47 271.06ZM103.88 256.82C101.164 256.196 98.6948 254.78 96.7835 252.752C94.8723 250.725 93.6053 248.176 93.1426 245.428C92.6799 242.68 93.0424 239.857 94.1842 237.315C95.326 234.773 97.1958 232.627 99.5573 231.147C101.919 229.668 104.666 228.922 107.451 229.004C110.236 229.086 112.935 229.992 115.205 231.608C117.476 233.223 119.216 235.475 120.207 238.08C121.197 240.684 121.393 243.524 120.77 246.24C120.356 248.044 119.591 249.749 118.518 251.257C117.445 252.765 116.085 254.046 114.517 255.029C112.948 256.011 111.202 256.675 109.377 256.983C107.551 257.29 105.684 257.235 103.88 256.82Z" fill="black"/>
<path d="M178.73 18.36L179.67 14.26L177.6 13.58C177.627 12.1651 177.39 10.7576 176.9 9.42999L178.63 8.11L176.45 4.53999L174.5 5.53999C173.524 4.51858 172.363 3.69075 171.08 3.10001L171.36 0.940002L167.27 0L166.58 2.06C165.167 2.03028 163.762 2.27129 162.44 2.77L161.11 1.04L157.55 3.27L158.55 5.22C157.522 6.19308 156.691 7.354 156.1 8.64L153.95 8.35001L153 12.45L155.07 13.14C155.043 14.5516 155.28 15.9558 155.77 17.28L153.97 18.64L156.2 22.2L158.15 21.2C159.125 22.2254 160.285 23.0567 161.57 23.65L161.29 25.8L165.39 26.74L166.07 24.68C167.485 24.7074 168.892 24.47 170.22 23.98L171.54 25.71L175.11 23.48L174.11 21.53C175.129 20.5482 175.957 19.385 176.55 18.1L178.73 18.36ZM165.03 18.89C163.933 18.6369 162.935 18.0638 162.164 17.2435C161.393 16.4232 160.882 15.3924 160.697 14.2817C160.511 13.171 160.66 12.0303 161.123 11.0041C161.587 9.9778 162.344 9.11211 163.3 8.51657C164.256 7.92103 165.366 7.62243 166.492 7.65858C167.617 7.69474 168.707 8.06401 169.622 8.71965C170.538 9.37529 171.238 10.2878 171.635 11.3417C172.031 12.3956 172.106 13.5435 171.85 14.64C171.507 16.1069 170.597 17.378 169.319 18.1747C168.04 18.9714 166.498 19.2287 165.03 18.89Z" fill="black"/>
<path d="M212.82 52.34L213.76 48.24L211.7 47.56C211.724 46.1445 211.483 44.737 210.99 43.41L212.72 42.09L210.49 38.54L208.49 39.54C207.514 38.5186 206.353 37.6907 205.07 37.1L205.36 34.94L201.26 34L200.57 36.07C199.158 36.0419 197.754 36.2794 196.43 36.77L195.1 35.04L191.54 37.27L192.54 39.22C191.512 40.1931 190.681 41.354 190.09 42.64L187.94 42.36L187 46.45L189.06 47.14C189.032 48.5517 189.269 49.956 189.76 51.28L188.06 52.54L190.29 56.1L192.29 55.1C193.269 56.1255 194.433 56.9567 195.72 57.55L195.43 59.7L199.53 60.64L200.21 58.58C201.625 58.6074 203.032 58.37 204.36 57.88L205.68 59.61L209.25 57.38L208.25 55.43C209.272 54.45 210.099 53.2864 210.69 52L212.82 52.34ZM199.12 52.88C198.023 52.6284 197.026 52.0573 196.254 51.239C195.482 50.4206 194.97 49.3918 194.782 48.2824C194.595 47.1731 194.74 46.033 195.201 45.0064C195.661 43.9798 196.415 43.1126 197.368 42.5146C198.321 41.9165 199.43 41.6144 200.554 41.6464C201.679 41.6784 202.769 42.0431 203.686 42.6944C204.604 43.3457 205.308 44.2543 205.709 45.3055C206.11 46.3566 206.19 47.5031 205.94 48.6C205.774 49.3291 205.465 50.0182 205.032 50.6279C204.599 51.2377 204.051 51.7562 203.417 52.1537C202.784 52.5512 202.078 52.8199 201.341 52.9445C200.604 53.0692 199.849 53.0472 199.12 52.88Z" fill="black"/>
</svg>
