<svg width="23" height="22" viewBox="0 0 23 22" fill="none" xmlns="http://www.w3.org/2000/svg">
<g clip-path="url(#clip0_318_2)">
<path d="M20.6255 0H2.36914C1.37158 0 0.5 0.717773 0.5 1.70361V20.0005C0.5 20.9917 1.37158 21.875 2.36914 21.875H20.6201C21.623 21.875 22.375 20.9858 22.375 20.0005V1.70361C22.3809 0.717773 21.623 0 20.6255 0ZM7.28076 18.2339H4.14697V8.49023H7.28076V18.2339ZM5.82227 7.00879H5.7998C4.79687 7.00879 4.14746 6.26221 4.14746 5.32764C4.14746 4.37598 4.81397 3.64697 5.83936 3.64697C6.86475 3.64697 7.49219 4.37061 7.51465 5.32764C7.51416 6.26221 6.86475 7.00879 5.82227 7.00879ZM18.7339 18.2339H15.6001V12.9062C15.6001 11.6299 15.144 10.7578 14.0103 10.7578C13.144 10.7578 12.6313 11.3438 12.4033 11.9146C12.3179 12.1196 12.2949 12.3989 12.2949 12.6841V18.2339H9.16113V8.49023H12.2949V9.84619C12.751 9.19678 13.4634 8.26221 15.1211 8.26221C17.1782 8.26221 18.7344 9.61816 18.7344 12.5415L18.7339 18.2339Z" fill="white"/>
</g>
<defs>
<clipPath id="clip0_318_2">
<rect width="22" height="22" fill="white" transform="translate(0.5)"/>
</clipPath>
</defs>
</svg>
