<svg width="22" height="22" viewBox="0 0 22 22" fill="none" xmlns="http://www.w3.org/2000/svg">
<path d="M20.1255 0H1.86914C0.871582 0 0 0.717773 0 1.70361V20.0005C0 20.9917 0.871582 21.875 1.86914 21.875H20.1201C21.123 21.875 21.875 20.9858 21.875 20.0005V1.70361C21.8809 0.717773 21.123 0 20.1255 0ZM6.78076 18.2339H3.64697V8.49023H6.78076V18.2339ZM5.32227 7.00879H5.2998C4.29687 7.00879 3.64746 6.26221 3.64746 5.32764C3.64746 4.37598 4.31397 3.64697 5.33936 3.64697C6.36475 3.64697 6.99219 4.37061 7.01465 5.32764C7.01416 6.26221 6.36475 7.00879 5.32227 7.00879ZM18.2339 18.2339H15.1001V12.9062C15.1001 11.6299 14.644 10.7578 13.5103 10.7578C12.644 10.7578 12.1313 11.3438 11.9033 11.9146C11.8179 12.1196 11.7949 12.3989 11.7949 12.6841V18.2339H8.66113V8.49023H11.7949V9.84619C12.251 9.19678 12.9634 8.26221 14.6211 8.26221C16.6782 8.26221 18.2344 9.61816 18.2344 12.5415L18.2339 18.2339Z" fill="black"/>
</svg>
